G04*
G04 #@! TF.GenerationSoftware,Altium Limited,Altium Designer,19.0.10 (269)*
G04*
G04 Layer_Color=16711935*
%FSLAX25Y25*%
%MOIN*%
G70*
G01*
G75*
%ADD50C,0.00394*%
%ADD51C,0.00100*%
D50*
X156508Y92142D02*
X167492D01*
X156508Y109858D02*
X167492D01*
Y92142D02*
Y109858D01*
X156508Y92142D02*
Y109858D01*
X384508Y152047D02*
X395492D01*
X384508Y169764D02*
X395492D01*
Y152047D02*
Y169764D01*
X384508Y152047D02*
Y169764D01*
X155142Y121508D02*
Y132492D01*
X172858Y121508D02*
Y132492D01*
X155142Y121508D02*
X172858D01*
X155142Y132492D02*
X172858D01*
X58142Y182508D02*
Y193492D01*
X75858Y182508D02*
Y193492D01*
X58142Y182508D02*
X75858D01*
X58142Y193492D02*
X75858D01*
D51*
X217000Y68800D02*
Y73800D01*
X214500Y71300D02*
X219500D01*
X217000Y78000D02*
Y91550D01*
Y286450D02*
Y300000D01*
X237650Y91550D02*
Y286450D01*
X196350D02*
X237650D01*
X196350Y91550D02*
Y286450D01*
Y91550D02*
X237650D01*
X262500Y68300D02*
Y73300D01*
X260000Y70800D02*
X265000D01*
X262500Y77500D02*
Y91050D01*
Y285950D02*
Y299500D01*
X283150Y91050D02*
Y285950D01*
X241850D02*
X283150D01*
X241850Y91050D02*
Y285950D01*
Y91050D02*
X283150D01*
M02*
