G04*
G04 #@! TF.GenerationSoftware,Altium Limited,Altium Designer,19.0.10 (269)*
G04*
G04 Layer_Physical_Order=1*
G04 Layer_Color=255*
%FSLAX25Y25*%
%MOIN*%
G70*
G01*
G75*
%ADD16R,0.07087X0.04134*%
%ADD17R,0.06890X0.06693*%
%ADD18R,0.06693X0.06890*%
%ADD26R,0.07087X0.07087*%
%ADD27C,0.07087*%
%ADD29C,0.07874*%
%ADD30C,0.13780*%
%ADD31C,0.03937*%
%ADD32R,0.09055X0.09055*%
%ADD33C,0.09055*%
%ADD34C,0.07677*%
%ADD35C,0.10630*%
%ADD36C,0.06000*%
%ADD37C,0.03150*%
G36*
X172462Y146201D02*
X172255Y146188D01*
X172039Y146144D01*
X171811Y146069D01*
X171574Y145964D01*
X171326Y145828D01*
X171069Y145661D01*
X170800Y145464D01*
X170232Y144978D01*
X169933Y144689D01*
X167149Y147473D01*
X167438Y147772D01*
X167925Y148339D01*
X168122Y148608D01*
X168289Y148866D01*
X168424Y149114D01*
X168530Y149351D01*
X168604Y149578D01*
X168648Y149795D01*
X168662Y150001D01*
X172462Y146201D01*
D02*
G37*
G36*
X403505Y347777D02*
X403000Y19000D01*
X19000D01*
X19000Y197000D01*
X112000Y197000D01*
X163613Y145387D01*
X157276Y139049D01*
X123528D01*
X122753Y138947D01*
X122330Y138772D01*
X122030Y138648D01*
X121410Y138172D01*
X115043Y131805D01*
X114472Y131880D01*
X113902Y131805D01*
X101994Y143713D01*
Y157787D01*
X101892Y158562D01*
X101593Y159284D01*
X101117Y159905D01*
X88333Y172689D01*
X88408Y173260D01*
X88242Y174523D01*
X87754Y175700D01*
X86979Y176711D01*
X85968Y177486D01*
X84791Y177974D01*
X83528Y178140D01*
X82265Y177974D01*
X81087Y177486D01*
X80077Y176711D01*
X79301Y175700D01*
X78813Y174523D01*
X78647Y173260D01*
X78813Y171997D01*
X79301Y170820D01*
X80077Y169809D01*
X81087Y169033D01*
X82265Y168546D01*
X83528Y168379D01*
X84098Y168455D01*
X96006Y156547D01*
Y142472D01*
X96108Y141698D01*
X96407Y140975D01*
X96883Y140355D01*
X109667Y127571D01*
X109592Y127000D01*
X109758Y125737D01*
X110246Y124560D01*
X111021Y123549D01*
X111478Y123199D01*
Y114713D01*
X95295Y98529D01*
X67549D01*
X67016Y99525D01*
X66227Y100487D01*
X65266Y101276D01*
X64169Y101863D01*
X62978Y102224D01*
X61740Y102346D01*
X60502Y102224D01*
X59312Y101863D01*
X58215Y101276D01*
X57253Y100487D01*
X56464Y99525D01*
X55878Y98428D01*
X55517Y97238D01*
X55395Y96000D01*
X55517Y94762D01*
X55878Y93572D01*
X56464Y92475D01*
X57253Y91513D01*
X58215Y90724D01*
X59312Y90137D01*
X60502Y89776D01*
X61740Y89654D01*
X62978Y89776D01*
X64169Y90137D01*
X65266Y90724D01*
X66227Y91513D01*
X67016Y92475D01*
X67052Y92541D01*
X77224D01*
X123623Y46143D01*
X124243Y45667D01*
X124542Y45543D01*
X124965Y45368D01*
X125740Y45266D01*
X140199D01*
X140549Y44809D01*
X141560Y44033D01*
X142737Y43546D01*
X144000Y43380D01*
X144571Y43455D01*
X161143Y26883D01*
X161763Y26407D01*
X162485Y26108D01*
X163260Y26006D01*
X332531D01*
X333306Y26108D01*
X334028Y26407D01*
X334648Y26883D01*
X394117Y86352D01*
X394593Y86972D01*
X394892Y87694D01*
X394994Y88469D01*
X394994Y209398D01*
X395191Y209549D01*
X395967Y210560D01*
X396454Y211737D01*
X396620Y213000D01*
X396454Y214263D01*
X395967Y215440D01*
X395191Y216451D01*
X394180Y217227D01*
X393003Y217714D01*
X391740Y217880D01*
X390477Y217714D01*
X389300Y217227D01*
X388289Y216451D01*
X387514Y215440D01*
X387026Y214263D01*
X386860Y213000D01*
X387026Y211737D01*
X387514Y210560D01*
X388289Y209549D01*
X389006Y208999D01*
X389006Y89709D01*
X331291Y31994D01*
X164500D01*
X148805Y47689D01*
X148880Y48260D01*
X148805Y48831D01*
X158002Y58028D01*
X166543D01*
Y64161D01*
X157457D01*
Y64089D01*
X156835D01*
X156060Y63987D01*
X155338Y63687D01*
X154718Y63212D01*
X144571Y53065D01*
X144000Y53140D01*
X142737Y52974D01*
X141560Y52486D01*
X140549Y51711D01*
X140199Y51254D01*
X126980D01*
X86155Y92079D01*
X86346Y92541D01*
X96535D01*
X97310Y92643D01*
X98032Y92942D01*
X98653Y93418D01*
X116590Y111355D01*
X117065Y111975D01*
X117189Y112275D01*
X117365Y112698D01*
X117467Y113472D01*
Y123199D01*
X117923Y123549D01*
X118699Y124560D01*
X119186Y125737D01*
X119353Y127000D01*
X119278Y127571D01*
X124768Y133061D01*
X158516D01*
X159291Y133163D01*
X160013Y133462D01*
X160633Y133938D01*
X167848Y141153D01*
X172500Y136500D01*
X172500Y34480D01*
X297480D01*
X369000Y106000D01*
X369000Y348131D01*
X403152Y348131D01*
X403505Y347777D01*
D02*
G37*
%LPC*%
G36*
X385827Y339626D02*
X384087Y339454D01*
X382414Y338947D01*
X380873Y338123D01*
X379521Y337014D01*
X378413Y335663D01*
X377589Y334121D01*
X377081Y332448D01*
X376910Y330709D01*
X377081Y328969D01*
X377589Y327296D01*
X378413Y325755D01*
X379521Y324403D01*
X380873Y323294D01*
X382414Y322470D01*
X384087Y321963D01*
X385827Y321792D01*
X387566Y321963D01*
X389239Y322470D01*
X390781Y323294D01*
X392132Y324403D01*
X393241Y325755D01*
X394065Y327296D01*
X394572Y328969D01*
X394744Y330709D01*
X394572Y332448D01*
X394065Y334121D01*
X393241Y335663D01*
X392132Y337014D01*
X390781Y338123D01*
X389239Y338947D01*
X387566Y339454D01*
X385827Y339626D01*
D02*
G37*
G36*
X392240Y247342D02*
Y243028D01*
X396555D01*
X396454Y243791D01*
X395967Y244968D01*
X395191Y245978D01*
X394180Y246754D01*
X393003Y247242D01*
X392240Y247342D01*
D02*
G37*
G36*
X391240Y247342D02*
X390477Y247242D01*
X389300Y246754D01*
X388289Y245978D01*
X387514Y244968D01*
X387026Y243791D01*
X386926Y243028D01*
X391240D01*
Y247342D01*
D02*
G37*
G36*
Y242028D02*
X386926D01*
X387026Y241264D01*
X387514Y240087D01*
X388289Y239077D01*
X389300Y238301D01*
X390477Y237813D01*
X391240Y237713D01*
Y242028D01*
D02*
G37*
G36*
X396555D02*
X392240D01*
Y237713D01*
X393003Y237813D01*
X394180Y238301D01*
X395191Y239077D01*
X395967Y240087D01*
X396454Y241264D01*
X396555Y242028D01*
D02*
G37*
G36*
X386500Y229531D02*
Y227500D01*
X388531D01*
X388509Y227672D01*
X388249Y228298D01*
X387836Y228836D01*
X387298Y229249D01*
X386672Y229508D01*
X386500Y229531D01*
D02*
G37*
G36*
X385500D02*
X385328Y229508D01*
X384701Y229249D01*
X384164Y228836D01*
X383751Y228298D01*
X383491Y227672D01*
X383469Y227500D01*
X385500D01*
Y229531D01*
D02*
G37*
G36*
X388531Y226500D02*
X386500D01*
Y224469D01*
X386672Y224492D01*
X387298Y224751D01*
X387836Y225164D01*
X388249Y225701D01*
X388509Y226328D01*
X388531Y226500D01*
D02*
G37*
G36*
X385500D02*
X383469D01*
X383491Y226328D01*
X383751Y225701D01*
X384164Y225164D01*
X384701Y224751D01*
X385328Y224492D01*
X385500Y224469D01*
Y226500D01*
D02*
G37*
G36*
X50500Y191531D02*
Y189500D01*
X52531D01*
X52509Y189672D01*
X52249Y190298D01*
X51836Y190836D01*
X51298Y191249D01*
X50672Y191508D01*
X50500Y191531D01*
D02*
G37*
G36*
X49500D02*
X49328Y191508D01*
X48702Y191249D01*
X48164Y190836D01*
X47751Y190298D01*
X47491Y189672D01*
X47469Y189500D01*
X49500D01*
Y191531D01*
D02*
G37*
G36*
X52531Y188500D02*
X50500D01*
Y186469D01*
X50672Y186492D01*
X51298Y186751D01*
X51836Y187164D01*
X52249Y187701D01*
X52509Y188328D01*
X52531Y188500D01*
D02*
G37*
G36*
X49500D02*
X47469D01*
X47491Y188328D01*
X47751Y187701D01*
X48164Y187164D01*
X48702Y186751D01*
X49328Y186492D01*
X49500Y186469D01*
Y188500D01*
D02*
G37*
G36*
X70500Y171531D02*
Y169500D01*
X72531D01*
X72509Y169672D01*
X72249Y170299D01*
X71836Y170836D01*
X71298Y171249D01*
X70672Y171509D01*
X70500Y171531D01*
D02*
G37*
G36*
X69500D02*
X69328Y171509D01*
X68701Y171249D01*
X68164Y170836D01*
X67751Y170299D01*
X67492Y169672D01*
X67469Y169500D01*
X69500D01*
Y171531D01*
D02*
G37*
G36*
X72531Y168500D02*
X70500D01*
Y166469D01*
X70672Y166491D01*
X71298Y166751D01*
X71836Y167164D01*
X72249Y167701D01*
X72509Y168328D01*
X72531Y168500D01*
D02*
G37*
G36*
X69500D02*
X67469D01*
X67492Y168328D01*
X67751Y167701D01*
X68164Y167164D01*
X68701Y166751D01*
X69328Y166491D01*
X69500Y166469D01*
Y168500D01*
D02*
G37*
G36*
X112500Y161307D02*
Y159276D01*
X114531D01*
X114508Y159448D01*
X114249Y160074D01*
X113836Y160612D01*
X113298Y161025D01*
X112672Y161284D01*
X112500Y161307D01*
D02*
G37*
G36*
X111500D02*
X111328Y161284D01*
X110702Y161025D01*
X110164Y160612D01*
X109751Y160074D01*
X109492Y159448D01*
X109469Y159276D01*
X111500D01*
Y161307D01*
D02*
G37*
G36*
X114531Y158276D02*
X112500D01*
Y156244D01*
X112672Y156267D01*
X113298Y156527D01*
X113836Y156939D01*
X114249Y157477D01*
X114508Y158103D01*
X114531Y158276D01*
D02*
G37*
G36*
X111500D02*
X109469D01*
X109492Y158103D01*
X109751Y157477D01*
X110164Y156939D01*
X110702Y156527D01*
X111328Y156267D01*
X111500Y156244D01*
Y158276D01*
D02*
G37*
G36*
X54000Y178140D02*
X52737Y177974D01*
X51560Y177486D01*
X50549Y176711D01*
X49773Y175700D01*
X49286Y174523D01*
X49120Y173260D01*
X49286Y171997D01*
X49773Y170820D01*
X50549Y169809D01*
X51006Y169458D01*
Y164035D01*
X51108Y163260D01*
X51407Y162538D01*
X51883Y161918D01*
X56689Y157112D01*
Y152555D01*
X65244D01*
X65382Y152555D01*
X65744D01*
X65882Y152555D01*
X69174D01*
X69328Y152491D01*
X70000Y152403D01*
X70672Y152491D01*
X70826Y152555D01*
X74437D01*
Y161445D01*
X65882D01*
X65744Y161445D01*
X65382D01*
X65244Y161445D01*
X60825D01*
X56994Y165276D01*
Y169458D01*
X57451Y169809D01*
X58227Y170820D01*
X58714Y171997D01*
X58880Y173260D01*
X58714Y174523D01*
X58227Y175700D01*
X57451Y176711D01*
X56440Y177486D01*
X55263Y177974D01*
X54000Y178140D01*
D02*
G37*
G36*
X155838Y149531D02*
Y147500D01*
X157869D01*
X157846Y147672D01*
X157587Y148299D01*
X157174Y148836D01*
X156636Y149249D01*
X156010Y149509D01*
X155838Y149531D01*
D02*
G37*
G36*
X154838D02*
X154666Y149509D01*
X154039Y149249D01*
X153501Y148836D01*
X153088Y148299D01*
X152829Y147672D01*
X152806Y147500D01*
X154838D01*
Y149531D01*
D02*
G37*
G36*
X72500Y147531D02*
Y145500D01*
X74531D01*
X74509Y145672D01*
X74249Y146299D01*
X73836Y146836D01*
X73299Y147249D01*
X72672Y147509D01*
X72500Y147531D01*
D02*
G37*
G36*
X71500D02*
X71328Y147509D01*
X70701Y147249D01*
X70164Y146836D01*
X69751Y146299D01*
X69491Y145672D01*
X69469Y145500D01*
X71500D01*
Y147531D01*
D02*
G37*
G36*
X128000Y177597D02*
X127328Y177508D01*
X126701Y177249D01*
X126249Y176902D01*
X121555D01*
Y168347D01*
X121555Y168209D01*
Y167846D01*
X121555Y167709D01*
Y159153D01*
X129624D01*
X138167Y150610D01*
X138092Y150039D01*
X138258Y148776D01*
X138746Y147599D01*
X139522Y146589D01*
X140532Y145813D01*
X141709Y145325D01*
X142973Y145159D01*
X144236Y145325D01*
X145413Y145813D01*
X146423Y146589D01*
X147199Y147599D01*
X147687Y148776D01*
X147853Y150039D01*
X147687Y151303D01*
X147199Y152480D01*
X146423Y153490D01*
X145413Y154266D01*
X144236Y154753D01*
X142973Y154920D01*
X142402Y154845D01*
X131629Y165617D01*
X131009Y166093D01*
X130445Y166327D01*
Y167709D01*
X130445Y167846D01*
Y168209D01*
X130445Y168347D01*
Y174174D01*
X130508Y174328D01*
X130597Y175000D01*
X130508Y175672D01*
X130445Y175826D01*
Y176902D01*
X129751D01*
X129298Y177249D01*
X128672Y177508D01*
X128000Y177597D01*
D02*
G37*
G36*
X157869Y146500D02*
X155838D01*
Y144469D01*
X156010Y144492D01*
X156636Y144751D01*
X157174Y145164D01*
X157587Y145702D01*
X157846Y146328D01*
X157869Y146500D01*
D02*
G37*
G36*
X154838D02*
X152806D01*
X152829Y146328D01*
X153088Y145702D01*
X153501Y145164D01*
X154039Y144751D01*
X154666Y144492D01*
X154838Y144469D01*
Y146500D01*
D02*
G37*
G36*
X74531Y144500D02*
X72500D01*
Y142469D01*
X72672Y142491D01*
X73299Y142751D01*
X73836Y143164D01*
X74249Y143702D01*
X74509Y144328D01*
X74531Y144500D01*
D02*
G37*
G36*
X71500D02*
X69469D01*
X69491Y144328D01*
X69751Y143702D01*
X70164Y143164D01*
X70701Y142751D01*
X71328Y142491D01*
X71500Y142469D01*
Y144500D01*
D02*
G37*
G36*
X115957Y142531D02*
Y140500D01*
X117988D01*
X117965Y140672D01*
X117706Y141298D01*
X117293Y141836D01*
X116755Y142249D01*
X116129Y142508D01*
X115957Y142531D01*
D02*
G37*
G36*
X114957D02*
X114785Y142508D01*
X114158Y142249D01*
X113620Y141836D01*
X113208Y141298D01*
X112948Y140672D01*
X112926Y140500D01*
X114957D01*
Y142531D01*
D02*
G37*
G36*
X117988Y139500D02*
X115957D01*
Y137469D01*
X116129Y137492D01*
X116755Y137751D01*
X117293Y138164D01*
X117706Y138701D01*
X117965Y139328D01*
X117988Y139500D01*
D02*
G37*
G36*
X114957D02*
X112926D01*
X112948Y139328D01*
X113208Y138701D01*
X113620Y138164D01*
X114158Y137751D01*
X114785Y137492D01*
X114957Y137469D01*
Y139500D01*
D02*
G37*
G36*
X83394Y144613D02*
X82156Y144491D01*
X80965Y144130D01*
X79868Y143544D01*
X78907Y142755D01*
X78118Y141793D01*
X77531Y140696D01*
X77170Y139506D01*
X77048Y138268D01*
X77170Y137030D01*
X77531Y135839D01*
X78118Y134742D01*
X78907Y133781D01*
X79868Y132992D01*
X80965Y132405D01*
X82156Y132044D01*
X83394Y131922D01*
X84632Y132044D01*
X85822Y132405D01*
X86919Y132992D01*
X87881Y133781D01*
X88670Y134742D01*
X89256Y135839D01*
X89617Y137030D01*
X89739Y138268D01*
X89617Y139506D01*
X89256Y140696D01*
X88670Y141793D01*
X87881Y142755D01*
X86919Y143544D01*
X85822Y144130D01*
X84632Y144491D01*
X83394Y144613D01*
D02*
G37*
G36*
X61740D02*
X60502Y144491D01*
X59312Y144130D01*
X58215Y143544D01*
X57253Y142755D01*
X56464Y141793D01*
X55878Y140696D01*
X55517Y139506D01*
X55395Y138268D01*
X55517Y137030D01*
X55878Y135839D01*
X56464Y134742D01*
X57253Y133781D01*
X58215Y132992D01*
X59312Y132405D01*
X60502Y132044D01*
X61740Y131922D01*
X62978Y132044D01*
X64169Y132405D01*
X65266Y132992D01*
X66227Y133781D01*
X67016Y134742D01*
X67603Y135839D01*
X67964Y137030D01*
X68086Y138268D01*
X67964Y139506D01*
X67603Y140696D01*
X67016Y141793D01*
X66227Y142755D01*
X65266Y143544D01*
X64169Y144130D01*
X62978Y144491D01*
X61740Y144613D01*
D02*
G37*
G36*
X33000Y137137D02*
X31608Y137000D01*
X30269Y136593D01*
X29035Y135934D01*
X27954Y135046D01*
X27066Y133965D01*
X26406Y132731D01*
X26000Y131392D01*
X25863Y130000D01*
X26000Y128608D01*
X26406Y127269D01*
X27066Y126035D01*
X27954Y124954D01*
X29035Y124066D01*
X30269Y123407D01*
X31608Y123000D01*
X33000Y122863D01*
X34392Y123000D01*
X35731Y123407D01*
X36965Y124066D01*
X38046Y124954D01*
X38934Y126035D01*
X39593Y127269D01*
X40000Y128608D01*
X40137Y130000D01*
X40000Y131392D01*
X39593Y132731D01*
X38934Y133965D01*
X38046Y135046D01*
X36965Y135934D01*
X35731Y136593D01*
X34392Y137000D01*
X33000Y137137D01*
D02*
G37*
G36*
X124500Y119531D02*
Y117500D01*
X126531D01*
X126508Y117672D01*
X126249Y118298D01*
X125836Y118836D01*
X125299Y119249D01*
X124672Y119509D01*
X124500Y119531D01*
D02*
G37*
G36*
X123500D02*
X123328Y119509D01*
X122702Y119249D01*
X122164Y118836D01*
X121751Y118298D01*
X121492Y117672D01*
X121469Y117500D01*
X123500D01*
Y119531D01*
D02*
G37*
G36*
X48500D02*
Y117500D01*
X50531D01*
X50509Y117672D01*
X50249Y118298D01*
X49836Y118836D01*
X49299Y119249D01*
X48672Y119509D01*
X48500Y119531D01*
D02*
G37*
G36*
X47500D02*
X47328Y119509D01*
X46701Y119249D01*
X46164Y118836D01*
X45751Y118298D01*
X45491Y117672D01*
X45469Y117500D01*
X47500D01*
Y119531D01*
D02*
G37*
G36*
X83394Y128078D02*
X82156Y127956D01*
X80965Y127595D01*
X79868Y127008D01*
X78907Y126219D01*
X78118Y125258D01*
X77531Y124161D01*
X77170Y122970D01*
X77048Y121732D01*
X77170Y120494D01*
X77531Y119304D01*
X78118Y118207D01*
X78907Y117245D01*
X79868Y116456D01*
X80965Y115870D01*
X82156Y115509D01*
X83394Y115387D01*
X84632Y115509D01*
X85822Y115870D01*
X86919Y116456D01*
X87881Y117245D01*
X88670Y118207D01*
X89256Y119304D01*
X89617Y120494D01*
X89739Y121732D01*
X89617Y122970D01*
X89256Y124161D01*
X88670Y125258D01*
X87881Y126219D01*
X86919Y127008D01*
X85822Y127595D01*
X84632Y127956D01*
X83394Y128078D01*
D02*
G37*
G36*
X61740D02*
X60502Y127956D01*
X59312Y127595D01*
X58215Y127008D01*
X57253Y126219D01*
X56464Y125258D01*
X55878Y124161D01*
X55517Y122970D01*
X55395Y121732D01*
X55517Y120494D01*
X55878Y119304D01*
X56464Y118207D01*
X57253Y117245D01*
X58215Y116456D01*
X59312Y115870D01*
X60502Y115509D01*
X61740Y115387D01*
X62978Y115509D01*
X64169Y115870D01*
X65266Y116456D01*
X66227Y117245D01*
X67016Y118207D01*
X67603Y119304D01*
X67964Y120494D01*
X68086Y121732D01*
X67964Y122970D01*
X67603Y124161D01*
X67016Y125258D01*
X66227Y126219D01*
X65266Y127008D01*
X64169Y127595D01*
X62978Y127956D01*
X61740Y128078D01*
D02*
G37*
G36*
X126531Y116500D02*
X124500D01*
Y114469D01*
X124672Y114491D01*
X125299Y114751D01*
X125836Y115164D01*
X126249Y115701D01*
X126508Y116328D01*
X126531Y116500D01*
D02*
G37*
G36*
X123500D02*
X121469D01*
X121492Y116328D01*
X121751Y115701D01*
X122164Y115164D01*
X122702Y114751D01*
X123328Y114491D01*
X123500Y114469D01*
Y116500D01*
D02*
G37*
G36*
X50531D02*
X48500D01*
Y114469D01*
X48672Y114491D01*
X49299Y114751D01*
X49836Y115164D01*
X50249Y115701D01*
X50509Y116328D01*
X50531Y116500D01*
D02*
G37*
G36*
X47500D02*
X45469D01*
X45491Y116328D01*
X45751Y115701D01*
X46164Y115164D01*
X46701Y114751D01*
X47328Y114491D01*
X47500Y114469D01*
Y116500D01*
D02*
G37*
G36*
X33000Y103137D02*
X31608Y103000D01*
X30269Y102594D01*
X29035Y101934D01*
X27954Y101046D01*
X27066Y99965D01*
X26406Y98731D01*
X26000Y97392D01*
X25863Y96000D01*
X26000Y94608D01*
X26406Y93269D01*
X27066Y92035D01*
X27954Y90954D01*
X29035Y90066D01*
X30269Y89407D01*
X31608Y89000D01*
X33000Y88863D01*
X34392Y89000D01*
X35731Y89407D01*
X36965Y90066D01*
X38046Y90954D01*
X38934Y92035D01*
X39593Y93269D01*
X40000Y94608D01*
X40137Y96000D01*
X40000Y97392D01*
X39593Y98731D01*
X38934Y99965D01*
X38046Y101046D01*
X36965Y101934D01*
X35731Y102594D01*
X34392Y103000D01*
X33000Y103137D01*
D02*
G37*
G36*
X131500Y77531D02*
Y75500D01*
X133531D01*
X133509Y75672D01*
X133249Y76298D01*
X132836Y76836D01*
X132299Y77249D01*
X131672Y77508D01*
X131500Y77531D01*
D02*
G37*
G36*
X130500D02*
X130328Y77508D01*
X129701Y77249D01*
X129164Y76836D01*
X128751Y76298D01*
X128491Y75672D01*
X128469Y75500D01*
X130500D01*
Y77531D01*
D02*
G37*
G36*
X88500Y75531D02*
Y73500D01*
X90531D01*
X90509Y73672D01*
X90249Y74299D01*
X89836Y74836D01*
X89298Y75249D01*
X88672Y75508D01*
X88500Y75531D01*
D02*
G37*
G36*
X87500D02*
X87328Y75508D01*
X86702Y75249D01*
X86164Y74836D01*
X85751Y74299D01*
X85492Y73672D01*
X85469Y73500D01*
X87500D01*
Y75531D01*
D02*
G37*
G36*
X50500D02*
Y73500D01*
X52531D01*
X52509Y73672D01*
X52249Y74299D01*
X51836Y74836D01*
X51298Y75249D01*
X50672Y75508D01*
X50500Y75531D01*
D02*
G37*
G36*
X49500D02*
X49328Y75508D01*
X48702Y75249D01*
X48164Y74836D01*
X47751Y74299D01*
X47491Y73672D01*
X47469Y73500D01*
X49500D01*
Y75531D01*
D02*
G37*
G36*
X133531Y74500D02*
X131500D01*
Y72469D01*
X131672Y72492D01*
X132299Y72751D01*
X132836Y73164D01*
X133249Y73702D01*
X133509Y74328D01*
X133531Y74500D01*
D02*
G37*
G36*
X130500D02*
X128469D01*
X128491Y74328D01*
X128751Y73702D01*
X129164Y73164D01*
X129701Y72751D01*
X130328Y72492D01*
X130500Y72469D01*
Y74500D01*
D02*
G37*
G36*
X90531Y72500D02*
X88500D01*
Y70469D01*
X88672Y70491D01*
X89298Y70751D01*
X89836Y71164D01*
X90249Y71702D01*
X90509Y72328D01*
X90531Y72500D01*
D02*
G37*
G36*
X87500D02*
X85469D01*
X85492Y72328D01*
X85751Y71702D01*
X86164Y71164D01*
X86702Y70751D01*
X87328Y70491D01*
X87500Y70469D01*
Y72500D01*
D02*
G37*
G36*
X52531D02*
X50500D01*
Y70469D01*
X50672Y70491D01*
X51298Y70751D01*
X51836Y71164D01*
X52249Y71702D01*
X52509Y72328D01*
X52531Y72500D01*
D02*
G37*
G36*
X49500D02*
X47469D01*
X47491Y72328D01*
X47751Y71702D01*
X48164Y71164D01*
X48702Y70751D01*
X49328Y70491D01*
X49500Y70469D01*
Y72500D01*
D02*
G37*
G36*
X144000Y131880D02*
X142737Y131714D01*
X141560Y131227D01*
X140549Y130451D01*
X139773Y129440D01*
X139286Y128263D01*
X139120Y127000D01*
X139286Y125737D01*
X139773Y124560D01*
X140549Y123549D01*
X141006Y123199D01*
Y114000D01*
X141108Y113225D01*
X141407Y112503D01*
X141883Y111883D01*
X157082Y96684D01*
X156948Y96362D01*
X156948D01*
Y87807D01*
X156948Y87669D01*
Y87307D01*
X156948Y87169D01*
Y78614D01*
X159006D01*
Y75972D01*
X157457D01*
Y69839D01*
X166543D01*
Y75972D01*
X164994D01*
Y78614D01*
X165838D01*
Y87169D01*
X165838Y87307D01*
Y87669D01*
X165838Y87807D01*
Y91669D01*
X166117Y91883D01*
X166593Y92503D01*
X166892Y93225D01*
X166994Y94000D01*
X166892Y94775D01*
X166593Y95497D01*
X166117Y96117D01*
X146994Y115240D01*
Y123199D01*
X147451Y123549D01*
X148226Y124560D01*
X148714Y125737D01*
X148880Y127000D01*
X148714Y128263D01*
X148226Y129440D01*
X147451Y130451D01*
X146440Y131227D01*
X145263Y131714D01*
X144000Y131880D01*
D02*
G37*
G36*
X386799Y67531D02*
Y65500D01*
X388830D01*
X388807Y65672D01*
X388548Y66299D01*
X388135Y66836D01*
X387597Y67249D01*
X386971Y67509D01*
X386799Y67531D01*
D02*
G37*
G36*
X385799D02*
X385626Y67509D01*
X385000Y67249D01*
X384462Y66836D01*
X384049Y66299D01*
X383790Y65672D01*
X383767Y65500D01*
X385799D01*
Y67531D01*
D02*
G37*
G36*
X62240Y69225D02*
Y63429D01*
X68036D01*
X67964Y64167D01*
X67603Y65358D01*
X67016Y66454D01*
X66227Y67416D01*
X65266Y68205D01*
X64169Y68792D01*
X62978Y69153D01*
X62240Y69225D01*
D02*
G37*
G36*
X61240D02*
X60502Y69153D01*
X59312Y68792D01*
X58215Y68205D01*
X57253Y67416D01*
X56464Y66454D01*
X55878Y65358D01*
X55517Y64167D01*
X55444Y63429D01*
X61240D01*
Y69225D01*
D02*
G37*
G36*
X388830Y64500D02*
X386799D01*
Y62469D01*
X386971Y62492D01*
X387597Y62751D01*
X388135Y63164D01*
X388548Y63701D01*
X388807Y64328D01*
X388830Y64500D01*
D02*
G37*
G36*
X385799D02*
X383767D01*
X383790Y64328D01*
X384049Y63701D01*
X384462Y63164D01*
X385000Y62751D01*
X385626Y62492D01*
X385799Y62469D01*
Y64500D01*
D02*
G37*
G36*
X133500Y60531D02*
Y58500D01*
X135531D01*
X135509Y58672D01*
X135249Y59298D01*
X134836Y59836D01*
X134299Y60249D01*
X133672Y60509D01*
X133500Y60531D01*
D02*
G37*
G36*
X132500D02*
X132328Y60509D01*
X131702Y60249D01*
X131164Y59836D01*
X130751Y59298D01*
X130491Y58672D01*
X130469Y58500D01*
X132500D01*
Y60531D01*
D02*
G37*
G36*
X68036Y62429D02*
X62240D01*
Y56633D01*
X62978Y56705D01*
X64169Y57067D01*
X65266Y57653D01*
X66227Y58442D01*
X67016Y59404D01*
X67603Y60501D01*
X67964Y61691D01*
X68036Y62429D01*
D02*
G37*
G36*
X61240D02*
X55444D01*
X55517Y61691D01*
X55878Y60501D01*
X56464Y59404D01*
X57253Y58442D01*
X58215Y57653D01*
X59312Y57067D01*
X60502Y56705D01*
X61240Y56633D01*
Y62429D01*
D02*
G37*
G36*
X33000Y70066D02*
X31608Y69929D01*
X30269Y69523D01*
X29035Y68863D01*
X27954Y67976D01*
X27066Y66894D01*
X26406Y65660D01*
X26000Y64321D01*
X25863Y62929D01*
X26000Y61537D01*
X26406Y60198D01*
X27066Y58964D01*
X27954Y57883D01*
X29035Y56995D01*
X30269Y56336D01*
X31608Y55929D01*
X33000Y55792D01*
X34392Y55929D01*
X35731Y56336D01*
X36965Y56995D01*
X38046Y57883D01*
X38934Y58964D01*
X39593Y60198D01*
X40000Y61537D01*
X40137Y62929D01*
X40000Y64321D01*
X39593Y65660D01*
X38934Y66894D01*
X38046Y67976D01*
X36965Y68863D01*
X35731Y69523D01*
X34392Y69929D01*
X33000Y70066D01*
D02*
G37*
G36*
X135531Y57500D02*
X133500D01*
Y55469D01*
X133672Y55492D01*
X134299Y55751D01*
X134836Y56164D01*
X135249Y56701D01*
X135509Y57328D01*
X135531Y57500D01*
D02*
G37*
G36*
X132500D02*
X130469D01*
X130491Y57328D01*
X130751Y56701D01*
X131164Y56164D01*
X131702Y55751D01*
X132328Y55492D01*
X132500Y55469D01*
Y57500D01*
D02*
G37*
G36*
X321798Y50791D02*
Y48760D01*
X323830D01*
X323807Y48932D01*
X323548Y49558D01*
X323135Y50096D01*
X322597Y50509D01*
X321971Y50768D01*
X321798Y50791D01*
D02*
G37*
G36*
X320798D02*
X320626Y50768D01*
X320000Y50509D01*
X319462Y50096D01*
X319049Y49558D01*
X318790Y48932D01*
X318767Y48760D01*
X320798D01*
Y50791D01*
D02*
G37*
G36*
X166551Y49531D02*
Y47500D01*
X168582D01*
X168560Y47672D01*
X168300Y48298D01*
X167888Y48836D01*
X167350Y49249D01*
X166723Y49509D01*
X166551Y49531D01*
D02*
G37*
G36*
X165551D02*
X165379Y49509D01*
X164753Y49249D01*
X164215Y48836D01*
X163802Y48298D01*
X163543Y47672D01*
X163520Y47500D01*
X165551D01*
Y49531D01*
D02*
G37*
G36*
X323830Y47760D02*
X321798D01*
Y45729D01*
X321971Y45751D01*
X322597Y46011D01*
X323135Y46424D01*
X323548Y46961D01*
X323807Y47588D01*
X323830Y47760D01*
D02*
G37*
G36*
X320798D02*
X318767D01*
X318790Y47588D01*
X319049Y46961D01*
X319462Y46424D01*
X320000Y46011D01*
X320626Y45751D01*
X320798Y45729D01*
Y47760D01*
D02*
G37*
G36*
X168582Y46500D02*
X166551D01*
Y44469D01*
X166723Y44491D01*
X167350Y44751D01*
X167888Y45164D01*
X168300Y45702D01*
X168560Y46328D01*
X168582Y46500D01*
D02*
G37*
G36*
X165551D02*
X163520D01*
X163543Y46328D01*
X163802Y45702D01*
X164215Y45164D01*
X164753Y44751D01*
X165379Y44491D01*
X165551Y44469D01*
Y46500D01*
D02*
G37*
G36*
X355500Y37531D02*
Y35500D01*
X357531D01*
X357509Y35672D01*
X357249Y36298D01*
X356836Y36836D01*
X356298Y37249D01*
X355672Y37508D01*
X355500Y37531D01*
D02*
G37*
G36*
X354500D02*
X354328Y37508D01*
X353701Y37249D01*
X353164Y36836D01*
X352751Y36298D01*
X352491Y35672D01*
X352469Y35500D01*
X354500D01*
Y37531D01*
D02*
G37*
G36*
X131500D02*
Y35500D01*
X133531D01*
X133509Y35672D01*
X133249Y36298D01*
X132836Y36836D01*
X132299Y37249D01*
X131672Y37508D01*
X131500Y37531D01*
D02*
G37*
G36*
X130500D02*
X130328Y37508D01*
X129701Y37249D01*
X129164Y36836D01*
X128751Y36298D01*
X128491Y35672D01*
X128469Y35500D01*
X130500D01*
Y37531D01*
D02*
G37*
G36*
X357531Y34500D02*
X355500D01*
Y32469D01*
X355672Y32491D01*
X356298Y32751D01*
X356836Y33164D01*
X357249Y33702D01*
X357509Y34328D01*
X357531Y34500D01*
D02*
G37*
G36*
X354500D02*
X352469D01*
X352491Y34328D01*
X352751Y33702D01*
X353164Y33164D01*
X353701Y32751D01*
X354328Y32491D01*
X354500Y32469D01*
Y34500D01*
D02*
G37*
G36*
X133531D02*
X131500D01*
Y32469D01*
X131672Y32491D01*
X132299Y32751D01*
X132836Y33164D01*
X133249Y33702D01*
X133509Y34328D01*
X133531Y34500D01*
D02*
G37*
G36*
X130500D02*
X128469D01*
X128491Y34328D01*
X128751Y33702D01*
X129164Y33164D01*
X129701Y32751D01*
X130328Y32491D01*
X130500Y32469D01*
Y34500D01*
D02*
G37*
G36*
X61740Y85810D02*
X60502Y85688D01*
X59312Y85327D01*
X58215Y84741D01*
X57253Y83951D01*
X56464Y82990D01*
X55878Y81893D01*
X55517Y80703D01*
X55395Y79465D01*
X55517Y78227D01*
X55878Y77036D01*
X56464Y75939D01*
X57253Y74978D01*
X58215Y74189D01*
X59312Y73602D01*
X60502Y73241D01*
X61740Y73119D01*
X62978Y73241D01*
X64169Y73602D01*
X65266Y74189D01*
X66227Y74978D01*
X67016Y75939D01*
X67052Y76006D01*
X69760D01*
X109836Y35930D01*
X109758Y35743D01*
X109592Y34480D01*
X109758Y33217D01*
X110246Y32040D01*
X111021Y31029D01*
X112032Y30254D01*
X113209Y29766D01*
X114472Y29600D01*
X115736Y29766D01*
X116913Y30254D01*
X117923Y31029D01*
X118699Y32040D01*
X119186Y33217D01*
X119353Y34480D01*
X119186Y35743D01*
X118699Y36920D01*
X117923Y37931D01*
X116913Y38707D01*
X115736Y39194D01*
X114935Y39300D01*
X73117Y81117D01*
X72497Y81593D01*
X71775Y81892D01*
X71000Y81994D01*
X67549D01*
X67016Y82990D01*
X66227Y83951D01*
X65266Y84741D01*
X64169Y85327D01*
X62978Y85688D01*
X61740Y85810D01*
D02*
G37*
G36*
X385827Y44350D02*
X384087Y44179D01*
X382414Y43671D01*
X380873Y42847D01*
X379521Y41738D01*
X378413Y40387D01*
X377589Y38845D01*
X377081Y37173D01*
X376910Y35433D01*
X377081Y33694D01*
X377589Y32021D01*
X378413Y30479D01*
X379521Y29128D01*
X380873Y28019D01*
X382414Y27195D01*
X384087Y26687D01*
X385827Y26516D01*
X387566Y26687D01*
X389239Y27195D01*
X390781Y28019D01*
X392132Y29128D01*
X393241Y30479D01*
X394065Y32021D01*
X394572Y33694D01*
X394744Y35433D01*
X394572Y37173D01*
X394065Y38845D01*
X393241Y40387D01*
X392132Y41738D01*
X390781Y42847D01*
X389239Y43671D01*
X387566Y44179D01*
X385827Y44350D01*
D02*
G37*
G36*
X35433D02*
X33694Y44179D01*
X32021Y43671D01*
X30479Y42847D01*
X29128Y41738D01*
X28019Y40387D01*
X27195Y38845D01*
X26687Y37173D01*
X26516Y35433D01*
X26687Y33694D01*
X27195Y32021D01*
X28019Y30479D01*
X29128Y29128D01*
X30479Y28019D01*
X32021Y27195D01*
X33694Y26687D01*
X35433Y26516D01*
X37173Y26687D01*
X38845Y27195D01*
X40387Y28019D01*
X41738Y29128D01*
X42847Y30479D01*
X43671Y32021D01*
X44179Y33694D01*
X44350Y35433D01*
X44179Y37173D01*
X43671Y38845D01*
X42847Y40387D01*
X41738Y41738D01*
X40387Y42847D01*
X38845Y43671D01*
X37173Y44179D01*
X35433Y44350D01*
D02*
G37*
%LPD*%
D16*
X162000Y72905D02*
D03*
Y61094D02*
D03*
D17*
X161393Y92016D02*
D03*
Y82961D02*
D03*
X126000Y163500D02*
D03*
Y172555D02*
D03*
D18*
X61036Y157000D02*
D03*
X70091D02*
D03*
D26*
X217000Y78000D02*
D03*
X262500Y77500D02*
D03*
D27*
X217000Y300000D02*
D03*
X262500Y299500D02*
D03*
D29*
X312500Y212500D02*
X313500D01*
X217000Y78000D02*
X262500D01*
X278000Y178000D02*
X312500Y212500D01*
X278000Y91950D02*
Y178000D01*
X262500Y78000D02*
X278000Y91950D01*
X136500Y275000D02*
X183630Y322130D01*
X136500Y235252D02*
Y275000D01*
X183630Y322130D02*
Y334500D01*
X183130Y335000D02*
X183630Y334500D01*
X326780Y244748D02*
Y302720D01*
X295000Y334500D02*
X326780Y302720D01*
X136500Y235252D02*
X142973Y228780D01*
X262500Y334500D02*
X295000D01*
D30*
X46000Y252000D02*
X51000D01*
X36000Y262000D02*
X46000Y252000D01*
X36000Y262000D02*
Y289882D01*
X65520Y319402D01*
Y334000D01*
D31*
X71000Y79000D02*
X114472Y35528D01*
X65000Y79000D02*
X71000D01*
X391004Y213000D02*
X392000Y212004D01*
X81465Y95535D02*
X96535D01*
X114472Y113472D01*
X78465Y95535D02*
X125740Y48260D01*
X78465Y95535D02*
X81465D01*
X64000D02*
X78465D01*
X129512Y163500D02*
X142973Y150039D01*
X126000Y163500D02*
X129512D01*
X144000Y114000D02*
X164000Y94000D01*
X392000Y212004D02*
X392000Y88469D01*
X332531Y29000D02*
X392000Y88469D01*
X163260Y29000D02*
X332531D01*
X144000Y48260D02*
X163260Y29000D01*
X161393Y82961D02*
X162000Y82354D01*
Y72905D02*
Y82354D01*
X144000Y48260D02*
X156835Y61094D01*
X162000D01*
X158516Y136055D02*
X172500Y150039D01*
X123528Y136055D02*
X158516D01*
X114472Y127000D02*
X123528Y136055D01*
X114472Y113472D02*
Y127000D01*
X144000Y114000D02*
Y127000D01*
X99000Y142472D02*
X114472Y127000D01*
X99000Y142472D02*
Y157787D01*
X83528Y173260D02*
X99000Y157787D01*
X125740Y48260D02*
X144000D01*
X114472Y34480D02*
Y35528D01*
X54000Y164035D02*
X61036Y157000D01*
X54000Y164035D02*
Y173260D01*
D32*
X65520Y334500D02*
D03*
D33*
X262370D02*
D03*
X104890D02*
D03*
X144260D02*
D03*
X183630D02*
D03*
X223000D02*
D03*
X33000Y130000D02*
D03*
Y96000D02*
D03*
Y62929D02*
D03*
D34*
X54000Y173260D02*
D03*
Y252000D02*
D03*
X83528Y265779D02*
D03*
Y173260D02*
D03*
X144000Y127000D02*
D03*
Y48260D02*
D03*
X114472Y34480D02*
D03*
Y127000D02*
D03*
X142973Y150039D02*
D03*
Y228780D02*
D03*
X172500Y242559D02*
D03*
Y215000D02*
D03*
Y150039D02*
D03*
X391740Y213000D02*
D03*
X313000D02*
D03*
X299220Y242528D02*
D03*
X326780D02*
D03*
X391740D02*
D03*
D35*
X61740Y121732D02*
D03*
Y138268D02*
D03*
X83394Y121732D02*
D03*
Y138268D02*
D03*
X61740Y96000D02*
D03*
Y79465D02*
D03*
Y62929D02*
D03*
D36*
X35433Y330709D02*
D03*
Y35433D02*
D03*
X385827D02*
D03*
Y330709D02*
D03*
D37*
X88000Y73000D02*
D03*
X133000Y58000D02*
D03*
X321299Y48260D02*
D03*
X166051Y47000D02*
D03*
X115457Y140000D02*
D03*
X112000Y158776D02*
D03*
X72000Y145000D02*
D03*
X386000Y227000D02*
D03*
X355000Y35000D02*
D03*
X386298Y65000D02*
D03*
X131000Y75000D02*
D03*
X155338Y147000D02*
D03*
X164000Y94000D02*
D03*
X128000Y175000D02*
D03*
X131000Y35000D02*
D03*
X50000Y73000D02*
D03*
X48000Y117000D02*
D03*
X124000D02*
D03*
X70000Y169000D02*
D03*
X50000Y189000D02*
D03*
X70000Y155000D02*
D03*
M02*
