G04*
G04 #@! TF.GenerationSoftware,Altium Limited,Altium Designer,19.0.10 (269)*
G04*
G04 Layer_Physical_Order=2*
G04 Layer_Color=16711680*
%FSLAX25Y25*%
%MOIN*%
G70*
G01*
G75*
%ADD16R,0.07087X0.04134*%
%ADD29C,0.07874*%
%ADD30C,0.13780*%
%ADD31C,0.03937*%
%ADD32R,0.09055X0.09055*%
%ADD33C,0.09055*%
%ADD34C,0.07677*%
%ADD35C,0.10630*%
%ADD36C,0.06000*%
%ADD37C,0.03150*%
%ADD38R,0.03937X0.02362*%
%ADD39R,0.04134X0.07087*%
%ADD40R,0.06102X0.09449*%
%ADD41R,0.09449X0.06102*%
%ADD42C,0.19685*%
%ADD43R,0.06400X0.06400*%
%ADD44C,0.06400*%
G36*
X230200Y307947D02*
X231382Y307000D01*
X232611Y306165D01*
X233886Y305441D01*
X235207Y304829D01*
X236575Y304328D01*
X237988Y303938D01*
X239447Y303660D01*
X240953Y303493D01*
X242505Y303437D01*
X233000Y295563D01*
X217500Y303437D01*
X218606Y303470D01*
X219527Y303568D01*
X220263Y303732D01*
X220812Y303962D01*
X221177Y304257D01*
X221356Y304618D01*
X221349Y305044D01*
X221157Y305536D01*
X220779Y306093D01*
X220216Y306716D01*
X229063Y309005D01*
X230200Y307947D01*
D02*
G37*
G36*
X172759Y146210D02*
X172609Y146177D01*
X172476Y146101D01*
X172358Y145982D01*
X172256Y145820D01*
X172169Y145614D01*
X172098Y145365D01*
X172043Y145072D01*
X172004Y144736D01*
X171980Y144357D01*
X171973Y143934D01*
X168035Y144820D01*
X168739Y149272D01*
X172759Y146210D01*
D02*
G37*
G36*
X403286Y348131D02*
X403639Y347777D01*
X403134Y19000D01*
X19000D01*
Y197000D01*
X112000Y197000D01*
X167010Y141990D01*
Y131051D01*
X164279D01*
Y122949D01*
X167010D01*
Y122244D01*
X159883Y115117D01*
X159407Y114497D01*
X159108Y113775D01*
X159006Y113000D01*
Y112728D01*
X157949D01*
Y101279D01*
X166051D01*
Y112728D01*
X166051Y112728D01*
X166051D01*
X166332Y113098D01*
X172000Y118766D01*
X172500Y118594D01*
Y34480D01*
X297480Y34480D01*
X369000Y106000D01*
X369000Y348131D01*
X403286Y348131D01*
D02*
G37*
%LPC*%
G36*
X385827Y339626D02*
X384087Y339454D01*
X382414Y338947D01*
X380873Y338123D01*
X379521Y337014D01*
X378413Y335663D01*
X377589Y334121D01*
X377081Y332448D01*
X376910Y330709D01*
X377081Y328969D01*
X377589Y327296D01*
X378413Y325755D01*
X379521Y324403D01*
X380873Y323294D01*
X382414Y322470D01*
X384087Y321963D01*
X385827Y321792D01*
X387566Y321963D01*
X389239Y322470D01*
X390781Y323294D01*
X392132Y324403D01*
X393241Y325755D01*
X394065Y327296D01*
X394572Y328969D01*
X394744Y330709D01*
X394572Y332448D01*
X394065Y334121D01*
X393241Y335663D01*
X392132Y337014D01*
X390781Y338123D01*
X389239Y338947D01*
X387566Y339454D01*
X385827Y339626D01*
D02*
G37*
G36*
X392240Y247342D02*
Y243028D01*
X396555D01*
X396454Y243791D01*
X395967Y244968D01*
X395191Y245978D01*
X394180Y246754D01*
X393003Y247242D01*
X392240Y247342D01*
D02*
G37*
G36*
X391240Y247342D02*
X390477Y247242D01*
X389300Y246754D01*
X388289Y245978D01*
X387514Y244968D01*
X387026Y243791D01*
X386926Y243028D01*
X391240D01*
Y247342D01*
D02*
G37*
G36*
Y242028D02*
X386926D01*
X387026Y241264D01*
X387514Y240087D01*
X388289Y239077D01*
X389300Y238301D01*
X390477Y237813D01*
X391240Y237713D01*
Y242028D01*
D02*
G37*
G36*
X396555D02*
X392240D01*
Y237713D01*
X393003Y237813D01*
X394180Y238301D01*
X395191Y239077D01*
X395967Y240087D01*
X396454Y241264D01*
X396555Y242028D01*
D02*
G37*
G36*
X386500Y229531D02*
Y227500D01*
X388531D01*
X388509Y227672D01*
X388249Y228298D01*
X387836Y228836D01*
X387298Y229249D01*
X386672Y229508D01*
X386500Y229531D01*
D02*
G37*
G36*
X385500D02*
X385328Y229508D01*
X384701Y229249D01*
X384164Y228836D01*
X383751Y228298D01*
X383491Y227672D01*
X383469Y227500D01*
X385500D01*
Y229531D01*
D02*
G37*
G36*
X388531Y226500D02*
X386500D01*
Y224469D01*
X386672Y224492D01*
X387298Y224751D01*
X387836Y225164D01*
X388249Y225701D01*
X388509Y226328D01*
X388531Y226500D01*
D02*
G37*
G36*
X385500D02*
X383469D01*
X383491Y226328D01*
X383751Y225701D01*
X384164Y225164D01*
X384701Y224751D01*
X385328Y224492D01*
X385500Y224469D01*
Y226500D01*
D02*
G37*
G36*
X384543Y205972D02*
X380500D01*
Y203405D01*
X384543D01*
Y205972D01*
D02*
G37*
G36*
X379500D02*
X375457D01*
Y203405D01*
X379500D01*
Y205972D01*
D02*
G37*
G36*
X384543Y202406D02*
X380500D01*
Y199839D01*
X384543D01*
Y202406D01*
D02*
G37*
G36*
X379500D02*
X375457D01*
Y199839D01*
X379500D01*
Y202406D01*
D02*
G37*
G36*
X50500Y191531D02*
Y189500D01*
X52531D01*
X52509Y189672D01*
X52249Y190298D01*
X51836Y190836D01*
X51298Y191249D01*
X50672Y191508D01*
X50500Y191531D01*
D02*
G37*
G36*
X49500D02*
X49328Y191508D01*
X48702Y191249D01*
X48164Y190836D01*
X47751Y190298D01*
X47491Y189672D01*
X47469Y189500D01*
X49500D01*
Y191531D01*
D02*
G37*
G36*
X52531Y188500D02*
X50500D01*
Y186469D01*
X50672Y186492D01*
X51298Y186751D01*
X51836Y187164D01*
X52249Y187701D01*
X52509Y188328D01*
X52531Y188500D01*
D02*
G37*
G36*
X49500D02*
X47469D01*
X47491Y188328D01*
X47751Y187701D01*
X48164Y187164D01*
X48702Y186751D01*
X49328Y186492D01*
X49500Y186469D01*
Y188500D01*
D02*
G37*
G36*
X30543Y188972D02*
X26500D01*
Y186406D01*
X30543D01*
Y188972D01*
D02*
G37*
G36*
X25500D02*
X21457D01*
Y186406D01*
X25500D01*
Y188972D01*
D02*
G37*
G36*
X30543Y185406D02*
X26500D01*
Y182839D01*
X30543D01*
Y185406D01*
D02*
G37*
G36*
X25500D02*
X21457D01*
Y182839D01*
X25500D01*
Y185406D01*
D02*
G37*
G36*
X38850Y180921D02*
X36382D01*
Y179240D01*
X38850D01*
Y180921D01*
D02*
G37*
G36*
X35382D02*
X32913D01*
Y179240D01*
X35382D01*
Y180921D01*
D02*
G37*
G36*
X38850Y178240D02*
X36382D01*
Y176559D01*
X38850D01*
Y178240D01*
D02*
G37*
G36*
X35382D02*
X32913D01*
Y176559D01*
X35382D01*
Y178240D01*
D02*
G37*
G36*
X70500Y171531D02*
Y169500D01*
X72531D01*
X72509Y169672D01*
X72249Y170299D01*
X71836Y170836D01*
X71298Y171249D01*
X70672Y171509D01*
X70500Y171531D01*
D02*
G37*
G36*
X69500D02*
X69328Y171509D01*
X68701Y171249D01*
X68164Y170836D01*
X67751Y170299D01*
X67492Y169672D01*
X67469Y169500D01*
X69500D01*
Y171531D01*
D02*
G37*
G36*
X128000Y177597D02*
X127592Y177543D01*
X123791D01*
Y168457D01*
X129925D01*
Y173279D01*
X130249Y173702D01*
X130508Y174328D01*
X130597Y175000D01*
X130508Y175672D01*
X130249Y176298D01*
X129925Y176721D01*
Y177543D01*
X128408D01*
X128000Y177597D01*
D02*
G37*
G36*
X78728Y192051D02*
X67279D01*
Y183949D01*
X72821D01*
X80069Y176701D01*
X79301Y175700D01*
X78813Y174523D01*
X78647Y173260D01*
X78813Y171997D01*
X79301Y170820D01*
X79911Y170024D01*
Y161543D01*
X79839D01*
Y152457D01*
X85972D01*
Y161543D01*
X85900D01*
Y169005D01*
X85968Y169033D01*
X86979Y169809D01*
X87329Y170266D01*
X111980D01*
Y168457D01*
X118114D01*
Y177543D01*
X111980D01*
Y176254D01*
X87329D01*
X86979Y176711D01*
X86522Y177061D01*
Y177476D01*
X86420Y178251D01*
X86244Y178674D01*
X86121Y178973D01*
X85645Y179594D01*
X78728Y186510D01*
Y192051D01*
D02*
G37*
G36*
X66720D02*
X55272D01*
Y186510D01*
X51883Y183121D01*
X51407Y182501D01*
X51108Y181779D01*
X51006Y181004D01*
Y177876D01*
X46118D01*
X45343Y177774D01*
X44621Y177475D01*
X44238Y177181D01*
X43150D01*
Y175076D01*
X43124Y174882D01*
X43150Y174687D01*
Y172819D01*
X43959D01*
X44001Y172765D01*
X44621Y172289D01*
X45343Y171990D01*
X46118Y171888D01*
X49331D01*
X49773Y170820D01*
X50549Y169809D01*
X51560Y169033D01*
X52737Y168546D01*
X54000Y168379D01*
X55263Y168546D01*
X56440Y169033D01*
X57451Y169809D01*
X58227Y170820D01*
X58714Y171997D01*
X58880Y173260D01*
X58714Y174523D01*
X58227Y175700D01*
X57451Y176711D01*
X56994Y177061D01*
Y179764D01*
X61179Y183949D01*
X66720D01*
Y192051D01*
D02*
G37*
G36*
X30543Y177161D02*
X21457D01*
Y171028D01*
X23006D01*
Y165000D01*
X23108Y164225D01*
X23407Y163503D01*
X23883Y162883D01*
X49883Y136883D01*
X50503Y136407D01*
X50802Y136283D01*
X51225Y136108D01*
X52000Y136006D01*
X55827D01*
X55878Y135839D01*
X56464Y134742D01*
X57253Y133781D01*
X58215Y132992D01*
X59312Y132405D01*
X60502Y132044D01*
X61740Y131922D01*
X62978Y132044D01*
X64169Y132405D01*
X65266Y132992D01*
X66227Y133781D01*
X67016Y134742D01*
X67603Y135839D01*
X67964Y137030D01*
X68086Y138268D01*
X67964Y139506D01*
X67603Y140696D01*
X67016Y141793D01*
X66227Y142755D01*
X65266Y143544D01*
X64169Y144130D01*
X62978Y144491D01*
X61740Y144613D01*
X60502Y144491D01*
X59312Y144130D01*
X58215Y143544D01*
X57253Y142755D01*
X56629Y141994D01*
X53240D01*
X28994Y166240D01*
Y168492D01*
X29443Y168713D01*
X29503Y168667D01*
X29802Y168543D01*
X30225Y168368D01*
X31000Y168266D01*
X35882D01*
X36657Y168368D01*
X37379Y168667D01*
X37916Y169079D01*
X38850D01*
Y171065D01*
X38876Y171260D01*
X38850Y171454D01*
Y173441D01*
X37916D01*
X37379Y173853D01*
X36657Y174152D01*
X35882Y174254D01*
X32240D01*
X30543Y175951D01*
Y177161D01*
D02*
G37*
G36*
X72531Y168500D02*
X70500D01*
Y166469D01*
X70672Y166491D01*
X71298Y166751D01*
X71836Y167164D01*
X72249Y167701D01*
X72509Y168328D01*
X72531Y168500D01*
D02*
G37*
G36*
X69500D02*
X67469D01*
X67492Y168328D01*
X67751Y167701D01*
X68164Y167164D01*
X68701Y166751D01*
X69328Y166491D01*
X69500Y166469D01*
Y168500D01*
D02*
G37*
G36*
X114543Y163972D02*
X110500D01*
Y161406D01*
X114543D01*
Y163972D01*
D02*
G37*
G36*
X109500D02*
X105457D01*
Y161406D01*
X109500D01*
Y163972D01*
D02*
G37*
G36*
X391740Y217880D02*
X390477Y217714D01*
X389300Y217227D01*
X388289Y216451D01*
X387514Y215440D01*
X387026Y214263D01*
X386860Y213000D01*
X387026Y211737D01*
X387514Y210560D01*
X388289Y209549D01*
X388746Y209199D01*
Y180835D01*
Y172634D01*
X385949D01*
Y161185D01*
X394051D01*
Y167136D01*
X394333Y167503D01*
X394632Y168225D01*
X394734Y169000D01*
Y176457D01*
X394972D01*
Y185543D01*
X394734D01*
Y209199D01*
X395191Y209549D01*
X395967Y210560D01*
X396454Y211737D01*
X396620Y213000D01*
X396454Y214263D01*
X395967Y215440D01*
X395191Y216451D01*
X394180Y217227D01*
X393003Y217714D01*
X391740Y217880D01*
D02*
G37*
G36*
X122850Y159623D02*
X120382D01*
Y157942D01*
X122850D01*
Y159623D01*
D02*
G37*
G36*
X119382D02*
X116913D01*
Y157942D01*
X119382D01*
Y159623D01*
D02*
G37*
G36*
X114543Y158276D02*
X112500D01*
Y156244D01*
X112672Y156267D01*
X113298Y156527D01*
X113836Y156939D01*
X114249Y157477D01*
X114399Y157839D01*
X114543D01*
Y158276D01*
D02*
G37*
G36*
Y160406D02*
X110000D01*
X105457D01*
Y157839D01*
X109601D01*
X109751Y157477D01*
X110164Y156939D01*
X110702Y156527D01*
X111328Y156267D01*
X111500Y156244D01*
Y158776D01*
X112000D01*
Y159276D01*
X114543D01*
Y160406D01*
D02*
G37*
G36*
X394051Y160626D02*
X390500D01*
Y155402D01*
X394051D01*
Y160626D01*
D02*
G37*
G36*
X389500D02*
X385949D01*
Y155402D01*
X389500D01*
Y160626D01*
D02*
G37*
G36*
X122850Y156942D02*
X120382D01*
Y155261D01*
X122850D01*
Y156942D01*
D02*
G37*
G36*
X119382D02*
X116913D01*
Y155261D01*
X119382D01*
Y156942D01*
D02*
G37*
G36*
X74161Y161543D02*
X68028D01*
Y156659D01*
X67751Y156298D01*
X67492Y155672D01*
X67403Y155000D01*
X67492Y154328D01*
X67751Y153701D01*
X68028Y153341D01*
Y152457D01*
X69592D01*
X70000Y152403D01*
X70408Y152457D01*
X74161D01*
Y161543D01*
D02*
G37*
G36*
X394051Y154402D02*
X390500D01*
Y149177D01*
X394051D01*
Y154402D01*
D02*
G37*
G36*
X389500D02*
X385949D01*
Y149177D01*
X389500D01*
Y154402D01*
D02*
G37*
G36*
X155838Y149531D02*
Y147500D01*
X157869D01*
X157846Y147672D01*
X157587Y148299D01*
X157174Y148836D01*
X156636Y149249D01*
X156010Y149509D01*
X155838Y149531D01*
D02*
G37*
G36*
X154838D02*
X154666Y149509D01*
X154039Y149249D01*
X153501Y148836D01*
X153088Y148299D01*
X152829Y147672D01*
X152806Y147500D01*
X154838D01*
Y149531D01*
D02*
G37*
G36*
X120953Y152183D02*
X101138D01*
X100363Y152081D01*
X99940Y151906D01*
X99641Y151782D01*
X99021Y151306D01*
X90709Y142994D01*
X87589D01*
X86919Y143544D01*
X85822Y144130D01*
X84632Y144491D01*
X83394Y144613D01*
X82156Y144491D01*
X80965Y144130D01*
X79868Y143544D01*
X78907Y142755D01*
X78118Y141793D01*
X77531Y140696D01*
X77170Y139506D01*
X77048Y138268D01*
X77170Y137030D01*
X77531Y135839D01*
X78118Y134742D01*
X78907Y133781D01*
X79868Y132992D01*
X80965Y132405D01*
X82156Y132044D01*
X83394Y131922D01*
X84632Y132044D01*
X85822Y132405D01*
X86919Y132992D01*
X87881Y133781D01*
X88670Y134742D01*
X89256Y135839D01*
X89610Y137006D01*
X91949D01*
X92724Y137108D01*
X93446Y137407D01*
X94066Y137883D01*
X102378Y146195D01*
X105457D01*
Y146028D01*
X114543D01*
Y146195D01*
X120953D01*
X121728Y146297D01*
X122450Y146596D01*
X123070Y147072D01*
X123546Y147692D01*
X123845Y148414D01*
X123947Y149189D01*
X123845Y149964D01*
X123546Y150686D01*
X123070Y151306D01*
X122850Y151475D01*
Y152142D01*
X121262D01*
X120953Y152183D01*
D02*
G37*
G36*
X72500Y147531D02*
Y145500D01*
X74531D01*
X74509Y145672D01*
X74249Y146299D01*
X73836Y146836D01*
X73299Y147249D01*
X72672Y147509D01*
X72500Y147531D01*
D02*
G37*
G36*
X71500D02*
X71328Y147509D01*
X70701Y147249D01*
X70164Y146836D01*
X69751Y146299D01*
X69491Y145672D01*
X69469Y145500D01*
X71500D01*
Y147531D01*
D02*
G37*
G36*
X157869Y146500D02*
X155838D01*
Y144469D01*
X156010Y144492D01*
X156636Y144751D01*
X157174Y145164D01*
X157587Y145702D01*
X157846Y146328D01*
X157869Y146500D01*
D02*
G37*
G36*
X154838D02*
X152806D01*
X152829Y146328D01*
X153088Y145702D01*
X153501Y145164D01*
X154039Y144751D01*
X154666Y144492D01*
X154838Y144469D01*
Y146500D01*
D02*
G37*
G36*
X74531Y144500D02*
X72500D01*
Y142469D01*
X72672Y142491D01*
X73299Y142751D01*
X73836Y143164D01*
X74249Y143702D01*
X74509Y144328D01*
X74531Y144500D01*
D02*
G37*
G36*
X71500D02*
X69469D01*
X69491Y144328D01*
X69751Y143702D01*
X70164Y143164D01*
X70701Y142751D01*
X71328Y142491D01*
X71500Y142469D01*
Y144500D01*
D02*
G37*
G36*
X115957Y142531D02*
Y140500D01*
X117988D01*
X117965Y140672D01*
X117706Y141298D01*
X117293Y141836D01*
X116755Y142249D01*
X116129Y142508D01*
X115957Y142531D01*
D02*
G37*
G36*
X114957D02*
X114785Y142508D01*
X114158Y142249D01*
X113620Y141836D01*
X113208Y141298D01*
X112948Y140672D01*
X112926Y140500D01*
X114957D01*
Y142531D01*
D02*
G37*
G36*
X117988Y139500D02*
X115957D01*
Y137469D01*
X116129Y137492D01*
X116755Y137751D01*
X117293Y138164D01*
X117706Y138701D01*
X117965Y139328D01*
X117988Y139500D01*
D02*
G37*
G36*
X114957D02*
X112926D01*
X112948Y139328D01*
X113208Y138701D01*
X113620Y138164D01*
X114158Y137751D01*
X114785Y137492D01*
X114957Y137469D01*
Y139500D01*
D02*
G37*
G36*
X139310Y156696D02*
X130000D01*
X129225Y156594D01*
X128503Y156295D01*
X127966Y155883D01*
X127150D01*
Y154577D01*
X127108Y154476D01*
X127006Y153701D01*
X127108Y152927D01*
X127150Y152826D01*
Y151520D01*
X127966D01*
X128503Y151109D01*
X129225Y150809D01*
X130000Y150707D01*
X137690D01*
X138117Y150227D01*
X138092Y150039D01*
X138258Y148776D01*
X138746Y147599D01*
X139522Y146589D01*
X140532Y145813D01*
X141709Y145325D01*
X142973Y145159D01*
X143543Y145234D01*
X155002Y133775D01*
Y131051D01*
X152272D01*
Y122949D01*
X163721D01*
Y131051D01*
X160990D01*
Y135016D01*
X160888Y135791D01*
X160589Y136513D01*
X160113Y137133D01*
X147778Y149469D01*
X147853Y150039D01*
X147687Y151303D01*
X147199Y152480D01*
X146423Y153490D01*
X145413Y154266D01*
X144236Y154753D01*
X142973Y154920D01*
X142402Y154845D01*
X141428Y155819D01*
X140807Y156295D01*
X140085Y156594D01*
X139310Y156696D01*
D02*
G37*
G36*
X33000Y137137D02*
X31608Y137000D01*
X30269Y136593D01*
X29035Y135934D01*
X27954Y135046D01*
X27066Y133965D01*
X26406Y132731D01*
X26000Y131392D01*
X25863Y130000D01*
X26000Y128608D01*
X26406Y127269D01*
X27066Y126035D01*
X27954Y124954D01*
X29035Y124066D01*
X30269Y123407D01*
X31608Y123000D01*
X33000Y122863D01*
X34392Y123000D01*
X35731Y123407D01*
X36965Y124066D01*
X38046Y124954D01*
X38934Y126035D01*
X39593Y127269D01*
X40000Y128608D01*
X40137Y130000D01*
X40000Y131392D01*
X39593Y132731D01*
X38934Y133965D01*
X38046Y135046D01*
X36965Y135934D01*
X35731Y136593D01*
X34392Y137000D01*
X33000Y137137D01*
D02*
G37*
G36*
X114472Y131880D02*
X113209Y131714D01*
X112032Y131227D01*
X111021Y130451D01*
X110246Y129440D01*
X109758Y128263D01*
X109592Y127000D01*
X109758Y125737D01*
X110246Y124560D01*
X111021Y123549D01*
X112032Y122774D01*
X113209Y122286D01*
X114472Y122120D01*
X115736Y122286D01*
X116913Y122774D01*
X117923Y123549D01*
X118699Y124560D01*
X119186Y125737D01*
X119353Y127000D01*
X119186Y128263D01*
X118699Y129440D01*
X117923Y130451D01*
X116913Y131227D01*
X115736Y131714D01*
X114472Y131880D01*
D02*
G37*
G36*
X124500Y119531D02*
Y117500D01*
X126531D01*
X126508Y117672D01*
X126249Y118298D01*
X125836Y118836D01*
X125299Y119249D01*
X124672Y119509D01*
X124500Y119531D01*
D02*
G37*
G36*
X123500D02*
X123328Y119509D01*
X122702Y119249D01*
X122164Y118836D01*
X121751Y118298D01*
X121492Y117672D01*
X121469Y117500D01*
X123500D01*
Y119531D01*
D02*
G37*
G36*
X48500D02*
Y117500D01*
X50531D01*
X50509Y117672D01*
X50249Y118298D01*
X49836Y118836D01*
X49299Y119249D01*
X48672Y119509D01*
X48500Y119531D01*
D02*
G37*
G36*
X47500D02*
X47328Y119509D01*
X46701Y119249D01*
X46164Y118836D01*
X45751Y118298D01*
X45491Y117672D01*
X45469Y117500D01*
X47500D01*
Y119531D01*
D02*
G37*
G36*
X126531Y116500D02*
X124500D01*
Y114469D01*
X124672Y114491D01*
X125299Y114751D01*
X125836Y115164D01*
X126249Y115701D01*
X126508Y116328D01*
X126531Y116500D01*
D02*
G37*
G36*
X123500D02*
X121469D01*
X121492Y116328D01*
X121751Y115701D01*
X122164Y115164D01*
X122702Y114751D01*
X123328Y114491D01*
X123500Y114469D01*
Y116500D01*
D02*
G37*
G36*
X50531D02*
X48500D01*
Y114469D01*
X48672Y114491D01*
X49299Y114751D01*
X49836Y115164D01*
X50249Y115701D01*
X50509Y116328D01*
X50531Y116500D01*
D02*
G37*
G36*
X47500D02*
X45469D01*
X45491Y116328D01*
X45751Y115701D01*
X46164Y115164D01*
X46701Y114751D01*
X47328Y114491D01*
X47500Y114469D01*
Y116500D01*
D02*
G37*
G36*
X134968Y111335D02*
X132500D01*
Y109653D01*
X134968D01*
Y111335D01*
D02*
G37*
G36*
X131500D02*
X129032D01*
Y109653D01*
X131500D01*
Y111335D01*
D02*
G37*
G36*
X134968Y108653D02*
X132500D01*
Y106972D01*
X134968D01*
Y108653D01*
D02*
G37*
G36*
X131500D02*
X129032D01*
Y106972D01*
X131500D01*
Y108653D01*
D02*
G37*
G36*
X144000Y131880D02*
X142737Y131714D01*
X141560Y131227D01*
X140549Y130451D01*
X139773Y129440D01*
X139286Y128263D01*
X139120Y127000D01*
X139286Y125737D01*
X139773Y124560D01*
X140549Y123549D01*
X141006Y123199D01*
Y109268D01*
X140635Y108897D01*
X140159Y108277D01*
X139876Y107595D01*
X139268D01*
Y103232D01*
X140718D01*
X141255Y102820D01*
X141977Y102521D01*
X142752Y102419D01*
X143527Y102521D01*
X144249Y102820D01*
X144786Y103232D01*
X145205D01*
Y103734D01*
X145345Y103916D01*
X145644Y104638D01*
X145746Y105413D01*
Y105539D01*
X146117Y105910D01*
X146593Y106530D01*
X146892Y107253D01*
X146994Y108028D01*
Y123199D01*
X147451Y123549D01*
X148226Y124560D01*
X148714Y125737D01*
X148880Y127000D01*
X148714Y128263D01*
X148226Y129440D01*
X147451Y130451D01*
X146440Y131227D01*
X145263Y131714D01*
X144000Y131880D01*
D02*
G37*
G36*
X83394Y128078D02*
X82156Y127956D01*
X80965Y127595D01*
X79868Y127008D01*
X78907Y126219D01*
X78118Y125258D01*
X77531Y124161D01*
X77170Y122970D01*
X77048Y121732D01*
X77170Y120494D01*
X77531Y119304D01*
X78118Y118207D01*
X78907Y117245D01*
X79868Y116456D01*
X80965Y115870D01*
X82156Y115509D01*
X83394Y115387D01*
X84632Y115509D01*
X85822Y115870D01*
X86919Y116456D01*
X87134Y116632D01*
X104977Y98788D01*
X105597Y98312D01*
X106320Y98013D01*
X107095Y97911D01*
X115457D01*
Y97839D01*
X124543D01*
Y97911D01*
X131280D01*
X132054Y98013D01*
X132777Y98312D01*
X133397Y98788D01*
X133873Y99409D01*
X133907Y99492D01*
X134968D01*
Y103854D01*
X131624D01*
X131280Y103900D01*
X124543D01*
Y103972D01*
X115457D01*
Y103900D01*
X108335D01*
X89656Y122578D01*
X89617Y122970D01*
X89256Y124161D01*
X88670Y125258D01*
X87881Y126219D01*
X86919Y127008D01*
X85822Y127595D01*
X84632Y127956D01*
X83394Y128078D01*
D02*
G37*
G36*
X61740Y102346D02*
X60502Y102224D01*
X59312Y101863D01*
X58215Y101276D01*
X57253Y100487D01*
X56464Y99525D01*
X55878Y98428D01*
X55517Y97238D01*
X55395Y96000D01*
X55517Y94762D01*
X55878Y93572D01*
X56464Y92475D01*
X57253Y91513D01*
X58215Y90724D01*
X59312Y90137D01*
X60502Y89776D01*
X61740Y89654D01*
X62978Y89776D01*
X64169Y90137D01*
X65266Y90724D01*
X66227Y91513D01*
X67016Y92475D01*
X67603Y93572D01*
X67964Y94762D01*
X68086Y96000D01*
X67964Y97238D01*
X67603Y98428D01*
X67016Y99525D01*
X66227Y100487D01*
X65266Y101276D01*
X64169Y101863D01*
X62978Y102224D01*
X61740Y102346D01*
D02*
G37*
G36*
X124543Y92161D02*
X120500D01*
Y89595D01*
X124543D01*
Y92161D01*
D02*
G37*
G36*
X119500D02*
X115457D01*
Y89595D01*
X119500D01*
Y92161D01*
D02*
G37*
G36*
X166051Y100721D02*
X157949D01*
Y89272D01*
X166051D01*
Y92444D01*
X166249Y92702D01*
X166508Y93328D01*
X166597Y94000D01*
X166508Y94672D01*
X166249Y95298D01*
X166051Y95556D01*
Y100721D01*
D02*
G37*
G36*
X33000Y103137D02*
X31608Y103000D01*
X30269Y102594D01*
X29035Y101934D01*
X27954Y101046D01*
X27066Y99965D01*
X26406Y98731D01*
X26000Y97392D01*
X25863Y96000D01*
X26000Y94608D01*
X26406Y93269D01*
X27066Y92035D01*
X27954Y90954D01*
X29035Y90066D01*
X30269Y89407D01*
X31608Y89000D01*
X33000Y88863D01*
X34392Y89000D01*
X35731Y89407D01*
X36965Y90066D01*
X38046Y90954D01*
X38934Y92035D01*
X39593Y93269D01*
X40000Y94608D01*
X40137Y96000D01*
X40000Y97392D01*
X39593Y98731D01*
X38934Y99965D01*
X38046Y101046D01*
X36965Y101934D01*
X35731Y102594D01*
X34392Y103000D01*
X33000Y103137D01*
D02*
G37*
G36*
X124543Y88595D02*
X120500D01*
Y86028D01*
X124543D01*
Y88595D01*
D02*
G37*
G36*
X119500D02*
X115457D01*
Y86028D01*
X119500D01*
Y88595D01*
D02*
G37*
G36*
X131500Y77531D02*
Y75500D01*
X133531D01*
X133509Y75672D01*
X133249Y76298D01*
X132836Y76836D01*
X132299Y77249D01*
X131672Y77508D01*
X131500Y77531D01*
D02*
G37*
G36*
X130500D02*
X130328Y77508D01*
X129701Y77249D01*
X129164Y76836D01*
X128751Y76298D01*
X128491Y75672D01*
X128469Y75500D01*
X130500D01*
Y77531D01*
D02*
G37*
G36*
X88500Y75531D02*
Y73500D01*
X90531D01*
X90509Y73672D01*
X90249Y74299D01*
X89836Y74836D01*
X89298Y75249D01*
X88672Y75508D01*
X88500Y75531D01*
D02*
G37*
G36*
X87500D02*
X87328Y75508D01*
X86702Y75249D01*
X86164Y74836D01*
X85751Y74299D01*
X85492Y73672D01*
X85469Y73500D01*
X87500D01*
Y75531D01*
D02*
G37*
G36*
X50500D02*
Y73500D01*
X52531D01*
X52509Y73672D01*
X52249Y74299D01*
X51836Y74836D01*
X51298Y75249D01*
X50672Y75508D01*
X50500Y75531D01*
D02*
G37*
G36*
X49500D02*
X49328Y75508D01*
X48702Y75249D01*
X48164Y74836D01*
X47751Y74299D01*
X47491Y73672D01*
X47469Y73500D01*
X49500D01*
Y75531D01*
D02*
G37*
G36*
X61740Y85810D02*
X60502Y85688D01*
X59312Y85327D01*
X58215Y84741D01*
X57253Y83951D01*
X56464Y82990D01*
X55878Y81893D01*
X55517Y80703D01*
X55395Y79465D01*
X55517Y78227D01*
X55878Y77036D01*
X56464Y75939D01*
X57253Y74978D01*
X58215Y74189D01*
X59312Y73602D01*
X60502Y73241D01*
X61740Y73119D01*
X62978Y73241D01*
X64169Y73602D01*
X65266Y74189D01*
X66227Y74978D01*
X67016Y75939D01*
X67603Y77036D01*
X67964Y78227D01*
X68086Y79465D01*
X67964Y80703D01*
X67603Y81893D01*
X67016Y82990D01*
X66227Y83951D01*
X65266Y84741D01*
X64169Y85327D01*
X62978Y85688D01*
X61740Y85810D01*
D02*
G37*
G36*
X133531Y74500D02*
X131500D01*
Y72469D01*
X131672Y72492D01*
X132299Y72751D01*
X132836Y73164D01*
X133249Y73702D01*
X133509Y74328D01*
X133531Y74500D01*
D02*
G37*
G36*
X130500D02*
X128469D01*
X128491Y74328D01*
X128751Y73702D01*
X129164Y73164D01*
X129701Y72751D01*
X130328Y72492D01*
X130500Y72469D01*
Y74500D01*
D02*
G37*
G36*
X90531Y72500D02*
X88500D01*
Y70469D01*
X88672Y70491D01*
X89298Y70751D01*
X89836Y71164D01*
X90249Y71702D01*
X90509Y72328D01*
X90531Y72500D01*
D02*
G37*
G36*
X87500D02*
X85469D01*
X85492Y72328D01*
X85751Y71702D01*
X86164Y71164D01*
X86702Y70751D01*
X87328Y70491D01*
X87500Y70469D01*
Y72500D01*
D02*
G37*
G36*
X52531D02*
X50500D01*
Y70469D01*
X50672Y70491D01*
X51298Y70751D01*
X51836Y71164D01*
X52249Y71702D01*
X52509Y72328D01*
X52531Y72500D01*
D02*
G37*
G36*
X49500D02*
X47469D01*
X47491Y72328D01*
X47751Y71702D01*
X48164Y71164D01*
X48702Y70751D01*
X49328Y70491D01*
X49500Y70469D01*
Y72500D01*
D02*
G37*
G36*
X386799Y67531D02*
Y65500D01*
X388830D01*
X388807Y65672D01*
X388548Y66299D01*
X388135Y66836D01*
X387597Y67249D01*
X386971Y67509D01*
X386799Y67531D01*
D02*
G37*
G36*
X385799D02*
X385626Y67509D01*
X385000Y67249D01*
X384462Y66836D01*
X384049Y66299D01*
X383790Y65672D01*
X383767Y65500D01*
X385799D01*
Y67531D01*
D02*
G37*
G36*
X62240Y69225D02*
Y63429D01*
X68036D01*
X67964Y64167D01*
X67603Y65358D01*
X67016Y66454D01*
X66227Y67416D01*
X65266Y68205D01*
X64169Y68792D01*
X62978Y69153D01*
X62240Y69225D01*
D02*
G37*
G36*
X61240D02*
X60502Y69153D01*
X59312Y68792D01*
X58215Y68205D01*
X57253Y67416D01*
X56464Y66454D01*
X55878Y65358D01*
X55517Y64167D01*
X55444Y63429D01*
X61240D01*
Y69225D01*
D02*
G37*
G36*
X388830Y64500D02*
X386799D01*
Y62469D01*
X386971Y62492D01*
X387597Y62751D01*
X388135Y63164D01*
X388548Y63701D01*
X388807Y64328D01*
X388830Y64500D01*
D02*
G37*
G36*
X385799D02*
X383767D01*
X383790Y64328D01*
X384049Y63701D01*
X384462Y63164D01*
X385000Y62751D01*
X385626Y62492D01*
X385799Y62469D01*
Y64500D01*
D02*
G37*
G36*
X133500Y60531D02*
Y58500D01*
X135531D01*
X135509Y58672D01*
X135249Y59298D01*
X134836Y59836D01*
X134299Y60249D01*
X133672Y60509D01*
X133500Y60531D01*
D02*
G37*
G36*
X132500D02*
X132328Y60509D01*
X131702Y60249D01*
X131164Y59836D01*
X130751Y59298D01*
X130491Y58672D01*
X130469Y58500D01*
X132500D01*
Y60531D01*
D02*
G37*
G36*
X68036Y62429D02*
X62240D01*
Y56633D01*
X62978Y56705D01*
X64169Y57067D01*
X65266Y57653D01*
X66227Y58442D01*
X67016Y59404D01*
X67603Y60501D01*
X67964Y61691D01*
X68036Y62429D01*
D02*
G37*
G36*
X61240D02*
X55444D01*
X55517Y61691D01*
X55878Y60501D01*
X56464Y59404D01*
X57253Y58442D01*
X58215Y57653D01*
X59312Y57067D01*
X60502Y56705D01*
X61240Y56633D01*
Y62429D01*
D02*
G37*
G36*
X33000Y70066D02*
X31608Y69929D01*
X30269Y69523D01*
X29035Y68863D01*
X27954Y67976D01*
X27066Y66894D01*
X26406Y65660D01*
X26000Y64321D01*
X25863Y62929D01*
X26000Y61537D01*
X26406Y60198D01*
X27066Y58964D01*
X27954Y57883D01*
X29035Y56995D01*
X30269Y56336D01*
X31608Y55929D01*
X33000Y55792D01*
X34392Y55929D01*
X35731Y56336D01*
X36965Y56995D01*
X38046Y57883D01*
X38934Y58964D01*
X39593Y60198D01*
X40000Y61537D01*
X40137Y62929D01*
X40000Y64321D01*
X39593Y65660D01*
X38934Y66894D01*
X38046Y67976D01*
X36965Y68863D01*
X35731Y69523D01*
X34392Y69929D01*
X33000Y70066D01*
D02*
G37*
G36*
X135531Y57500D02*
X133500D01*
Y55469D01*
X133672Y55492D01*
X134299Y55751D01*
X134836Y56164D01*
X135249Y56701D01*
X135509Y57328D01*
X135531Y57500D01*
D02*
G37*
G36*
X132500D02*
X130469D01*
X130491Y57328D01*
X130751Y56701D01*
X131164Y56164D01*
X131702Y55751D01*
X132328Y55492D01*
X132500Y55469D01*
Y57500D01*
D02*
G37*
G36*
X321798Y50791D02*
Y48760D01*
X323830D01*
X323807Y48932D01*
X323548Y49558D01*
X323135Y50096D01*
X322597Y50509D01*
X321971Y50768D01*
X321798Y50791D01*
D02*
G37*
G36*
X320798D02*
X320626Y50768D01*
X320000Y50509D01*
X319462Y50096D01*
X319049Y49558D01*
X318790Y48932D01*
X318767Y48760D01*
X320798D01*
Y50791D01*
D02*
G37*
G36*
X166551Y49531D02*
Y47500D01*
X168582D01*
X168560Y47672D01*
X168300Y48298D01*
X167888Y48836D01*
X167350Y49249D01*
X166723Y49509D01*
X166551Y49531D01*
D02*
G37*
G36*
X165551D02*
X165379Y49509D01*
X164753Y49249D01*
X164215Y48836D01*
X163802Y48298D01*
X163543Y47672D01*
X163520Y47500D01*
X165551D01*
Y49531D01*
D02*
G37*
G36*
X323830Y47760D02*
X321798D01*
Y45729D01*
X321971Y45751D01*
X322597Y46011D01*
X323135Y46424D01*
X323548Y46961D01*
X323807Y47588D01*
X323830Y47760D01*
D02*
G37*
G36*
X320798D02*
X318767D01*
X318790Y47588D01*
X319049Y46961D01*
X319462Y46424D01*
X320000Y46011D01*
X320626Y45751D01*
X320798Y45729D01*
Y47760D01*
D02*
G37*
G36*
X168582Y46500D02*
X166551D01*
Y44469D01*
X166723Y44491D01*
X167350Y44751D01*
X167888Y45164D01*
X168300Y45702D01*
X168560Y46328D01*
X168582Y46500D01*
D02*
G37*
G36*
X165551D02*
X163520D01*
X163543Y46328D01*
X163802Y45702D01*
X164215Y45164D01*
X164753Y44751D01*
X165379Y44491D01*
X165551Y44469D01*
Y46500D01*
D02*
G37*
G36*
X144000Y53140D02*
X142737Y52974D01*
X141560Y52486D01*
X140549Y51711D01*
X139773Y50700D01*
X139286Y49523D01*
X139120Y48260D01*
X139286Y46997D01*
X139773Y45820D01*
X140549Y44809D01*
X141560Y44033D01*
X142737Y43546D01*
X144000Y43380D01*
X145263Y43546D01*
X146440Y44033D01*
X147451Y44809D01*
X148226Y45820D01*
X148714Y46997D01*
X148880Y48260D01*
X148714Y49523D01*
X148226Y50700D01*
X147451Y51711D01*
X146440Y52486D01*
X145263Y52974D01*
X144000Y53140D01*
D02*
G37*
G36*
X355500Y37531D02*
Y35500D01*
X357531D01*
X357509Y35672D01*
X357249Y36298D01*
X356836Y36836D01*
X356298Y37249D01*
X355672Y37508D01*
X355500Y37531D01*
D02*
G37*
G36*
X354500D02*
X354328Y37508D01*
X353701Y37249D01*
X353164Y36836D01*
X352751Y36298D01*
X352491Y35672D01*
X352469Y35500D01*
X354500D01*
Y37531D01*
D02*
G37*
G36*
X131500D02*
Y35500D01*
X133531D01*
X133509Y35672D01*
X133249Y36298D01*
X132836Y36836D01*
X132299Y37249D01*
X131672Y37508D01*
X131500Y37531D01*
D02*
G37*
G36*
X130500D02*
X130328Y37508D01*
X129701Y37249D01*
X129164Y36836D01*
X128751Y36298D01*
X128491Y35672D01*
X128469Y35500D01*
X130500D01*
Y37531D01*
D02*
G37*
G36*
X357531Y34500D02*
X355500D01*
Y32469D01*
X355672Y32491D01*
X356298Y32751D01*
X356836Y33164D01*
X357249Y33702D01*
X357509Y34328D01*
X357531Y34500D01*
D02*
G37*
G36*
X354500D02*
X352469D01*
X352491Y34328D01*
X352751Y33702D01*
X353164Y33164D01*
X353701Y32751D01*
X354328Y32491D01*
X354500Y32469D01*
Y34500D01*
D02*
G37*
G36*
X133531D02*
X131500D01*
Y32469D01*
X131672Y32491D01*
X132299Y32751D01*
X132836Y33164D01*
X133249Y33702D01*
X133509Y34328D01*
X133531Y34500D01*
D02*
G37*
G36*
X130500D02*
X128469D01*
X128491Y34328D01*
X128751Y33702D01*
X129164Y33164D01*
X129701Y32751D01*
X130328Y32491D01*
X130500Y32469D01*
Y34500D01*
D02*
G37*
G36*
X114472Y39361D02*
X113209Y39194D01*
X112032Y38707D01*
X111021Y37931D01*
X110246Y36920D01*
X109758Y35743D01*
X109592Y34480D01*
X109758Y33217D01*
X110246Y32040D01*
X111021Y31029D01*
X112032Y30254D01*
X113209Y29766D01*
X114472Y29600D01*
X115736Y29766D01*
X116913Y30254D01*
X117923Y31029D01*
X118699Y32040D01*
X119186Y33217D01*
X119353Y34480D01*
X119186Y35743D01*
X118699Y36920D01*
X117923Y37931D01*
X116913Y38707D01*
X115736Y39194D01*
X114472Y39361D01*
D02*
G37*
G36*
X384543Y194161D02*
X375457D01*
Y188028D01*
X377006D01*
Y181095D01*
X377028Y180930D01*
Y176457D01*
X377100D01*
Y95335D01*
X309760Y27994D01*
X165240D01*
X160943Y32291D01*
Y52350D01*
X160841Y53125D01*
X160542Y53847D01*
X160066Y54467D01*
X145416Y69117D01*
X144796Y69593D01*
X144073Y69892D01*
X143298Y69994D01*
X118535D01*
X67970Y120560D01*
X68086Y121732D01*
X67964Y122970D01*
X67603Y124161D01*
X67016Y125258D01*
X66227Y126219D01*
X65266Y127008D01*
X64169Y127595D01*
X62978Y127956D01*
X61740Y128078D01*
X60502Y127956D01*
X59312Y127595D01*
X58215Y127008D01*
X57253Y126219D01*
X56464Y125258D01*
X55878Y124161D01*
X55517Y122970D01*
X55395Y121732D01*
X55517Y120494D01*
X55878Y119304D01*
X56464Y118207D01*
X57253Y117245D01*
X58215Y116456D01*
X59312Y115870D01*
X60502Y115509D01*
X61740Y115387D01*
X62978Y115509D01*
X64169Y115870D01*
X64183Y115878D01*
X115178Y64883D01*
X115798Y64407D01*
X116520Y64108D01*
X117295Y64006D01*
X142058D01*
X154955Y51109D01*
Y31051D01*
X155057Y30276D01*
X155356Y29554D01*
X155832Y28934D01*
X161883Y22883D01*
X162503Y22407D01*
X162802Y22283D01*
X163225Y22108D01*
X164000Y22006D01*
X311000D01*
X311775Y22108D01*
X312497Y22407D01*
X313117Y22883D01*
X382212Y91977D01*
X382687Y92597D01*
X382987Y93320D01*
X383089Y94095D01*
Y176457D01*
X383161D01*
Y185543D01*
X382994D01*
Y188028D01*
X384543D01*
Y194161D01*
D02*
G37*
G36*
X385827Y44350D02*
X384087Y44179D01*
X382414Y43671D01*
X380873Y42847D01*
X379521Y41738D01*
X378413Y40387D01*
X377589Y38845D01*
X377081Y37173D01*
X376910Y35433D01*
X377081Y33694D01*
X377589Y32021D01*
X378413Y30479D01*
X379521Y29128D01*
X380873Y28019D01*
X382414Y27195D01*
X384087Y26687D01*
X385827Y26516D01*
X387566Y26687D01*
X389239Y27195D01*
X390781Y28019D01*
X392132Y29128D01*
X393241Y30479D01*
X394065Y32021D01*
X394572Y33694D01*
X394744Y35433D01*
X394572Y37173D01*
X394065Y38845D01*
X393241Y40387D01*
X392132Y41738D01*
X390781Y42847D01*
X389239Y43671D01*
X387566Y44179D01*
X385827Y44350D01*
D02*
G37*
G36*
X35433D02*
X33694Y44179D01*
X32021Y43671D01*
X30479Y42847D01*
X29128Y41738D01*
X28019Y40387D01*
X27195Y38845D01*
X26687Y37173D01*
X26516Y35433D01*
X26687Y33694D01*
X27195Y32021D01*
X28019Y30479D01*
X29128Y29128D01*
X30479Y28019D01*
X32021Y27195D01*
X33694Y26687D01*
X35433Y26516D01*
X37173Y26687D01*
X38845Y27195D01*
X40387Y28019D01*
X41738Y29128D01*
X42847Y30479D01*
X43671Y32021D01*
X44179Y33694D01*
X44350Y35433D01*
X44179Y37173D01*
X43671Y38845D01*
X42847Y40387D01*
X41738Y41738D01*
X40387Y42847D01*
X38845Y43671D01*
X37173Y44179D01*
X35433Y44350D01*
D02*
G37*
%LPD*%
D16*
X120000Y100906D02*
D03*
Y89095D02*
D03*
X110000Y149094D02*
D03*
Y160906D02*
D03*
X380000Y191095D02*
D03*
Y202906D02*
D03*
X26000Y174094D02*
D03*
Y185906D02*
D03*
D29*
X223000Y309500D02*
Y332370D01*
Y309500D02*
X233000Y299500D01*
X172500Y242500D02*
X299000Y242500D01*
X233000Y299500D02*
X262500D01*
X217500D02*
X233000D01*
X217000Y300000D02*
X217500Y299500D01*
X262500D02*
X265000D01*
D30*
X104890Y334500D02*
X127344D01*
X129585D02*
X144260D01*
D31*
X142973Y150039D02*
X157996Y135016D01*
Y127000D02*
Y135016D01*
X391740Y180835D02*
Y213000D01*
X390000Y169000D02*
X391740D01*
X113732Y173260D02*
X114472Y174000D01*
X52000Y139000D02*
X61831D01*
X26000Y165000D02*
X52000Y139000D01*
X84000Y122000D02*
X86000D01*
X107095Y100906D01*
X120000D01*
X65563Y118732D02*
X117295Y67000D01*
X143298D01*
X101138Y149189D02*
X120953D01*
X83000Y140000D02*
X91949D01*
X31000Y171260D02*
X35882D01*
X28165Y174094D02*
X31000Y171260D01*
X26000Y174094D02*
X28165D01*
X54000Y174882D02*
Y181004D01*
X46118Y174882D02*
X52378D01*
X130118Y153701D02*
X139310D01*
X130000D02*
X130118D01*
X139310D02*
X142973Y150039D01*
X142752Y105413D02*
Y106780D01*
X144000Y108028D02*
Y127000D01*
X142752Y106780D02*
X144000Y108028D01*
X120000Y100906D02*
X131280D01*
X380095Y94095D02*
Y181000D01*
X311000Y25000D02*
X380095Y94095D01*
X164000Y25000D02*
X311000D01*
X157949Y31051D02*
X164000Y25000D01*
X157949Y31051D02*
Y52350D01*
X143298Y67000D02*
X157949Y52350D01*
X170004Y121004D02*
Y127000D01*
X162000Y113000D02*
X170004Y121004D01*
X162000Y107004D02*
Y113000D01*
X391740Y169000D02*
Y180835D01*
X391905Y181000D01*
X380000Y181095D02*
X380095Y181000D01*
X380000Y181095D02*
Y191095D01*
X91949Y140000D02*
X101138Y149189D01*
X26000Y165000D02*
Y174094D01*
X82906Y172638D02*
X83528Y173260D01*
X82906Y157000D02*
Y172638D01*
X83528Y173260D02*
X113732D01*
X52378Y174882D02*
X54000Y173260D01*
Y174882D01*
Y181004D02*
X60996Y188000D01*
X83528Y173260D02*
Y177476D01*
X73004Y188000D02*
X83528Y177476D01*
X170004Y127000D02*
Y147543D01*
X172500Y150039D01*
D32*
X65520Y334500D02*
D03*
D33*
X262370D02*
D03*
X104890D02*
D03*
X144260D02*
D03*
X183630D02*
D03*
X223000D02*
D03*
X33000Y130000D02*
D03*
Y96000D02*
D03*
Y62929D02*
D03*
D34*
X54000Y173260D02*
D03*
Y252000D02*
D03*
X83528Y265779D02*
D03*
Y173260D02*
D03*
X144000Y127000D02*
D03*
Y48260D02*
D03*
X114472Y34480D02*
D03*
Y127000D02*
D03*
X142973Y150039D02*
D03*
Y228780D02*
D03*
X172500Y242559D02*
D03*
Y215000D02*
D03*
Y150039D02*
D03*
X391740Y213000D02*
D03*
X313000D02*
D03*
X299220Y242528D02*
D03*
X326780D02*
D03*
X391740D02*
D03*
D35*
X61740Y121732D02*
D03*
Y138268D02*
D03*
X83394Y121732D02*
D03*
Y138268D02*
D03*
X61740Y96000D02*
D03*
Y79465D02*
D03*
Y62929D02*
D03*
D36*
X35433Y330709D02*
D03*
Y35433D02*
D03*
X385827D02*
D03*
Y330709D02*
D03*
D37*
X88000Y73000D02*
D03*
X133000Y58000D02*
D03*
X321299Y48260D02*
D03*
X166051Y47000D02*
D03*
X115457Y140000D02*
D03*
X112000Y158776D02*
D03*
X72000Y145000D02*
D03*
X386000Y227000D02*
D03*
X355000Y35000D02*
D03*
X386298Y65000D02*
D03*
X131000Y75000D02*
D03*
X155338Y147000D02*
D03*
X164000Y94000D02*
D03*
X128000Y175000D02*
D03*
X131000Y35000D02*
D03*
X50000Y73000D02*
D03*
X48000Y117000D02*
D03*
X124000D02*
D03*
X70000Y169000D02*
D03*
X50000Y189000D02*
D03*
X70000Y155000D02*
D03*
D38*
X132000Y109153D02*
D03*
Y101673D02*
D03*
X142236Y105413D02*
D03*
X35882Y178740D02*
D03*
Y171260D02*
D03*
X46118Y175000D02*
D03*
X130118Y153701D02*
D03*
X119882Y149961D02*
D03*
Y157442D02*
D03*
D39*
X71095Y157000D02*
D03*
X82906D02*
D03*
X126858Y173000D02*
D03*
X115047D02*
D03*
X391905Y181000D02*
D03*
X380095D02*
D03*
D40*
X162000Y94996D02*
D03*
Y107004D02*
D03*
X390000Y154902D02*
D03*
Y166909D02*
D03*
D41*
X157996Y127000D02*
D03*
X170004D02*
D03*
X60996Y188000D02*
D03*
X73004D02*
D03*
D42*
X122000Y312000D02*
Y331000D01*
X88000Y278000D02*
X122000Y312000D01*
X88000Y267535D02*
Y278000D01*
D43*
X217000Y78000D02*
D03*
X262500Y77500D02*
D03*
D44*
X217000Y300000D02*
D03*
X262500Y299500D02*
D03*
M02*
