G04*
G04 #@! TF.GenerationSoftware,Altium Limited,Altium Designer,19.0.10 (269)*
G04*
G04 Layer_Color=65535*
%FSLAX25Y25*%
%MOIN*%
G70*
G01*
G75*
%ADD10C,0.01000*%
%ADD11C,0.00787*%
%ADD12C,0.11811*%
%ADD13C,0.00600*%
%ADD14C,0.00800*%
%ADD15C,0.01500*%
G36*
X211053Y325910D02*
Y325637D01*
Y325363D01*
X59354D01*
Y325637D01*
Y325910D01*
Y326183D01*
X211053D01*
Y325910D01*
D02*
G37*
G36*
X108280Y316343D02*
Y316070D01*
Y315797D01*
Y315523D01*
Y315250D01*
Y314977D01*
Y314703D01*
X106640D01*
Y314977D01*
Y315250D01*
Y315523D01*
Y315797D01*
Y316070D01*
Y316343D01*
Y316617D01*
X108280D01*
Y316343D01*
D02*
G37*
G36*
X183446Y315797D02*
Y315523D01*
Y315250D01*
Y314977D01*
Y314703D01*
Y314430D01*
X181533D01*
Y314703D01*
Y314977D01*
Y315250D01*
Y315523D01*
Y315797D01*
Y316070D01*
X183446D01*
Y315797D01*
D02*
G37*
G36*
X197113Y317163D02*
Y316890D01*
Y316617D01*
Y316343D01*
Y316070D01*
Y315797D01*
Y315523D01*
Y315250D01*
Y314977D01*
Y314703D01*
Y314430D01*
Y314157D01*
Y313883D01*
Y313610D01*
Y313337D01*
Y313063D01*
Y312790D01*
Y312517D01*
Y312243D01*
Y311970D01*
Y311697D01*
Y311423D01*
Y311150D01*
Y310877D01*
Y310603D01*
Y310330D01*
Y310057D01*
Y309783D01*
Y309510D01*
Y309237D01*
Y308963D01*
Y308690D01*
Y308417D01*
Y308143D01*
Y307870D01*
Y307597D01*
Y307323D01*
Y307050D01*
Y306777D01*
Y306503D01*
Y306230D01*
Y305957D01*
Y305683D01*
Y305410D01*
Y305137D01*
Y304863D01*
Y304590D01*
Y304317D01*
Y304043D01*
Y303770D01*
Y303497D01*
X196293D01*
Y303770D01*
X196019D01*
Y304043D01*
X195473D01*
Y303770D01*
Y303497D01*
X186453D01*
Y303770D01*
X186180D01*
Y304043D01*
X185633D01*
Y304317D01*
X185360D01*
Y304590D01*
Y304863D01*
X184813D01*
Y305137D01*
X184540D01*
Y305410D01*
Y305683D01*
Y305957D01*
Y306230D01*
Y306503D01*
Y306777D01*
Y307050D01*
Y307323D01*
Y307597D01*
Y307870D01*
Y308143D01*
Y308417D01*
Y308690D01*
Y308963D01*
Y309237D01*
Y309510D01*
Y309783D01*
Y310057D01*
Y310330D01*
Y310603D01*
Y310877D01*
Y311150D01*
Y311423D01*
X184813D01*
Y311697D01*
X185086D01*
Y311970D01*
X185360D01*
Y312243D01*
X185633D01*
Y312517D01*
X185906D01*
Y312790D01*
X186180D01*
Y313063D01*
X194926D01*
Y312790D01*
X195473D01*
Y313063D01*
Y313337D01*
Y313610D01*
Y313883D01*
Y314157D01*
Y314430D01*
Y314703D01*
Y314977D01*
Y315250D01*
Y315523D01*
Y315797D01*
Y316070D01*
Y316343D01*
Y316617D01*
Y316890D01*
Y317163D01*
Y317437D01*
X197113D01*
Y317163D01*
D02*
G37*
G36*
X180440Y312790D02*
Y312517D01*
Y312243D01*
Y311970D01*
Y311697D01*
Y311423D01*
X175246D01*
Y311150D01*
X174973D01*
Y310877D01*
X174700D01*
Y310603D01*
Y310330D01*
Y310057D01*
Y309783D01*
Y309510D01*
Y309237D01*
Y308963D01*
Y308690D01*
Y308417D01*
Y308143D01*
Y307870D01*
Y307597D01*
Y307323D01*
Y307050D01*
Y306777D01*
Y306503D01*
Y306230D01*
Y305957D01*
Y305683D01*
Y305410D01*
Y305137D01*
Y304863D01*
Y304590D01*
Y304317D01*
Y304043D01*
Y303770D01*
Y303497D01*
X172786D01*
Y303770D01*
Y304043D01*
Y304317D01*
Y304590D01*
Y304863D01*
Y305137D01*
Y305410D01*
Y305683D01*
Y305957D01*
Y306230D01*
Y306503D01*
Y306777D01*
Y307050D01*
Y307323D01*
Y307597D01*
Y307870D01*
Y308143D01*
Y308417D01*
Y308690D01*
Y308963D01*
Y309237D01*
Y309510D01*
Y309783D01*
Y310057D01*
Y310330D01*
Y310603D01*
Y310877D01*
Y311150D01*
Y311423D01*
Y311697D01*
Y311970D01*
Y312243D01*
Y312517D01*
Y312790D01*
Y313063D01*
X173880D01*
Y312790D01*
X174426D01*
Y313063D01*
X180440D01*
Y312790D01*
D02*
G37*
G36*
X121400Y313337D02*
Y313063D01*
Y312790D01*
Y312517D01*
Y312243D01*
Y311970D01*
X112107D01*
Y312243D01*
X111834D01*
Y311970D01*
X112107D01*
Y311697D01*
X111287D01*
Y311423D01*
X111560D01*
Y311150D01*
X111287D01*
Y310877D01*
Y310603D01*
Y310330D01*
Y310057D01*
Y309783D01*
Y309510D01*
Y309237D01*
Y308963D01*
Y308690D01*
Y308417D01*
Y308143D01*
Y307870D01*
Y307597D01*
Y307323D01*
Y307050D01*
Y306777D01*
Y306503D01*
Y306230D01*
X111560D01*
Y305957D01*
X111834D01*
Y305683D01*
X121400D01*
Y305410D01*
Y305137D01*
Y304863D01*
Y304590D01*
Y304317D01*
Y304043D01*
X111014D01*
Y304317D01*
X110740D01*
Y304590D01*
X110467D01*
Y304863D01*
X110194D01*
Y305137D01*
X109920D01*
Y305410D01*
X109647D01*
Y305683D01*
Y305957D01*
Y306230D01*
Y306503D01*
Y306777D01*
Y307050D01*
Y307323D01*
Y307597D01*
Y307870D01*
Y308143D01*
Y308417D01*
Y308690D01*
Y308963D01*
Y309237D01*
Y309510D01*
Y309783D01*
Y310057D01*
Y310330D01*
Y310603D01*
Y310877D01*
Y311150D01*
Y311423D01*
Y311697D01*
Y311970D01*
X109920D01*
Y312243D01*
X110467D01*
Y312517D01*
Y312790D01*
X110740D01*
Y313063D01*
X111014D01*
Y313337D01*
X111287D01*
Y313610D01*
X121400D01*
Y313337D01*
D02*
G37*
G36*
X88874Y317710D02*
Y317437D01*
Y317163D01*
Y316890D01*
Y316617D01*
Y316343D01*
Y316070D01*
Y315797D01*
Y315523D01*
Y315250D01*
Y314977D01*
Y314703D01*
Y314430D01*
Y314157D01*
Y313883D01*
Y313610D01*
Y313337D01*
Y313063D01*
Y312790D01*
Y312517D01*
Y312243D01*
Y311970D01*
Y311697D01*
Y311423D01*
Y311150D01*
Y310877D01*
Y310603D01*
Y310330D01*
Y310057D01*
Y309783D01*
Y309510D01*
Y309237D01*
Y308963D01*
Y308690D01*
Y308417D01*
Y308143D01*
Y307870D01*
Y307597D01*
Y307323D01*
Y307050D01*
Y306777D01*
Y306503D01*
Y306230D01*
Y305957D01*
X88601D01*
Y305683D01*
Y305410D01*
X88327D01*
Y305137D01*
X88054D01*
Y304863D01*
X87507D01*
Y304590D01*
Y304317D01*
X86961D01*
Y304043D01*
X74934D01*
Y304317D01*
X74661D01*
Y304590D01*
X74387D01*
Y304863D01*
X74114D01*
Y305137D01*
X73841D01*
Y305410D01*
X73567D01*
Y305683D01*
X73294D01*
Y305957D01*
Y306230D01*
Y306503D01*
Y306777D01*
Y307050D01*
Y307323D01*
Y307597D01*
Y307870D01*
Y308143D01*
Y308417D01*
Y308690D01*
Y308963D01*
Y309237D01*
Y309510D01*
Y309783D01*
Y310057D01*
Y310330D01*
Y310603D01*
Y310877D01*
Y311150D01*
Y311423D01*
Y311697D01*
Y311970D01*
Y312243D01*
Y312517D01*
Y312790D01*
Y313063D01*
Y313337D01*
Y313610D01*
Y313883D01*
Y314157D01*
Y314430D01*
Y314703D01*
Y314977D01*
Y315250D01*
Y315523D01*
Y315797D01*
Y316070D01*
Y316343D01*
Y316617D01*
Y316890D01*
Y317163D01*
Y317437D01*
Y317710D01*
Y317983D01*
X74934D01*
Y317710D01*
Y317437D01*
Y317163D01*
Y316890D01*
Y316617D01*
Y316343D01*
Y316070D01*
Y315797D01*
Y315523D01*
Y315250D01*
Y314977D01*
Y314703D01*
Y314430D01*
Y314157D01*
Y313883D01*
Y313610D01*
Y313337D01*
Y313063D01*
Y312790D01*
Y312517D01*
Y312243D01*
Y311970D01*
Y311697D01*
Y311423D01*
Y311150D01*
Y310877D01*
Y310603D01*
Y310330D01*
Y310057D01*
Y309783D01*
Y309510D01*
Y309237D01*
Y308963D01*
Y308690D01*
Y308417D01*
Y308143D01*
Y307870D01*
Y307597D01*
Y307323D01*
Y307050D01*
Y306777D01*
Y306503D01*
X75207D01*
Y306230D01*
X75481D01*
Y305957D01*
Y305683D01*
X86414D01*
Y305957D01*
X86687D01*
Y305683D01*
X86961D01*
Y305957D01*
X86687D01*
Y306230D01*
X86961D01*
Y306503D01*
Y306777D01*
Y307050D01*
Y307323D01*
Y307597D01*
Y307870D01*
Y308143D01*
Y308417D01*
Y308690D01*
Y308963D01*
Y309237D01*
Y309510D01*
Y309783D01*
Y310057D01*
Y310330D01*
Y310603D01*
Y310877D01*
Y311150D01*
Y311423D01*
Y311697D01*
Y311970D01*
Y312243D01*
Y312517D01*
Y312790D01*
Y313063D01*
Y313337D01*
Y313610D01*
Y313883D01*
Y314157D01*
Y314430D01*
Y314703D01*
Y314977D01*
Y315250D01*
Y315523D01*
Y315797D01*
Y316070D01*
Y316343D01*
Y316617D01*
Y316890D01*
Y317163D01*
Y317437D01*
Y317710D01*
Y317983D01*
X88874D01*
Y317710D01*
D02*
G37*
G36*
X158846Y312790D02*
X158573D01*
Y312517D01*
Y312243D01*
X158300D01*
Y311970D01*
Y311697D01*
X158027D01*
Y311423D01*
Y311150D01*
X157753D01*
Y310877D01*
Y310603D01*
X157480D01*
Y310330D01*
Y310057D01*
X157206D01*
Y309783D01*
Y309510D01*
X156933D01*
Y309237D01*
Y308963D01*
X156660D01*
Y308690D01*
Y308417D01*
X156387D01*
Y308143D01*
Y307870D01*
X156113D01*
Y307597D01*
Y307323D01*
X155840D01*
Y307050D01*
Y306777D01*
X155567D01*
Y306503D01*
Y306230D01*
X155293D01*
Y305957D01*
Y305683D01*
X155020D01*
Y305410D01*
Y305137D01*
X154747D01*
Y304863D01*
Y304590D01*
X154200D01*
Y304317D01*
X154473D01*
Y304043D01*
X154200D01*
Y303770D01*
Y303497D01*
X153927D01*
Y303223D01*
Y302950D01*
X153653D01*
Y302677D01*
Y302403D01*
X153380D01*
Y302130D01*
Y301857D01*
X153107D01*
Y301583D01*
X152833D01*
Y301310D01*
Y301037D01*
Y300763D01*
X152560D01*
Y300490D01*
Y300217D01*
X152013D01*
Y299943D01*
Y299670D01*
Y299397D01*
Y299123D01*
X150373D01*
Y299397D01*
X150100D01*
Y299123D01*
X149827D01*
Y299397D01*
Y299670D01*
X150373D01*
Y299943D01*
Y300217D01*
Y300490D01*
Y300763D01*
X150647D01*
Y301037D01*
Y301310D01*
X151193D01*
Y301583D01*
X150920D01*
Y301857D01*
X151193D01*
Y302130D01*
Y302403D01*
X151467D01*
Y302677D01*
Y302950D01*
X151740D01*
Y303223D01*
Y303497D01*
Y303770D01*
Y304043D01*
X151467D01*
Y304317D01*
Y304590D01*
Y304863D01*
X151193D01*
Y305137D01*
X150920D01*
Y305410D01*
Y305683D01*
X150647D01*
Y305957D01*
Y306230D01*
Y306503D01*
X150373D01*
Y306777D01*
X150100D01*
Y307050D01*
Y307323D01*
X149827D01*
Y307597D01*
Y307870D01*
X149553D01*
Y308143D01*
Y308417D01*
X149280D01*
Y308690D01*
Y308963D01*
Y309237D01*
X149007D01*
Y309510D01*
X148733D01*
Y309783D01*
Y310057D01*
X148460D01*
Y310330D01*
Y310603D01*
Y310877D01*
X148187D01*
Y311150D01*
X147913D01*
Y311423D01*
Y311697D01*
X147640D01*
Y311970D01*
Y312243D01*
X147367D01*
Y312517D01*
Y312790D01*
X147093D01*
Y313063D01*
X149280D01*
Y312790D01*
Y312517D01*
X149553D01*
Y312243D01*
Y311970D01*
Y311697D01*
X149827D01*
Y311423D01*
X150100D01*
Y311150D01*
Y310877D01*
X150373D01*
Y310603D01*
Y310330D01*
X150647D01*
Y310057D01*
Y309783D01*
X150920D01*
Y309510D01*
Y309237D01*
X151193D01*
Y308963D01*
Y308690D01*
X151467D01*
Y308417D01*
Y308143D01*
X151740D01*
Y307870D01*
Y307597D01*
Y307323D01*
X152013D01*
Y307050D01*
X152287D01*
Y306777D01*
Y306503D01*
X152560D01*
Y306230D01*
Y305957D01*
X152833D01*
Y305683D01*
Y305410D01*
X153107D01*
Y305683D01*
X153380D01*
Y305957D01*
X153107D01*
Y306230D01*
X153380D01*
Y306503D01*
Y306777D01*
X153653D01*
Y307050D01*
Y307323D01*
X153927D01*
Y307597D01*
Y307870D01*
X154200D01*
Y308143D01*
Y308417D01*
X154747D01*
Y308690D01*
Y308963D01*
Y309237D01*
Y309510D01*
X155020D01*
Y309783D01*
Y310057D01*
X155567D01*
Y310330D01*
X155293D01*
Y310603D01*
X155567D01*
Y310877D01*
Y311150D01*
X155840D01*
Y311423D01*
Y311697D01*
X156113D01*
Y311970D01*
Y312243D01*
X156387D01*
Y312517D01*
Y312790D01*
X156933D01*
Y313063D01*
X158846D01*
Y312790D01*
D02*
G37*
G36*
X106367Y317710D02*
X106094D01*
Y317437D01*
X105820D01*
Y317163D01*
Y316890D01*
Y316617D01*
X105547D01*
Y316343D01*
Y316070D01*
X105274D01*
Y315797D01*
Y315523D01*
X105000D01*
Y315250D01*
Y314977D01*
X104727D01*
Y314703D01*
Y314430D01*
X104454D01*
Y314157D01*
Y313883D01*
X104180D01*
Y313610D01*
Y313337D01*
X103907D01*
Y313063D01*
X103634D01*
Y312790D01*
Y312517D01*
Y312243D01*
X103360D01*
Y311970D01*
Y311697D01*
X103087D01*
Y311423D01*
Y311150D01*
X102814D01*
Y310877D01*
Y310603D01*
X102541D01*
Y310330D01*
Y310057D01*
X102267D01*
Y309783D01*
Y309510D01*
X101994D01*
Y309237D01*
Y308963D01*
X101720D01*
Y308690D01*
X101447D01*
Y308417D01*
Y308143D01*
Y307870D01*
X101174D01*
Y307597D01*
Y307323D01*
X100900D01*
Y307050D01*
Y306777D01*
X100627D01*
Y306503D01*
Y306230D01*
X100354D01*
Y305957D01*
Y305683D01*
X100081D01*
Y305410D01*
Y305137D01*
X99807D01*
Y304863D01*
Y304590D01*
X99534D01*
Y304317D01*
X99260D01*
Y304043D01*
X96254D01*
Y304317D01*
X96527D01*
Y304590D01*
X95981D01*
Y304863D01*
Y305137D01*
X95707D01*
Y305410D01*
Y305683D01*
Y305957D01*
X95434D01*
Y306230D01*
X95161D01*
Y306503D01*
Y306777D01*
X94887D01*
Y307050D01*
Y307323D01*
X94614D01*
Y307597D01*
Y307870D01*
X94340D01*
Y308143D01*
Y308417D01*
X94067D01*
Y308690D01*
X94340D01*
Y308963D01*
X93794D01*
Y309237D01*
Y309510D01*
X93521D01*
Y309783D01*
Y310057D01*
Y310330D01*
X93247D01*
Y310603D01*
X92974D01*
Y310877D01*
Y311150D01*
X92701D01*
Y311423D01*
Y311697D01*
X92427D01*
Y311970D01*
Y312243D01*
X92154D01*
Y312517D01*
Y312790D01*
X91881D01*
Y313063D01*
X92154D01*
Y313337D01*
X91607D01*
Y313610D01*
Y313883D01*
X91334D01*
Y314157D01*
Y314430D01*
Y314703D01*
X91061D01*
Y314977D01*
X90787D01*
Y315250D01*
Y315523D01*
X90514D01*
Y315797D01*
Y316070D01*
X90241D01*
Y316343D01*
Y316617D01*
X89967D01*
Y316890D01*
Y317163D01*
X89694D01*
Y317437D01*
X89967D01*
Y317710D01*
X89421D01*
Y317983D01*
X91607D01*
Y317710D01*
X91881D01*
Y317437D01*
Y317163D01*
X92154D01*
Y316890D01*
Y316617D01*
X92427D01*
Y316343D01*
Y316070D01*
X92701D01*
Y315797D01*
Y315523D01*
X92974D01*
Y315250D01*
Y314977D01*
X93247D01*
Y314703D01*
Y314430D01*
Y314157D01*
X93521D01*
Y313883D01*
X93794D01*
Y313610D01*
Y313337D01*
X94067D01*
Y313063D01*
Y312790D01*
X94340D01*
Y312517D01*
Y312243D01*
X94614D01*
Y311970D01*
X94340D01*
Y311697D01*
X94887D01*
Y311423D01*
Y311150D01*
X95161D01*
Y310877D01*
Y310603D01*
X95434D01*
Y310330D01*
Y310057D01*
Y309783D01*
X95707D01*
Y309510D01*
X95981D01*
Y309237D01*
Y308963D01*
X96254D01*
Y308690D01*
Y308417D01*
X96527D01*
Y308143D01*
Y307870D01*
X96801D01*
Y307597D01*
Y307323D01*
X97074D01*
Y307050D01*
Y306777D01*
X97347D01*
Y306503D01*
Y306230D01*
X97620D01*
Y305957D01*
Y305683D01*
Y305410D01*
X98167D01*
Y305683D01*
Y305957D01*
X98440D01*
Y306230D01*
X98714D01*
Y306503D01*
X98987D01*
Y306777D01*
X98714D01*
Y307050D01*
X98987D01*
Y307323D01*
Y307597D01*
X99260D01*
Y307870D01*
Y308143D01*
X99534D01*
Y308417D01*
Y308690D01*
X99807D01*
Y308963D01*
Y309237D01*
X100354D01*
Y309510D01*
X100081D01*
Y309783D01*
X100354D01*
Y310057D01*
Y310330D01*
X100627D01*
Y310603D01*
X100900D01*
Y310877D01*
X101174D01*
Y311150D01*
X100900D01*
Y311423D01*
X101174D01*
Y311697D01*
Y311970D01*
X101447D01*
Y312243D01*
Y312517D01*
X101720D01*
Y312790D01*
Y313063D01*
X101994D01*
Y313337D01*
Y313610D01*
X102541D01*
Y313883D01*
X102267D01*
Y314157D01*
X102541D01*
Y314430D01*
Y314703D01*
X102814D01*
Y314977D01*
X103087D01*
Y315250D01*
X103360D01*
Y315523D01*
X103087D01*
Y315797D01*
X103360D01*
Y316070D01*
Y316343D01*
X103634D01*
Y316617D01*
Y316890D01*
X103907D01*
Y317163D01*
Y317437D01*
X104180D01*
Y317710D01*
Y317983D01*
X106367D01*
Y317710D01*
D02*
G37*
G36*
X108280Y313337D02*
Y313063D01*
Y312790D01*
Y312517D01*
Y312243D01*
Y311970D01*
Y311697D01*
Y311423D01*
Y311150D01*
Y310877D01*
Y310603D01*
Y310330D01*
Y310057D01*
Y309783D01*
Y309510D01*
Y309237D01*
Y308963D01*
Y308690D01*
Y308417D01*
Y308143D01*
Y307870D01*
Y307597D01*
Y307323D01*
Y307050D01*
Y306777D01*
Y306503D01*
Y306230D01*
Y305957D01*
Y305683D01*
Y305410D01*
Y305137D01*
Y304863D01*
Y304590D01*
Y304317D01*
Y304043D01*
X106640D01*
Y304317D01*
Y304590D01*
Y304863D01*
Y305137D01*
Y305410D01*
Y305683D01*
Y305957D01*
Y306230D01*
Y306503D01*
Y306777D01*
Y307050D01*
Y307323D01*
Y307597D01*
Y307870D01*
Y308143D01*
Y308417D01*
Y308690D01*
Y308963D01*
Y309237D01*
Y309510D01*
Y309783D01*
Y310057D01*
Y310330D01*
Y310603D01*
Y310877D01*
Y311150D01*
Y311423D01*
Y311697D01*
Y311970D01*
Y312243D01*
Y312517D01*
Y312790D01*
Y313063D01*
Y313337D01*
Y313610D01*
X108280D01*
Y313337D01*
D02*
G37*
G36*
X183446Y312790D02*
Y312517D01*
Y312243D01*
Y311970D01*
Y311697D01*
Y311423D01*
Y311150D01*
Y310877D01*
Y310603D01*
Y310330D01*
Y310057D01*
Y309783D01*
Y309510D01*
Y309237D01*
Y308963D01*
Y308690D01*
Y308417D01*
Y308143D01*
Y307870D01*
Y307597D01*
Y307323D01*
Y307050D01*
Y306777D01*
Y306503D01*
Y306230D01*
Y305957D01*
Y305683D01*
Y305410D01*
Y305137D01*
Y304863D01*
Y304590D01*
Y304317D01*
Y304043D01*
Y303770D01*
Y303497D01*
X181533D01*
Y303770D01*
Y304043D01*
Y304317D01*
Y304590D01*
Y304863D01*
Y305137D01*
Y305410D01*
Y305683D01*
Y305957D01*
Y306230D01*
Y306503D01*
Y306777D01*
Y307050D01*
Y307323D01*
Y307597D01*
Y307870D01*
Y308143D01*
Y308417D01*
Y308690D01*
Y308963D01*
Y309237D01*
Y309510D01*
Y309783D01*
Y310057D01*
Y310330D01*
Y310603D01*
Y310877D01*
Y311150D01*
Y311423D01*
Y311697D01*
Y311970D01*
Y312243D01*
Y312517D01*
Y312790D01*
Y313063D01*
X183446D01*
Y312790D01*
D02*
G37*
G36*
X160760Y317163D02*
Y316890D01*
Y316617D01*
Y316343D01*
Y316070D01*
Y315797D01*
Y315523D01*
Y315250D01*
Y314977D01*
Y314703D01*
Y314430D01*
Y314157D01*
Y313883D01*
Y313610D01*
Y313337D01*
Y313063D01*
Y312790D01*
X161033D01*
Y313063D01*
X170053D01*
Y312790D01*
X170326D01*
Y312517D01*
X170600D01*
Y312243D01*
X170873D01*
Y311970D01*
Y311697D01*
X171146D01*
Y311970D01*
X171420D01*
Y311697D01*
Y311423D01*
X171693D01*
Y311150D01*
Y310877D01*
Y310603D01*
Y310330D01*
Y310057D01*
Y309783D01*
Y309510D01*
Y309237D01*
Y308963D01*
Y308690D01*
Y308417D01*
Y308143D01*
Y307870D01*
Y307597D01*
Y307323D01*
Y307050D01*
Y306777D01*
Y306503D01*
Y306230D01*
Y305957D01*
Y305683D01*
Y305410D01*
Y305137D01*
X171420D01*
Y304863D01*
X171146D01*
Y304590D01*
X170873D01*
Y304317D01*
X170600D01*
Y304043D01*
X170053D01*
Y303770D01*
Y303497D01*
X160760D01*
Y303770D01*
X160486D01*
Y304043D01*
X160213D01*
Y303770D01*
X159940D01*
Y303497D01*
X159120D01*
Y303770D01*
Y304043D01*
Y304317D01*
Y304590D01*
Y304863D01*
Y305137D01*
Y305410D01*
Y305683D01*
Y305957D01*
Y306230D01*
Y306503D01*
Y306777D01*
Y307050D01*
Y307323D01*
Y307597D01*
Y307870D01*
Y308143D01*
Y308417D01*
Y308690D01*
Y308963D01*
Y309237D01*
Y309510D01*
Y309783D01*
Y310057D01*
Y310330D01*
Y310603D01*
Y310877D01*
Y311150D01*
Y311423D01*
Y311697D01*
Y311970D01*
Y312243D01*
Y312517D01*
Y312790D01*
Y313063D01*
Y313337D01*
Y313610D01*
Y313883D01*
Y314157D01*
Y314430D01*
Y314703D01*
Y314977D01*
Y315250D01*
Y315523D01*
Y315797D01*
Y316070D01*
Y316343D01*
Y316617D01*
Y316890D01*
Y317163D01*
Y317437D01*
X160760D01*
Y317163D01*
D02*
G37*
G36*
X137253Y322903D02*
Y322630D01*
Y322357D01*
Y322083D01*
Y321810D01*
Y321536D01*
Y321263D01*
Y320990D01*
Y320717D01*
Y320443D01*
Y320170D01*
Y319897D01*
Y319623D01*
Y319350D01*
Y319076D01*
Y318803D01*
Y318530D01*
Y318256D01*
Y317983D01*
Y317710D01*
Y317437D01*
Y317163D01*
Y316890D01*
Y316617D01*
Y316343D01*
Y316070D01*
Y315797D01*
Y315523D01*
Y315250D01*
Y314977D01*
Y314703D01*
Y314430D01*
Y314157D01*
Y313883D01*
Y313610D01*
Y313337D01*
Y313063D01*
Y312790D01*
Y312517D01*
Y312243D01*
Y311970D01*
Y311697D01*
Y311423D01*
Y311150D01*
Y310877D01*
Y310603D01*
Y310330D01*
Y310057D01*
Y309783D01*
Y309510D01*
Y309237D01*
Y308963D01*
Y308690D01*
Y308417D01*
Y308143D01*
X139167D01*
Y308417D01*
X139440D01*
Y308690D01*
Y308963D01*
Y309237D01*
Y309510D01*
Y309783D01*
Y310057D01*
Y310330D01*
Y310603D01*
Y310877D01*
Y311150D01*
Y311423D01*
Y311697D01*
Y311970D01*
Y312243D01*
Y312517D01*
Y312790D01*
Y313063D01*
X146000D01*
Y312790D01*
Y312517D01*
Y312243D01*
Y311970D01*
Y311697D01*
Y311423D01*
Y311150D01*
Y310877D01*
Y310603D01*
Y310330D01*
Y310057D01*
Y309783D01*
Y309510D01*
Y309237D01*
Y308963D01*
Y308690D01*
Y308417D01*
Y308143D01*
Y307870D01*
Y307597D01*
Y307323D01*
Y307050D01*
Y306777D01*
Y306503D01*
Y306230D01*
Y305957D01*
Y305683D01*
Y305410D01*
Y305137D01*
Y304863D01*
Y304590D01*
Y304317D01*
Y304043D01*
Y303770D01*
Y303497D01*
Y303223D01*
Y302950D01*
Y302677D01*
Y302403D01*
X145727D01*
Y302130D01*
X145180D01*
Y301857D01*
Y301583D01*
X144907D01*
Y301310D01*
Y301037D01*
X144633D01*
Y300763D01*
X144360D01*
Y300490D01*
Y300217D01*
X144087D01*
Y299943D01*
Y299670D01*
X143813D01*
Y299397D01*
X143540D01*
Y299123D01*
X143267D01*
Y298850D01*
Y298577D01*
Y298303D01*
X142720D01*
Y298030D01*
X142447D01*
Y297757D01*
Y297483D01*
X142173D01*
Y297210D01*
X141900D01*
Y296937D01*
Y296663D01*
X141627D01*
Y296390D01*
X141353D01*
Y296117D01*
Y295843D01*
Y295570D01*
X140807D01*
Y295297D01*
Y295023D01*
Y294750D01*
X140260D01*
Y294477D01*
Y294203D01*
X139987D01*
Y293930D01*
X139713D01*
Y293657D01*
Y293384D01*
Y293110D01*
X139440D01*
Y293384D01*
Y293657D01*
Y293930D01*
Y294203D01*
Y294477D01*
Y294750D01*
Y295023D01*
Y295297D01*
Y295570D01*
Y295843D01*
Y296117D01*
Y296390D01*
Y296663D01*
Y296937D01*
Y297210D01*
Y297483D01*
Y297757D01*
Y298030D01*
Y298303D01*
Y298577D01*
Y298850D01*
Y299123D01*
Y299397D01*
Y299670D01*
Y299943D01*
Y300217D01*
Y300490D01*
Y300763D01*
Y301037D01*
Y301310D01*
Y301583D01*
Y301857D01*
Y302130D01*
Y302403D01*
Y302677D01*
Y302950D01*
Y303223D01*
Y303497D01*
Y303770D01*
X130693D01*
Y304043D01*
Y304317D01*
Y304590D01*
Y304863D01*
Y305137D01*
Y305410D01*
Y305683D01*
Y305957D01*
Y306230D01*
Y306503D01*
Y306777D01*
Y307050D01*
Y307323D01*
Y307597D01*
Y307870D01*
Y308143D01*
Y308417D01*
Y308690D01*
Y308963D01*
Y309237D01*
Y309510D01*
Y309783D01*
Y310057D01*
Y310330D01*
Y310603D01*
Y310877D01*
Y311150D01*
Y311423D01*
Y311697D01*
Y311970D01*
Y312243D01*
Y312517D01*
Y312790D01*
Y313063D01*
Y313337D01*
Y313610D01*
Y313883D01*
X130967D01*
Y314157D01*
Y314430D01*
X131240D01*
Y314703D01*
X131514D01*
Y314977D01*
Y315250D01*
X132060D01*
Y315523D01*
X132334D01*
Y315797D01*
Y316070D01*
X132607D01*
Y316343D01*
Y316617D01*
X132880D01*
Y316890D01*
Y317163D01*
X133153D01*
Y317437D01*
X133427D01*
Y317710D01*
Y317983D01*
X133974D01*
Y318256D01*
Y318530D01*
Y318803D01*
X134247D01*
Y319076D01*
X134520D01*
Y319350D01*
X134793D01*
Y319623D01*
Y319897D01*
X135067D01*
Y320170D01*
Y320443D01*
X135340D01*
Y320717D01*
X135613D01*
Y320990D01*
X135887D01*
Y321263D01*
Y321536D01*
X136160D01*
Y321810D01*
Y322083D01*
X136433D01*
Y322357D01*
X136707D01*
Y322630D01*
Y322903D01*
X136980D01*
Y323177D01*
X137253D01*
Y322903D01*
D02*
G37*
G36*
X211053Y291470D02*
Y291197D01*
Y290924D01*
X59354D01*
Y291197D01*
Y291470D01*
Y291743D01*
X211053D01*
Y291470D01*
D02*
G37*
G36*
X115607Y286645D02*
Y286634D01*
Y286613D01*
Y286580D01*
X115596Y286547D01*
X115563Y286449D01*
X115498Y286350D01*
X115476Y286328D01*
X115421Y286296D01*
X115334Y286263D01*
X115214Y286241D01*
X115192D01*
X115115Y286252D01*
X115028Y286285D01*
X114940Y286339D01*
X114929Y286361D01*
X114886Y286416D01*
X114842Y286492D01*
X114809Y286613D01*
X114766Y286908D01*
Y286929D01*
X114754Y286973D01*
X114733Y287061D01*
X114711Y287159D01*
X114678Y287268D01*
X114623Y287388D01*
X114569Y287520D01*
X114503Y287640D01*
Y287651D01*
X114481Y287673D01*
X114448Y287705D01*
X114416Y287749D01*
X114361Y287793D01*
X114295Y287848D01*
X114230Y287902D01*
X114143Y287957D01*
Y288700D01*
X115607D01*
Y286645D01*
D02*
G37*
G36*
X111465Y287968D02*
X111454Y287957D01*
X111421Y287946D01*
X111377Y287913D01*
X111312Y287869D01*
X111180Y287749D01*
X111049Y287596D01*
X111038Y287585D01*
X111027Y287552D01*
X110995Y287487D01*
X110962Y287410D01*
X110929Y287312D01*
X110896Y287192D01*
X110863Y287061D01*
X110831Y286908D01*
X110787Y286613D01*
Y286601D01*
X110776Y286591D01*
X110754Y286514D01*
X110710Y286427D01*
X110645Y286339D01*
X110623Y286328D01*
X110579Y286296D01*
X110492Y286252D01*
X110372Y286241D01*
X110350D01*
X110273Y286252D01*
X110186Y286285D01*
X110098Y286350D01*
Y286361D01*
X110087Y286372D01*
X110055Y286438D01*
X110011Y286525D01*
X110000Y286645D01*
Y288700D01*
X111465D01*
Y287968D01*
D02*
G37*
G36*
X162180Y288689D02*
X162289Y288667D01*
X162398Y288613D01*
X162409D01*
X162420Y288602D01*
X162464Y288558D01*
X162497Y288471D01*
X162519Y288427D01*
Y288361D01*
Y288339D01*
X162508Y288296D01*
X162497Y288241D01*
X162453Y288176D01*
X162442Y288164D01*
X162409Y288132D01*
X162355Y288088D01*
X162267Y288044D01*
X162256D01*
X162234Y288033D01*
X162169Y287990D01*
X162071Y287935D01*
X161994Y287869D01*
X161983Y287859D01*
X161961Y287837D01*
X161928Y287782D01*
X161885Y287727D01*
X161830Y287640D01*
X161786Y287542D01*
X161732Y287421D01*
X161688Y287279D01*
X160999Y284918D01*
X160650Y285989D01*
X160999Y287421D01*
Y287432D01*
X161010Y287443D01*
X161021Y287509D01*
X161032Y287596D01*
X161043Y287662D01*
Y287684D01*
X161032Y287727D01*
X161021Y287782D01*
X160977Y287848D01*
X160967Y287859D01*
X160923Y287902D01*
X160857Y287946D01*
X160748Y288012D01*
X160726Y288022D01*
X160671Y288055D01*
X160606Y288099D01*
X160551Y288154D01*
X160540Y288164D01*
X160529Y288208D01*
X160508Y288274D01*
X160497Y288361D01*
Y288372D01*
Y288394D01*
X160508Y288460D01*
X160540Y288536D01*
X160606Y288613D01*
X160628Y288624D01*
X160682Y288656D01*
X160781Y288689D01*
X160923Y288700D01*
X162125D01*
X162180Y288689D01*
D02*
G37*
G36*
X160923Y284252D02*
X160354Y282000D01*
X159152D01*
X158026Y286285D01*
X158606Y288700D01*
X159753D01*
X160923Y284252D01*
D02*
G37*
G36*
X157480Y288689D02*
X157600Y288656D01*
X157655Y288634D01*
X157709Y288602D01*
X157720D01*
X157731Y288591D01*
X157775Y288536D01*
X157819Y288460D01*
X157841Y288405D01*
Y288339D01*
Y288329D01*
Y288307D01*
X157830Y288274D01*
X157808Y288230D01*
X157786Y288176D01*
X157742Y288121D01*
X157688Y288066D01*
X157611Y288012D01*
X157589Y288001D01*
X157545Y287979D01*
X157502Y287935D01*
X157469Y287902D01*
Y287891D01*
X157458Y287880D01*
X157447Y287848D01*
Y287793D01*
Y287782D01*
Y287771D01*
Y287716D01*
X158343Y284394D01*
X157742Y282000D01*
X156551D01*
X154999Y287662D01*
Y287673D01*
X154988Y287695D01*
X154977Y287760D01*
X154944Y287826D01*
X154933Y287859D01*
X154922Y287880D01*
X154911Y287891D01*
X154900Y287913D01*
X154868Y287946D01*
X154813Y287968D01*
X154802D01*
X154769Y287990D01*
X154736Y288012D01*
X154693Y288044D01*
X154638Y288099D01*
X154605Y288154D01*
X154572Y288219D01*
X154562Y288307D01*
Y288317D01*
Y288339D01*
X154572Y288372D01*
X154584Y288416D01*
X154627Y288514D01*
X154660Y288558D01*
X154715Y288602D01*
X154726D01*
X154747Y288613D01*
X154780Y288634D01*
X154824Y288656D01*
X154879Y288667D01*
X154944Y288689D01*
X155108Y288700D01*
X157425D01*
X157480Y288689D01*
D02*
G37*
G36*
X145413D02*
X145501D01*
X145577Y288678D01*
X145610D01*
X145643Y288667D01*
X145686Y288656D01*
X145741Y288645D01*
X145818Y288634D01*
X145971Y288580D01*
X146167Y288514D01*
X146375Y288416D01*
X146594Y288296D01*
X146812Y288143D01*
X146823D01*
X146834Y288121D01*
X146867Y288099D01*
X146911Y288055D01*
X147009Y287957D01*
X147140Y287826D01*
X147282Y287651D01*
X147424Y287454D01*
X147555Y287225D01*
X147676Y286973D01*
Y286962D01*
X147687Y286940D01*
X147708Y286897D01*
X147719Y286842D01*
X147741Y286776D01*
X147774Y286700D01*
X147796Y286601D01*
X147829Y286503D01*
X147872Y286263D01*
X147927Y285989D01*
X147960Y285683D01*
X147971Y285366D01*
Y285355D01*
Y285323D01*
Y285268D01*
Y285203D01*
X147960Y285115D01*
X147949Y285017D01*
X147938Y284896D01*
X147927Y284776D01*
X147883Y284503D01*
X147818Y284208D01*
X147719Y283902D01*
X147599Y283596D01*
Y283585D01*
X147577Y283563D01*
X147555Y283519D01*
X147534Y283465D01*
X147490Y283399D01*
X147446Y283323D01*
X147326Y283148D01*
X147173Y282951D01*
X146998Y282754D01*
X146779Y282557D01*
X146539Y282372D01*
X146528Y282361D01*
X146484Y282339D01*
X146419Y282295D01*
X146331Y282251D01*
X146233Y282208D01*
X146124Y282153D01*
X146014Y282109D01*
X145905Y282077D01*
X145894D01*
X145850Y282066D01*
X145785Y282055D01*
X145686Y282044D01*
X145566Y282022D01*
X145413Y282011D01*
X145238Y282000D01*
X145042D01*
Y282678D01*
X145053D01*
X145085Y282689D01*
X145129Y282699D01*
X145184Y282721D01*
X145282Y282754D01*
X145326Y282776D01*
X145359Y282787D01*
X145370Y282798D01*
X145391Y282809D01*
X145424Y282831D01*
X145457Y282863D01*
Y282874D01*
X145468Y282885D01*
X145501Y282940D01*
X145533Y283016D01*
X145555Y283093D01*
Y283104D01*
X145566Y283115D01*
Y283148D01*
X145577Y283180D01*
Y283235D01*
X145588Y283301D01*
Y283366D01*
Y283454D01*
Y287214D01*
Y287225D01*
Y287268D01*
Y287323D01*
X145577Y287399D01*
X145544Y287574D01*
X145522Y287651D01*
X145490Y287727D01*
X145479Y287749D01*
X145457Y287793D01*
X145413Y287837D01*
X145359Y287880D01*
X145348Y287891D01*
X145326Y287902D01*
X145293Y287913D01*
X145249Y287935D01*
X145195Y287946D01*
X145129Y287968D01*
X145042Y287990D01*
Y288700D01*
X145238D01*
X145413Y288689D01*
D02*
G37*
G36*
X144834Y282000D02*
X142396D01*
X142353Y282011D01*
X142244Y282033D01*
X142145Y282077D01*
X142123Y282098D01*
X142090Y282142D01*
X142047Y282229D01*
X142036Y282273D01*
X142025Y282339D01*
Y282350D01*
Y282383D01*
X142036Y282426D01*
X142058Y282481D01*
X142090Y282536D01*
X142134Y282601D01*
X142189Y282645D01*
X142276Y282689D01*
X142287D01*
X142298Y282699D01*
X142353Y282721D01*
X142396Y282732D01*
X142418Y282743D01*
X142429D01*
X142440Y282754D01*
X142462Y282776D01*
X142473Y282787D01*
X142484Y282820D01*
X142495Y282874D01*
X142506Y282962D01*
Y287727D01*
Y287738D01*
Y287749D01*
Y287804D01*
X142484Y287859D01*
X142462Y287913D01*
X142451Y287924D01*
X142429Y287935D01*
X142407Y287946D01*
X142364Y287968D01*
X142320Y287979D01*
X142276Y288001D01*
X142265D01*
X142233Y288022D01*
X142200Y288044D01*
X142156Y288077D01*
X142101Y288121D01*
X142069Y288176D01*
X142036Y288252D01*
X142025Y288350D01*
Y288361D01*
Y288383D01*
X142036Y288449D01*
X142079Y288525D01*
X142101Y288569D01*
X142145Y288602D01*
X142156D01*
X142167Y288613D01*
X142233Y288656D01*
X142331Y288689D01*
X142473Y288700D01*
X144834D01*
Y282000D01*
D02*
G37*
G36*
X138943Y288689D02*
X139030D01*
X139107Y288678D01*
X139139D01*
X139172Y288667D01*
X139216Y288656D01*
X139270Y288645D01*
X139347Y288634D01*
X139500Y288580D01*
X139697Y288514D01*
X139904Y288416D01*
X140123Y288296D01*
X140342Y288143D01*
X140353D01*
X140364Y288121D01*
X140396Y288099D01*
X140440Y288055D01*
X140538Y287957D01*
X140670Y287826D01*
X140812Y287651D01*
X140954Y287454D01*
X141085Y287225D01*
X141205Y286973D01*
Y286962D01*
X141216Y286940D01*
X141238Y286897D01*
X141249Y286842D01*
X141271Y286776D01*
X141304Y286700D01*
X141325Y286601D01*
X141358Y286503D01*
X141402Y286263D01*
X141456Y285989D01*
X141489Y285683D01*
X141500Y285366D01*
Y285355D01*
Y285323D01*
Y285268D01*
Y285203D01*
X141489Y285115D01*
X141478Y285017D01*
X141467Y284896D01*
X141456Y284776D01*
X141413Y284503D01*
X141347Y284208D01*
X141249Y283902D01*
X141129Y283596D01*
Y283585D01*
X141107Y283563D01*
X141085Y283519D01*
X141063Y283465D01*
X141019Y283399D01*
X140976Y283323D01*
X140855Y283148D01*
X140702Y282951D01*
X140527Y282754D01*
X140309Y282557D01*
X140068Y282372D01*
X140058Y282361D01*
X140014Y282339D01*
X139948Y282295D01*
X139861Y282251D01*
X139762Y282208D01*
X139653Y282153D01*
X139544Y282109D01*
X139435Y282077D01*
X139424D01*
X139380Y282066D01*
X139314Y282055D01*
X139216Y282044D01*
X139096Y282022D01*
X138943Y282011D01*
X138768Y282000D01*
X138571Y282000D01*
Y282678D01*
X138582D01*
X138615Y282689D01*
X138658Y282699D01*
X138713Y282721D01*
X138812Y282754D01*
X138855Y282776D01*
X138888Y282787D01*
X138899Y282798D01*
X138921Y282809D01*
X138954Y282831D01*
X138986Y282863D01*
Y282874D01*
X138997Y282885D01*
X139030Y282940D01*
X139063Y283016D01*
X139085Y283093D01*
Y283104D01*
X139096Y283115D01*
Y283148D01*
X139107Y283180D01*
Y283235D01*
X139118Y283301D01*
Y283366D01*
Y283454D01*
Y287214D01*
Y287225D01*
Y287268D01*
Y287323D01*
X139107Y287399D01*
X139074Y287574D01*
X139052Y287651D01*
X139019Y287727D01*
X139008Y287749D01*
X138986Y287793D01*
X138943Y287837D01*
X138888Y287880D01*
X138877Y287891D01*
X138855Y287902D01*
X138822Y287913D01*
X138779Y287935D01*
X138724Y287946D01*
X138658Y287968D01*
X138571Y287990D01*
Y288700D01*
X138768Y288700D01*
X138943Y288689D01*
D02*
G37*
G36*
X138363Y282000D02*
X135926D01*
X135882Y282011D01*
X135773Y282033D01*
X135675Y282077D01*
X135653Y282098D01*
X135620Y282142D01*
X135576Y282229D01*
X135565Y282273D01*
X135554Y282339D01*
Y282350D01*
Y282382D01*
X135565Y282426D01*
X135587Y282481D01*
X135620Y282536D01*
X135664Y282601D01*
X135718Y282645D01*
X135806Y282689D01*
X135817D01*
X135828Y282699D01*
X135882Y282721D01*
X135926Y282732D01*
X135948Y282743D01*
X135959D01*
X135970Y282754D01*
X135992Y282776D01*
X136003Y282787D01*
X136013Y282820D01*
X136024Y282874D01*
X136035Y282962D01*
Y287727D01*
Y287738D01*
Y287749D01*
Y287804D01*
X136013Y287859D01*
X135992Y287913D01*
X135981Y287924D01*
X135959Y287935D01*
X135937Y287946D01*
X135893Y287968D01*
X135849Y287979D01*
X135806Y288001D01*
X135795D01*
X135762Y288022D01*
X135729Y288044D01*
X135686Y288077D01*
X135631Y288121D01*
X135598Y288176D01*
X135565Y288252D01*
X135554Y288350D01*
Y288361D01*
Y288383D01*
X135565Y288449D01*
X135609Y288525D01*
X135631Y288569D01*
X135675Y288602D01*
X135686D01*
X135696Y288613D01*
X135762Y288656D01*
X135860Y288689D01*
X136003Y288700D01*
X138363D01*
Y282000D01*
D02*
G37*
G36*
X134735Y282951D02*
X134746Y282940D01*
X134756Y282907D01*
X134789Y282842D01*
X134822Y282754D01*
X134844Y282732D01*
X134866Y282710D01*
X134920Y282689D01*
X134931D01*
X134953Y282678D01*
X135019Y282645D01*
X135095Y282590D01*
X135161Y282536D01*
X135172Y282525D01*
X135205Y282492D01*
X135226Y282426D01*
X135237Y282339D01*
Y282328D01*
X135226Y282284D01*
X135215Y282229D01*
X135172Y282175D01*
X135117Y282109D01*
X135030Y282055D01*
X134909Y282011D01*
X134833Y282000D01*
X132308D01*
X132275Y282011D01*
X132177Y282033D01*
X132079Y282087D01*
X132057Y282109D01*
X132024Y282153D01*
X131991Y282241D01*
X131969Y282350D01*
Y282361D01*
Y282372D01*
X131980Y282415D01*
X131991Y282481D01*
X132013Y282536D01*
X132024Y282546D01*
X132057Y282579D01*
X132111Y282623D01*
X132199Y282678D01*
X132210Y282689D01*
X132243Y282710D01*
X132286Y282743D01*
X132308Y282765D01*
X132319Y282776D01*
X132330Y282787D01*
X132341Y282820D01*
Y282853D01*
Y282863D01*
Y282885D01*
Y282918D01*
X132330Y282951D01*
X132188Y283596D01*
X130843D01*
X130997Y284361D01*
X132035D01*
X131160Y288132D01*
X131303Y288700D01*
X133390D01*
X134735Y282951D01*
D02*
G37*
G36*
X131401Y286394D02*
X130559Y283290D01*
Y283268D01*
X130548Y283224D01*
X130537Y283148D01*
X130526Y283071D01*
Y283060D01*
Y283027D01*
X130537Y282995D01*
X130548Y282940D01*
X130581Y282885D01*
X130614Y282831D01*
X130669Y282776D01*
X130734Y282732D01*
X130898Y282656D01*
X130909D01*
X130931Y282634D01*
X131018Y282579D01*
X131051Y282536D01*
X131095Y282481D01*
X131117Y282404D01*
X131128Y282328D01*
Y282317D01*
X131117Y282273D01*
X131106Y282229D01*
X131073Y282164D01*
X131018Y282109D01*
X130931Y282055D01*
X130822Y282011D01*
X130669Y282000D01*
X129379D01*
X129335Y282011D01*
X129226Y282033D01*
X129117Y282087D01*
X129095Y282109D01*
X129051Y282164D01*
X129007Y282251D01*
X128996Y282306D01*
X128985Y282372D01*
Y282382D01*
Y282404D01*
X128996Y282437D01*
X129018Y282481D01*
X129051Y282536D01*
X129095Y282590D01*
X129160Y282645D01*
X129248Y282689D01*
X129259D01*
X129280Y282699D01*
X129346Y282732D01*
X129434Y282776D01*
X129510Y282831D01*
X129521Y282842D01*
X129565Y282874D01*
X129608Y282918D01*
X129663Y282984D01*
X129674Y282995D01*
X129685Y283016D01*
X129707Y283060D01*
X129740Y283126D01*
X129772Y283191D01*
X129816Y283279D01*
X129849Y283377D01*
X129882Y283487D01*
X131062Y287487D01*
X131401Y286394D01*
D02*
G37*
G36*
X128220Y288678D02*
X128308Y288656D01*
X128384Y288613D01*
X128461Y288558D01*
X128515Y288471D01*
X128537Y288416D01*
Y288350D01*
Y288339D01*
Y288307D01*
X128526Y288263D01*
X128505Y288208D01*
X128472Y288154D01*
X128417Y288088D01*
X128351Y288044D01*
X128264Y288001D01*
X128253D01*
X128242Y287990D01*
X128188Y287968D01*
X128144Y287946D01*
X128122D01*
X128111Y287935D01*
X128100D01*
X128089Y287913D01*
Y287902D01*
X128078Y287869D01*
X128067Y287815D01*
X128056Y287727D01*
Y282984D01*
Y282973D01*
Y282951D01*
X128067Y282874D01*
X128089Y282798D01*
X128100Y282776D01*
X128122Y282754D01*
X128297Y282689D01*
X128308D01*
X128330Y282678D01*
X128373Y282656D01*
X128417Y282623D01*
X128461Y282568D01*
X128505Y282514D01*
X128526Y282437D01*
X128537Y282350D01*
Y282339D01*
X128526Y282295D01*
X128515Y282241D01*
X128483Y282175D01*
X128428Y282109D01*
X128340Y282055D01*
X128220Y282011D01*
X128155Y282000D01*
X125663D01*
X125619Y282011D01*
X125553Y282022D01*
X125477Y282044D01*
X125389Y282087D01*
X125324Y282153D01*
X125280Y282229D01*
X125258Y282350D01*
Y282361D01*
Y282394D01*
X125269Y282437D01*
X125291Y282492D01*
X125313Y282546D01*
X125357Y282612D01*
X125422Y282656D01*
X125499Y282699D01*
X125684Y282754D01*
X125696Y282765D01*
X125706Y282787D01*
X125717Y282820D01*
Y282863D01*
X125728Y282918D01*
Y282984D01*
Y285093D01*
X124952D01*
Y285760D01*
X125728D01*
Y287727D01*
Y287738D01*
Y287760D01*
Y287826D01*
X125706Y287902D01*
X125696Y287935D01*
X125684Y287946D01*
X125499Y288001D01*
X125488D01*
X125466Y288022D01*
X125422Y288044D01*
X125379Y288077D01*
X125335Y288121D01*
X125291Y288176D01*
X125269Y288252D01*
X125258Y288350D01*
Y288361D01*
X125269Y288405D01*
X125280Y288460D01*
X125313Y288525D01*
X125368Y288591D01*
X125444Y288645D01*
X125553Y288689D01*
X125696Y288700D01*
X128144D01*
X128220Y288678D01*
D02*
G37*
G36*
X124908D02*
X124996Y288656D01*
X125083Y288613D01*
X125149Y288558D01*
X125204Y288471D01*
X125225Y288350D01*
Y288339D01*
Y288307D01*
X125215Y288263D01*
X125193Y288208D01*
X125160Y288143D01*
X125116Y288088D01*
X125051Y288033D01*
X124963Y288001D01*
X124843Y287957D01*
X124832Y287946D01*
X124799Y287913D01*
X124788Y287891D01*
X124766Y287848D01*
X124756Y287793D01*
Y287727D01*
Y282962D01*
Y282951D01*
Y282929D01*
X124766Y282853D01*
X124788Y282776D01*
X124810Y282754D01*
X124832Y282732D01*
X124963Y282689D01*
X124974D01*
X125007Y282678D01*
X125051Y282645D01*
X125094Y282612D01*
X125138Y282568D01*
X125182Y282514D01*
X125215Y282437D01*
X125225Y282339D01*
Y282328D01*
X125215Y282284D01*
X125204Y282229D01*
X125171Y282175D01*
X125116Y282109D01*
X125029Y282055D01*
X124919Y282011D01*
X124766Y282000D01*
X122318D01*
X122274Y282011D01*
X122165Y282033D01*
X122067Y282077D01*
X122045Y282098D01*
X122012Y282142D01*
X121968Y282229D01*
X121957Y282273D01*
X121947Y282339D01*
Y282350D01*
Y282382D01*
X121957Y282426D01*
X121979Y282481D01*
X122012Y282536D01*
X122056Y282601D01*
X122110Y282645D01*
X122198Y282689D01*
X122209D01*
X122220Y282699D01*
X122274Y282721D01*
X122318Y282732D01*
X122340Y282743D01*
X122351D01*
X122362Y282754D01*
X122384Y282776D01*
X122395Y282787D01*
X122406Y282820D01*
X122416Y282874D01*
X122427Y282962D01*
Y287727D01*
Y287738D01*
Y287749D01*
Y287804D01*
X122406Y287859D01*
X122384Y287913D01*
X122373Y287924D01*
X122351Y287935D01*
X122329Y287946D01*
X122285Y287968D01*
X122242Y287979D01*
X122198Y288001D01*
X122187D01*
X122154Y288022D01*
X122121Y288044D01*
X122078Y288077D01*
X122023Y288121D01*
X121990Y288176D01*
X121957Y288252D01*
X121947Y288350D01*
Y288361D01*
Y288383D01*
X121957Y288449D01*
X122001Y288525D01*
X122023Y288569D01*
X122067Y288602D01*
X122078D01*
X122089Y288613D01*
X122154Y288656D01*
X122253Y288689D01*
X122395Y288700D01*
X124843D01*
X124908Y288678D01*
D02*
G37*
G36*
X113968Y282995D02*
Y282984D01*
Y282973D01*
Y282918D01*
X113979Y282853D01*
Y282831D01*
X113989Y282820D01*
X114000Y282809D01*
X114011Y282787D01*
X114033Y282765D01*
X114055Y282754D01*
X114066D01*
X114077Y282743D01*
X114121Y282732D01*
X114197Y282710D01*
X114208D01*
X114252Y282699D01*
X114306Y282667D01*
X114383Y282634D01*
X114448Y282590D01*
X114503Y282525D01*
X114547Y282448D01*
X114558Y282350D01*
Y282339D01*
Y282317D01*
X114536Y282251D01*
X114514Y282208D01*
X114481Y282153D01*
X114438Y282109D01*
X114372Y282066D01*
X114350Y282055D01*
X114328Y282044D01*
X114285Y282033D01*
X114241Y282022D01*
X114175Y282011D01*
X114099Y282000D01*
X111486D01*
X111432Y282011D01*
X111312Y282033D01*
X111191Y282077D01*
X111180D01*
X111170Y282098D01*
X111126Y282142D01*
X111071Y282229D01*
X111060Y282284D01*
X111049Y282350D01*
Y282361D01*
Y282394D01*
X111060Y282448D01*
X111082Y282503D01*
X111115Y282557D01*
X111170Y282623D01*
X111235Y282667D01*
X111334Y282699D01*
X111344D01*
X111366Y282710D01*
X111432Y282732D01*
X111508Y282743D01*
X111530Y282754D01*
X111541D01*
X111552Y282765D01*
X111585Y282787D01*
X111596Y282798D01*
X111618Y282842D01*
X111629Y282907D01*
X111639Y282995D01*
Y288700D01*
X113968D01*
Y282995D01*
D02*
G37*
G36*
X151501Y288809D02*
X151621Y288798D01*
X151763Y288788D01*
X151938Y288755D01*
X152113Y288722D01*
X152299Y288667D01*
X152474Y288602D01*
X152496Y288591D01*
X152550Y288569D01*
X152638Y288525D01*
X152747Y288460D01*
X152867Y288383D01*
X153009Y288285D01*
X153152Y288176D01*
X153294Y288044D01*
X153305Y288033D01*
X153337Y288001D01*
X153392Y287946D01*
X153458Y287869D01*
X153534Y287760D01*
X153611Y287640D01*
X153709Y287498D01*
X153807Y287334D01*
X153895Y287159D01*
X153993Y286951D01*
X154070Y286733D01*
X154157Y286481D01*
X154212Y286230D01*
X154267Y285946D01*
X154299Y285651D01*
X154310Y285334D01*
Y285312D01*
Y285257D01*
X154299Y285170D01*
Y285060D01*
X154277Y284918D01*
X154256Y284754D01*
X154234Y284569D01*
X154190Y284372D01*
X154135Y284164D01*
X154070Y283946D01*
X153993Y283727D01*
X153895Y283508D01*
X153786Y283290D01*
X153654Y283082D01*
X153512Y282874D01*
X153337Y282689D01*
X153326Y282678D01*
X153305Y282656D01*
X153261Y282623D01*
X153206Y282568D01*
X153130Y282514D01*
X153042Y282448D01*
X152933Y282383D01*
X152824Y282317D01*
X152693Y282241D01*
X152540Y282175D01*
X152386Y282098D01*
X152212Y282044D01*
X152026Y281978D01*
X151829Y281934D01*
X151611Y281902D01*
X151392Y281880D01*
Y282568D01*
X151403D01*
X151425Y282579D01*
X151490Y282590D01*
X151567Y282623D01*
X151600Y282634D01*
X151621Y282645D01*
X151632Y282656D01*
X151654Y282667D01*
X151687Y282699D01*
X151720Y282743D01*
X151731Y282754D01*
X151742Y282776D01*
X151763Y282820D01*
X151785Y282874D01*
X151807Y282951D01*
X151818Y283038D01*
X151840Y283148D01*
Y283279D01*
Y287542D01*
Y287552D01*
Y287574D01*
Y287618D01*
X151829Y287673D01*
X151807Y287782D01*
X151763Y287891D01*
X151753Y287902D01*
X151731Y287946D01*
X151698Y287979D01*
X151654Y288022D01*
X151643Y288033D01*
X151600Y288055D01*
X151512Y288088D01*
X151458Y288121D01*
X151392Y288143D01*
Y288820D01*
X151458D01*
X151501Y288809D01*
D02*
G37*
G36*
X151206Y288143D02*
X151195D01*
X151162Y288121D01*
X151108Y288110D01*
X151053Y288077D01*
X150933Y288012D01*
X150878Y287968D01*
X150845Y287924D01*
X150835Y287902D01*
X150824Y287869D01*
X150813Y287837D01*
X150791Y287782D01*
X150780Y287716D01*
X150769Y287629D01*
Y287542D01*
Y283279D01*
Y283257D01*
Y283213D01*
Y283148D01*
X150780Y283071D01*
X150802Y282896D01*
X150824Y282820D01*
X150856Y282754D01*
X150878Y282732D01*
X150900Y282711D01*
X150933Y282689D01*
X150977Y282656D01*
X151031Y282623D01*
X151108Y282590D01*
X151206Y282557D01*
Y281880D01*
X151195D01*
X151151Y281891D01*
X151086D01*
X151009Y281902D01*
X150900Y281924D01*
X150780Y281945D01*
X150649Y281978D01*
X150507Y282011D01*
X150200Y282120D01*
X150037Y282186D01*
X149873Y282262D01*
X149709Y282350D01*
X149545Y282448D01*
X149392Y282557D01*
X149250Y282689D01*
X149239Y282699D01*
X149206Y282732D01*
X149162Y282787D01*
X149097Y282863D01*
X149031Y282962D01*
X148954Y283082D01*
X148867Y283213D01*
X148780Y283377D01*
X148681Y283552D01*
X148605Y283749D01*
X148517Y283967D01*
X148452Y284208D01*
X148386Y284459D01*
X148342Y284733D01*
X148310Y285028D01*
X148299Y285334D01*
Y285345D01*
Y285377D01*
Y285421D01*
Y285476D01*
X148310Y285552D01*
Y285640D01*
X148321Y285738D01*
X148331Y285847D01*
X148353Y286077D01*
X148397Y286339D01*
X148463Y286601D01*
X148539Y286864D01*
Y286875D01*
X148550Y286897D01*
X148561Y286929D01*
X148583Y286984D01*
X148616Y287039D01*
X148649Y287104D01*
X148725Y287268D01*
X148834Y287454D01*
X148966Y287651D01*
X149118Y287848D01*
X149293Y288044D01*
X149315Y288066D01*
X149359Y288110D01*
X149435Y288176D01*
X149545Y288252D01*
X149665Y288339D01*
X149796Y288438D01*
X149949Y288525D01*
X150113Y288602D01*
X150135Y288613D01*
X150190Y288634D01*
X150288Y288667D01*
X150419Y288700D01*
X150572Y288744D01*
X150758Y288777D01*
X150977Y288809D01*
X151206Y288820D01*
Y288143D01*
D02*
G37*
G36*
X117553Y283913D02*
X117651Y283891D01*
X117771Y283847D01*
X117892Y283792D01*
X118012Y283716D01*
X118132Y283618D01*
X118143Y283607D01*
X118176Y283563D01*
X118230Y283497D01*
X118285Y283410D01*
X118340Y283312D01*
X118394Y283180D01*
X118427Y283049D01*
X118438Y282896D01*
Y282874D01*
Y282831D01*
X118427Y282743D01*
X118405Y282645D01*
X118361Y282536D01*
X118307Y282404D01*
X118230Y282284D01*
X118132Y282164D01*
X118121Y282153D01*
X118077Y282120D01*
X118012Y282066D01*
X117924Y282022D01*
X117815Y281967D01*
X117695Y281913D01*
X117553Y281880D01*
X117400Y281869D01*
X117323D01*
X117247Y281880D01*
X117148Y281902D01*
X117028Y281945D01*
X116908Y281989D01*
X116788Y282066D01*
X116667Y282164D01*
X116656Y282175D01*
X116624Y282219D01*
X116569Y282284D01*
X116525Y282372D01*
X116471Y282470D01*
X116416Y282601D01*
X116383Y282743D01*
X116372Y282896D01*
Y282918D01*
Y282962D01*
X116383Y283049D01*
X116405Y283148D01*
X116449Y283257D01*
X116492Y283377D01*
X116569Y283497D01*
X116667Y283618D01*
X116678Y283629D01*
X116722Y283661D01*
X116788Y283716D01*
X116875Y283771D01*
X116984Y283825D01*
X117104Y283880D01*
X117247Y283913D01*
X117400Y283924D01*
X117476D01*
X117553Y283913D01*
D02*
G37*
%LPC*%
G36*
X194926Y311423D02*
X186180D01*
Y311150D01*
X186453D01*
Y310877D01*
X186180D01*
Y310603D01*
Y310330D01*
Y310057D01*
Y309783D01*
Y309510D01*
Y309237D01*
Y308963D01*
Y308690D01*
Y308417D01*
Y308143D01*
Y307870D01*
Y307597D01*
Y307323D01*
Y307050D01*
Y306777D01*
Y306503D01*
Y306230D01*
Y305957D01*
X186453D01*
Y305683D01*
X186726D01*
Y305410D01*
X187000D01*
Y305137D01*
X194926D01*
Y305410D01*
Y305683D01*
X195200D01*
Y305957D01*
X195473D01*
Y306230D01*
Y306503D01*
Y306777D01*
Y307050D01*
Y307323D01*
Y307597D01*
Y307870D01*
Y308143D01*
Y308417D01*
Y308690D01*
Y308963D01*
Y309237D01*
Y309510D01*
Y309783D01*
Y310057D01*
Y310330D01*
Y310603D01*
X195200D01*
Y310877D01*
X194926D01*
Y311150D01*
Y311423D01*
D02*
G37*
G36*
X174153Y312517D02*
X173880D01*
Y312243D01*
X174153D01*
Y312517D01*
D02*
G37*
G36*
X111560Y305957D02*
X111287D01*
Y305683D01*
X111560D01*
Y305957D01*
D02*
G37*
G36*
X156933Y312517D02*
X156660D01*
Y312243D01*
X156933D01*
Y312517D01*
D02*
G37*
G36*
X154747Y308143D02*
X154473D01*
Y307870D01*
X154747D01*
Y308143D01*
D02*
G37*
G36*
X169506Y311423D02*
X161580D01*
Y311150D01*
X161307D01*
Y310877D01*
X161033D01*
Y310603D01*
X160760D01*
Y310330D01*
Y310057D01*
Y309783D01*
Y309510D01*
Y309237D01*
Y308963D01*
Y308690D01*
Y308417D01*
Y308143D01*
Y307870D01*
Y307597D01*
Y307323D01*
Y307050D01*
Y306777D01*
Y306503D01*
Y306230D01*
Y305957D01*
Y305683D01*
Y305410D01*
Y305137D01*
X161033D01*
Y304863D01*
X161307D01*
Y305137D01*
X169233D01*
Y305410D01*
X170053D01*
Y305683D01*
Y305957D01*
Y306230D01*
Y306503D01*
Y306777D01*
Y307050D01*
Y307323D01*
Y307597D01*
Y307870D01*
Y308143D01*
Y308417D01*
Y308690D01*
Y308963D01*
Y309237D01*
Y309510D01*
Y309783D01*
Y310057D01*
Y310330D01*
Y310603D01*
Y310877D01*
X169780D01*
Y311150D01*
X169506D01*
Y311423D01*
D02*
G37*
%LPD*%
D10*
X98675Y174492D02*
G03*
X98675Y174492I-494J0D01*
G01*
X100312Y125768D02*
G03*
X100312Y125768I-494J0D01*
G01*
X187647Y151272D02*
G03*
X187647Y151272I-494J0D01*
G01*
X391001Y257181D02*
G03*
X391001Y257181I-494J0D01*
G01*
X93764Y164205D02*
Y278378D01*
X43764D02*
X93764D01*
X43764Y164205D02*
Y278378D01*
Y164205D02*
X93764D01*
X104236Y21882D02*
Y136055D01*
Y21882D02*
X154236D01*
Y136055D01*
X104236D02*
X154236D01*
X182736Y140984D02*
Y255157D01*
X132736D02*
X182736D01*
X132736Y140984D02*
Y255157D01*
Y140984D02*
X182736D01*
X286622Y252764D02*
X400795D01*
X286622Y202764D02*
Y252764D01*
Y202764D02*
X400795D01*
Y252764D01*
X168000Y63502D02*
Y67437D01*
X169968D01*
X170624Y66781D01*
Y65469D01*
X169968Y64813D01*
X168000D01*
X169312D02*
X170624Y63502D01*
X171936Y64157D02*
X172592Y63502D01*
X173904D01*
X174560Y64157D01*
Y66781D01*
X173904Y67437D01*
X172592D01*
X171936Y66781D01*
Y66125D01*
X172592Y65469D01*
X174560D01*
X271500Y67501D02*
Y71437D01*
X273468D01*
X274124Y70781D01*
Y69469D01*
X273468Y68813D01*
X271500D01*
X272812D02*
X274124Y67501D01*
X278060D02*
X275436D01*
X278060Y70125D01*
Y70781D01*
X277404Y71437D01*
X276092D01*
X275436Y70781D01*
X225500Y67001D02*
Y70937D01*
X227468D01*
X228124Y70281D01*
Y68969D01*
X227468Y68313D01*
X225500D01*
X226812D02*
X228124Y67001D01*
X229436D02*
X230748D01*
X230092D01*
Y70937D01*
X229436Y70281D01*
X260260Y321501D02*
Y325437D01*
X262228D01*
X262884Y324781D01*
Y323469D01*
X262228Y322813D01*
X260260D01*
X264196Y324781D02*
X264851Y325437D01*
X266163D01*
X266819Y324781D01*
Y324125D01*
X266163Y323469D01*
X265508D01*
X266163D01*
X266819Y322813D01*
Y322158D01*
X266163Y321501D01*
X264851D01*
X264196Y322158D01*
X42800Y150900D02*
Y154836D01*
X44768D01*
X45424Y154180D01*
Y152868D01*
X44768Y152212D01*
X42800D01*
X49360Y150900D02*
X46736D01*
X49360Y153524D01*
Y154180D01*
X48704Y154836D01*
X47392D01*
X46736Y154180D01*
X45900Y47100D02*
Y51036D01*
X47868D01*
X48524Y50380D01*
Y49068D01*
X47868Y48412D01*
X45900D01*
X49836Y47100D02*
X51148D01*
X50492D01*
Y51036D01*
X49836Y50380D01*
X95600Y134536D02*
Y130600D01*
Y131912D01*
X98224Y134536D01*
X96256Y132568D01*
X98224Y130600D01*
X101504D02*
Y134536D01*
X99536Y132568D01*
X102160D01*
X34000Y275437D02*
Y271501D01*
Y272813D01*
X36624Y275437D01*
X34656Y273469D01*
X36624Y271501D01*
X37936Y274781D02*
X38592Y275437D01*
X39904D01*
X40560Y274781D01*
Y274125D01*
X39904Y273469D01*
X39248D01*
X39904D01*
X40560Y272813D01*
Y272158D01*
X39904Y271501D01*
X38592D01*
X37936Y272158D01*
X288000Y259437D02*
Y255502D01*
Y256813D01*
X290624Y259437D01*
X288656Y257469D01*
X290624Y255502D01*
X294560D02*
X291936D01*
X294560Y258125D01*
Y258781D01*
X293904Y259437D01*
X292592D01*
X291936Y258781D01*
X124000Y253437D02*
Y249501D01*
Y250813D01*
X126624Y253437D01*
X124656Y251469D01*
X126624Y249501D01*
X127936D02*
X129248D01*
X128592D01*
Y253437D01*
X127936Y252781D01*
X168000Y91437D02*
Y87502D01*
X169968D01*
X170624Y88157D01*
Y90781D01*
X169968Y91437D01*
X168000D01*
X174560D02*
X173248Y90781D01*
X171936Y89469D01*
Y88157D01*
X172592Y87502D01*
X173904D01*
X174560Y88157D01*
Y88813D01*
X173904Y89469D01*
X171936D01*
X76300Y159236D02*
Y155300D01*
X78268D01*
X78924Y155956D01*
Y158580D01*
X78268Y159236D01*
X76300D01*
X82204Y155300D02*
Y159236D01*
X80236Y157268D01*
X82860D01*
X122000Y184465D02*
Y180529D01*
X123968D01*
X124624Y181185D01*
Y183809D01*
X123968Y184465D01*
X122000D01*
X125936Y180529D02*
X127248D01*
X126592D01*
Y184465D01*
X125936Y183809D01*
D11*
X269020Y328000D02*
Y342000D01*
X59520Y328000D02*
Y342000D01*
X269020D01*
X59520Y328000D02*
X269020D01*
X159244Y67000D02*
X164756D01*
X166216Y82961D02*
Y96740D01*
X156571D02*
X166216D01*
X156571Y82961D02*
Y96740D01*
X121177Y158776D02*
Y172555D01*
Y158776D02*
X130823D01*
Y172555D01*
X56311Y161823D02*
X70091D01*
X56311Y152177D02*
Y161823D01*
Y152177D02*
X70091D01*
D12*
X189000Y56826D02*
X202826Y43000D01*
X21500Y210000D02*
X134500D01*
X359000Y341000D02*
X359000Y110000D01*
X292000Y43000D02*
X359000Y110000D01*
X202826Y43000D02*
X292000D01*
X134500Y210000D02*
X189000Y155500D01*
Y56826D02*
Y155500D01*
D13*
X217000Y68800D02*
Y73490D01*
X214500Y71300D02*
X219500D01*
X238150Y91050D02*
Y286950D01*
X195850D02*
X238150D01*
X195850Y91050D02*
Y286950D01*
Y91050D02*
X238150D01*
X262500Y68300D02*
Y72990D01*
X260000Y70800D02*
X265000D01*
X283650Y90550D02*
Y286450D01*
X241350D02*
X283650D01*
X241350Y90550D02*
Y286450D01*
Y90550D02*
X283650D01*
D14*
X55020Y329500D02*
X56686D01*
X55853D01*
Y334498D01*
X55020Y333665D01*
D15*
X347248Y74560D02*
X345936Y75871D01*
X343312D01*
X342000Y74560D01*
Y69312D01*
X343312Y68000D01*
X345936D01*
X347248Y69312D01*
Y71936D01*
X344624D01*
X349871Y75871D02*
Y68000D01*
X355119D01*
X357743Y75871D02*
Y70624D01*
X360367Y68000D01*
X362991Y70624D01*
Y75871D01*
X316000Y102407D02*
X321248D01*
X318624D01*
Y94535D01*
X329119Y101095D02*
X327807Y102407D01*
X325183D01*
X323871Y101095D01*
Y99783D01*
X325183Y98471D01*
X327807D01*
X329119Y97159D01*
Y95847D01*
X327807Y94535D01*
X325183D01*
X323871Y95847D01*
M02*
