M48
;Layer_Color=9474304
;FILE_FORMAT=4:4
METRIC,LZ
;TYPE=PLATED
T1F00S00C0.4000
T2F00S00C1.1176
T3F00S00C1.3000
T4F00S00C1.6000
T5F00S00C1.8000
T6F00S00C3.1000
T7F00S00C4.0000
%
T01
X00127Y0018542
X0022352
X0033274Y001905
X0033782Y0014732
X0033274Y000889
X0031496Y0029718
X0029326Y003556
X00394557Y0037338
X0018288Y003683
X001778Y003937
X0012192Y0029718
X0041656Y0023876
X0042177Y0011938
X00816098Y0012258
X009017Y000889
X00981198Y001651
X0098044Y0057658
X0032512Y004445
X0028448Y0040329
X001778Y0042926
X00127Y0048006
T02
X0055118Y0019812
X0066675Y0019685
Y0076073
X0055118Y00762
T03
X0029076Y0008758
X0036576Y0012258
Y0032258
X0036315Y003811
X0029076Y0032258
X0043815Y003811
X0079502Y0054102
X0083002Y0061602
X0099502
Y0054102
X0076002Y0061602
X0043815Y006161
Y005461
X0036315Y005811
X0021216Y0067508
X0013716Y0064008
Y0044008
X0021216
T04
X0016642Y0084963
X0026642
X0036642
X0046642
X0056642
X0066642
T05
X0015682Y0015984
Y0020184
Y0024384
Y003092
Y003512
X0021182
Y003092
T06
X0008382Y0015984
Y0024384
Y003302
T07
X0009Y0009
X0098
X0009Y0084
X0098
M30
