999
DXF file: c-1558666-3-b-2d.dxf
999
Pro/ENGINEER 2016050 by Parametric Technology Corporation
  0
SECTION
  2
HEADER
  9
$ACADVER
  1
AC1014
  9
$DWGCODEPAGE
  3
ANSI_1252
  9
$EXTMAX
 10
420.0
 20
297.0
 30
0.0
  9
$EXTMIN
 10
0.0
 20
0.0
 30
0.0
  9
$LIMMIN
 10
0.0
 20
0.0
  9
$LIMMAX
 10
420.0
 20
297.0
  9
$VIEWCTR
 10
210.0
 20
148.5
  9
$VIEWSIZE
 40
297.0
  9
$CLAYER
  8
0
  9
$LTSCALE
 40
23.1
  9
$CELTYPE
  6
BYLAYER
  9
$DIMSCALE
 40
1.0
  9
$DIMASZ
 40
4.5
  9
$DIMEXO
 40
1.5
  9
$DIMDLI
 40
15.96
  9
$DIMEXE
 40
3.0
  9
$DIMCEN
 40
3.78
  9
$DIMLFAC
 40
0.5
  9
$DIMBLK
  1
_CLOSED
  9
$DIMALT
 70
0
  9
$DIMALTF
 40
0.0393700787
  9
$DIMTXT
 40
3.0
  9
$DIMTOL
 70
1
  9
$DIMLIM
 70
0
  9
$DIMTFAC
 40
1.0
  9
$DIMTP
 40
0.01
  9
$DIMTM
 40
0.01
  9
$DIMGAP
 40
0.625
  9
$AUNITS
 70
0
  9
$PDMODE
 70
3
  9
$PDSIZE
 40
0.3125
  9
$HANDSEED
  5
332
  9
$TILEMODE
 70
1
  9
$MEASUREMENT
 70
1
  0
ENDSEC
  0
SECTION
  2
CLASSES
  0
ENDSEC
  0
SECTION
  2
TABLES
  0
TABLE
  2
VPORT
  5
8
100
AcDbSymbolTable
 70
2
  0
VPORT
  5
1F4
100
AcDbSymbolTableRecord
100
AcDbViewportTableRecord
  2
*ACTIVE
 70
0
 10
0.0
 20
0.0
 11
1.0
 21
1.0
 12
210.0
 22
148.5
 13
0.0
 23
0.0
 14
1.0
 24
1.0
 15
0.0
 25
0.0
 16
0.0
 26
0.0
 36
1.0
 17
0.0
 27
0.0
 37
0.0
 40
297.0
 41
1.4141414141
 42
50.0
 43
0.0
 44
0.0
 50
0.0
 51
0.0
 71
0
 72
100
 73
1
 74
1
 75
0
 76
0
 77
0
 78
0
  0
ENDTAB
  0
TABLE
  2
LTYPE
  5
5
100
AcDbSymbolTable
 70
6
  0
LTYPE
  5
14
100
AcDbSymbolTableRecord
100
AcDbLinetypeTableRecord
  2
BYBLOCK
 70
0
  3

 72
65
 73
0
 40
0.0
  0
LTYPE
  5
15
100
AcDbSymbolTableRecord
100
AcDbLinetypeTableRecord
  2
BYLAYER
 70
0
  3

 72
65
 73
0
 40
0.0
  0
LTYPE
  5
16
100
AcDbSymbolTableRecord
100
AcDbLinetypeTableRecord
  2
CONTINUOUS
 70
64
  3
Solid line
 72
65
 73
0
 40
0.0
  0
LTYPE
  5
1F5
100
AcDbSymbolTableRecord
100
AcDbLinetypeTableRecord
  2
CENTER
 70
64
  3
____ _ ____ _ ____ _ ____ _ ____ _ ____ _ ____
 72
65
 73
4
 40
0.6
 49
0.375
 74
0
 49
-0.075
 74
0
 49
0.075
 74
0
 49
-0.075
 74
0
  0
LTYPE
  5
1F6
100
AcDbSymbolTableRecord
100
AcDbLinetypeTableRecord
  2
HIDDEN
 70
64
  3
- - - - - - - - - - - - - - - - - - - -
 72
65
 73
2
 40
0.2
 49
0.1
 74
0
 49
-0.1
 74
0
  0
LTYPE
  5
1F7
100
AcDbSymbolTableRecord
100
AcDbLinetypeTableRecord
  2
PHANTOM
 70
64
  3
_____ _ _ _____ _ _ _____ _ _ _____
 72
65
 73
6
 40
0.8
 49
0.45
 74
0
 49
-0.05
 74
0
 49
0.1
 74
0
 49
-0.05
 74
0
 49
0.1
 74
0
 49
-0.05
 74
0
  0
LTYPE
  5
1F8
100
AcDbSymbolTableRecord
100
AcDbLinetypeTableRecord
  2
DOT
 70
64
  3
. . . . . . . . . . . . . . . . . . . .
 72
65
 73
2
 40
0.2
 49
0.1
 74
0
 49
-0.1
 74
0
  0
LTYPE
  5
1F9
100
AcDbSymbolTableRecord
100
AcDbLinetypeTableRecord
  2
DASHED
 70
64
  3
- - - - - - - - - - - - - - - - - - - -
 72
65
 73
2
 40
0.2
 49
0.1
 74
0
 49
-0.1
 74
0
  0
ENDTAB
  0
TABLE
  2
LAYER
  5
2
100
AcDbSymbolTable
 70
36
  0
LAYER
  5
10
100
AcDbSymbolTableRecord
100
AcDbLayerTableRecord
  2
0
 70
0
 62
7
  6
CONTINUOUS
  0
LAYER
  5
1FA
100
AcDbSymbolTableRecord
100
AcDbLayerTableRecord
  2
DEFAULT_1
 70
0
 62
7
  6
CENTER
  0
LAYER
  5
1FB
100
AcDbSymbolTableRecord
100
AcDbLayerTableRecord
  2
DEFAULT_2
 70
0
 62
8
  6
HIDDEN
  0
LAYER
  5
1FC
100
AcDbSymbolTableRecord
100
AcDbLayerTableRecord
  2
DEFAULT_3
 70
0
 62
7
  6
PHANTOM
  0
LAYER
  5
1FD
100
AcDbSymbolTableRecord
100
AcDbLayerTableRecord
  2
DRAFT_ENTITY
 70
0
 62
7
  6
CONTINUOUS
  0
LAYER
  5
1FE
100
AcDbSymbolTableRecord
100
AcDbLayerTableRecord
  2
DRAFT_GEOM
 70
0
 62
7
  6
CONTINUOUS
  0
LAYER
  5
1FF
100
AcDbSymbolTableRecord
100
AcDbLayerTableRecord
  2
DRAFT_GRP
 70
0
 62
7
  6
CONTINUOUS
  0
LAYER
  5
200
100
AcDbSymbolTableRecord
100
AcDbLayerTableRecord
  2
DRAFT_OTHER
 70
0
 62
7
  6
CONTINUOUS
  0
LAYER
  5
201
100
AcDbSymbolTableRecord
100
AcDbLayerTableRecord
  2
DTM_ALL
 70
0
 62
7
  6
CONTINUOUS
  0
LAYER
  5
202
100
AcDbSymbolTableRecord
100
AcDbLayerTableRecord
  2
DTM_AXIS
 70
0
 62
7
  6
CONTINUOUS
  0
LAYER
  5
203
100
AcDbSymbolTableRecord
100
AcDbLayerTableRecord
  2
DTM_MAJOR
 70
0
 62
7
  6
CONTINUOUS
  0
LAYER
  5
204
100
AcDbSymbolTableRecord
100
AcDbLayerTableRecord
  2
NOTE
 70
0
 62
7
  6
CONTINUOUS
  0
ENDTAB
  0
TABLE
  2
STYLE
  5
3
100
AcDbSymbolTable
 70
1
  0
STYLE
  5
11
100
AcDbSymbolTableRecord
100
AcDbTextStyleTableRecord
  2
STANDARD
 70
0
 40
0.0
 41
0.95
 50
0.0
 71
0
 42
0.2
  3
txt
  4

  0
STYLE
  5
205
100
AcDbSymbolTableRecord
100
AcDbTextStyleTableRecord
  2
TEXTSTYLE_1
 70
0
 40
0.0
 41
0.8
 50
0.0
 71
0
 42
0.2
  3
gdt
  4

  0
STYLE
  5
206
100
AcDbSymbolTableRecord
100
AcDbTextStyleTableRecord
  2
TEXTSTYLE_2
 70
0
 40
0.0
 41
0.8
 50
0.0
 71
0
 42
0.2
  3
txt
  4

  0
ENDTAB
  0
TABLE
  2
VIEW
  5
6
100
AcDbSymbolTable
 70
0
  0
ENDTAB
  0
TABLE
  2
UCS
  5
7
100
AcDbSymbolTable
 70
0
  0
ENDTAB
  0
TABLE
  2
APPID
  5
9
100
AcDbSymbolTable
 70
1
  0
APPID
  5
207
100
AcDbSymbolTableRecord
100
AcDbRegAppTableRecord
  2
ACAD
 70
0
  0
ENDTAB
  0
TABLE
  2
BLOCK_RECORD
  5
1
100
AcDbSymbolTable
 70
0
  0
BLOCK_RECORD
  5
1F
100
AcDbSymbolTableRecord
100
AcDbBlockTableRecord
  2
*MODEL_SPACE
  0
BLOCK_RECORD
  5
1B
100
AcDbSymbolTableRecord
100
AcDbBlockTableRecord
  2
*PAPER_SPACE
  0
BLOCK_RECORD
  5
208
100
AcDbSymbolTableRecord
100
AcDbBlockTableRecord
  2
TE_CONNECTIVITY_BL0
  0
ENDTAB
  0
TABLE
  2
DIMSTYLE
  5
A
100
AcDbSymbolTable
 70
1
  0
DIMSTYLE
105
209
100
AcDbSymbolTableRecord
100
AcDbDimStyleTableRecord
  2
STANDARD
 70
0
  3

  4

  5
_CLOSED
  6
_CLOSED
  7
_CLOSED
 40
1.0
 41
4.5
 42
1.5
 43
0.38
 44
3.0
 45
0.0
 46
0.0
 47
0.01
 48
0.01
140
3.0
141
0.09
142
0.0
143
25.4
144
1.0
145
0.0
146
1.0
147
0.625
 71
1.0
 72
0.0
 73
1
 74
1
 75
0
 76
0
 77
0
 78
8
170
0
171
2
172
0
173
0
174
0
175
0
176
0
177
0
178
0
270
2
271
2
272
2
273
2
274
2
275
0
280
0
281
0
282
0
283
1
284
8
285
0
286
0
287
3
288
0
340
11
  0
ENDTAB
  0
ENDSEC
  0
SECTION
  2
BLOCKS
  0
BLOCK
  5
20
100
AcDbEntity
  8
0
100
AcDbBlockBegin
  2
*MODEL_SPACE
 70
0
 10
0.0
 20
0.0
 30
0.0
  3
*MODEL_SPACE
  1

  0
ENDBLK
  5
21
100
AcDbEntity
  8
0
100
AcDbBlockEnd
  0
BLOCK
  5
1C
100
AcDbEntity
  8
0
100
AcDbBlockBegin
  2
*PAPER_SPACE
 70
0
 10
0.0
 20
0.0
 30
0.0
  3
*PAPER_SPACE
  1

  0
ENDBLK
  5
1D
100
AcDbEntity
  8
0
100
AcDbBlockEnd
  0
BLOCK
  5
20A
100
AcDbEntity
  8
0
100
AcDbBlockBegin
 62
2
  6
CONTINUOUS
  2
TE_CONNECTIVITY_BL0
 70
64
 10
315.0
 20
36.0
  3
TE_CONNECTIVITY_BL0
  1

  0
LINE
  5
20B
100
AcDbEntity
  8
0
100
AcDbLine
 62
2
  6
CONTINUOUS
 10
303.4442621268
 20
31.975
 11
311.2931594095
 21
31.975
  0
LINE
  5
20C
100
AcDbEntity
  8
0
100
AcDbLine
 62
2
  6
CONTINUOUS
 10
316.3319775183
 20
31.975
 11
318.4139164045
 21
31.975
  0
LINE
  5
20D
100
AcDbEntity
  8
0
100
AcDbLine
 62
2
  6
CONTINUOUS
 10
321.4865647769
 20
31.975
 11
327.8504615515
 21
31.975
  0
LINE
  5
20E
100
AcDbEntity
  8
0
100
AcDbLine
 62
2
  6
CONTINUOUS
 10
328.3338139487
 20
33.7788957044
 11
324.0176749741
 21
33.7788957044
  0
LINE
  5
20F
100
AcDbEntity
  8
0
100
AcDbLine
 62
2
  6
CONTINUOUS
 10
311.2931594095
 20
34.2561326711
 11
303.4442621268
 21
34.2561326711
  0
LINE
  5
210
100
AcDbEntity
  8
0
100
AcDbLine
 62
2
  6
CONTINUOUS
 10
301.1331145522
 20
34.8594322328
 11
308.9820118349
 21
34.8594322328
  0
LINE
  5
211
100
AcDbEntity
  8
0
100
AcDbLine
 62
2
  6
CONTINUOUS
 10
316.0776474878
 20
40.0249971366
 11
315.5942950906
 21
38.2211014322
  0
LINE
  5
212
100
AcDbEntity
  8
0
100
AcDbLine
 62
2
  6
CONTINUOUS
 10
324.4045177413
 20
35.2226125659
 11
328.2576583666
 21
35.2226125659
  0
LINE
  5
213
100
AcDbEntity
  8
0
100
AcDbLine
 62
2
  6
CONTINUOUS
 10
328.6887347141
 20
36.8314113971
 11
324.8355940889
 21
36.8314113971
  0
LINE
  5
214
100
AcDbEntity
  8
0
100
AcDbLine
 62
2
  6
CONTINUOUS
 10
308.9820118349
 20
37.1405649038
 11
301.1331145522
 21
37.1405649038
  0
LINE
  5
215
100
AcDbEntity
  8
0
100
AcDbLine
 62
2
  6
CONTINUOUS
 10
304.9810251894
 20
37.7438644655
 11
312.8299224721
 21
37.7438644655
  0
LINE
  5
216
100
AcDbEntity
  8
0
100
AcDbLine
 62
2
  6
CONTINUOUS
 10
318.0056153529
 20
38.2211014322
 11
316.3319775183
 21
31.975
  0
LINE
  5
217
100
AcDbEntity
  8
0
100
AcDbLine
 62
2
  6
CONTINUOUS
 10
315.5942950906
 20
38.2211014322
 11
318.0056153529
 21
38.2211014322
  0
LINE
  5
218
100
AcDbEntity
  8
0
100
AcDbLine
 62
2
  6
CONTINUOUS
 10
320.0875542391
 20
38.2211014322
 11
322.4988745014
 21
38.2211014322
  0
LINE
  5
219
100
AcDbEntity
  8
0
100
AcDbLine
 62
2
  6
CONTINUOUS
 10
325.2079604115
 20
38.2211014322
 11
329.5240993861
 21
38.2211014322
  0
LINE
  5
21A
100
AcDbEntity
  8
0
100
AcDbLine
 62
2
  6
CONTINUOUS
 10
330.0074517833
 20
40.0249971366
 11
323.6435550087
 21
40.0249971366
  0
LINE
  5
21B
100
AcDbEntity
  8
0
100
AcDbLine
 62
2
  6
CONTINUOUS
 10
322.9822268986
 20
40.0249971366
 11
316.0776474878
 21
40.0249971366
  0
LINE
  5
21C
100
AcDbEntity
  8
0
100
AcDbLine
 62
2
  6
CONTINUOUS
 10
312.8299224721
 20
40.0249971366
 11
304.9810251894
 21
40.0249971366
  0
LINE
  5
21D
100
AcDbEntity
  8
0
100
AcDbLine
 62
2
  6
CONTINUOUS
 10
318.4139164045
 20
31.975
 11
320.0875542391
 21
38.2211014322
  0
LINE
  5
21E
100
AcDbEntity
  8
0
100
AcDbLine
 62
2
  6
CONTINUOUS
 10
322.4988745014
 20
38.2211014322
 11
322.9822268986
 21
40.0249971366
  0
LINE
  5
21F
100
AcDbEntity
  8
0
100
AcDbLine
 62
2
  6
CONTINUOUS
 10
323.6435550087
 20
40.0249971366
 11
321.4865647769
 21
31.975
  0
LINE
  5
220
100
AcDbEntity
  8
0
100
AcDbLine
 62
2
  6
CONTINUOUS
 10
324.0176749741
 20
33.7788957044
 11
324.4045177413
 21
35.2226125659
  0
LINE
  5
221
100
AcDbEntity
  8
0
100
AcDbLine
 62
2
  6
CONTINUOUS
 10
324.8355940889
 20
36.8314113971
 11
325.2079604115
 21
38.2211014322
  0
LINE
  5
222
100
AcDbEntity
  8
0
100
AcDbLine
 62
2
  6
CONTINUOUS
 10
328.2576583666
 20
35.2226125659
 11
328.6887347141
 21
36.8314113971
  0
LINE
  5
223
100
AcDbEntity
  8
0
100
AcDbLine
 62
2
  6
CONTINUOUS
 10
327.8504615515
 20
31.975
 11
328.3338139487
 21
33.7788957044
  0
LINE
  5
224
100
AcDbEntity
  8
0
100
AcDbLine
 62
2
  6
CONTINUOUS
 10
329.5240993861
 20
38.2211014322
 11
330.0074517833
 21
40.0249971366
  0
ARC
  5
225
100
AcDbEntity
  8
0
100
AcDbCircle
 62
2
  6
CONTINUOUS
 10
304.9810251894
 20
38.884430801
 40
1.1405663355
100
AcDbArc
 50
90.0
 51
270.0
  0
ARC
  5
226
100
AcDbEntity
  8
0
100
AcDbCircle
 62
2
  6
CONTINUOUS
 10
312.8299224721
 20
38.884430801
 40
1.1405663355
100
AcDbArc
 50
270.0
 51
90.0
  0
ARC
  5
227
100
AcDbEntity
  8
0
100
AcDbCircle
 62
2
  6
CONTINUOUS
 10
311.2931594095
 20
33.1155663355
 40
1.1405663355
100
AcDbArc
 50
270.0
 51
90.0
  0
ARC
  5
228
100
AcDbEntity
  8
0
100
AcDbCircle
 62
2
  6
CONTINUOUS
 10
303.4442621268
 20
33.1155663355
 40
1.1405663355
100
AcDbArc
 50
90.0
 51
270.0
  0
ARC
  5
229
100
AcDbEntity
  8
0
100
AcDbCircle
 62
2
  6
CONTINUOUS
 10
308.9820118349
 20
35.9999985683
 40
1.1405663355
100
AcDbArc
 50
270.0
 51
90.0
  0
ARC
  5
22A
100
AcDbEntity
  8
0
100
AcDbCircle
 62
2
  6
CONTINUOUS
 10
301.1331145522
 20
35.9999985683
 40
1.1405663355
100
AcDbArc
 50
90.0
 51
270.0
  0
LWPOLYLINE
  5
22B
100
AcDbEntity
  8
0
100
AcDbPolyline
 62
2
  6
CONTINUOUS
 90
50
 70
0
 10
304.8321514087
 20
40.0152434035
 10
304.9810251894
 20
40.025
 10
312.8299224721
 20
40.025
 10
312.9787962529
 20
40.0152434035
 10
313.125122762
 20
39.9861346138
 10
313.2663983123
 20
39.9381727309
 10
313.4002056399
 20
39.8721869044
 10
313.5242552644
 20
39.7893041338
 10
313.6364246624
 20
39.6909331688
 10
313.7347945842
 20
39.5787645087
 10
313.8176818934
 20
39.4547140529
 10
313.883668365
 20
39.3209070004
 10
313.9316249522
 20
39.1796295507
 10
313.9607311046
 20
39.0333047528
 10
313.9704888077
 20
38.8844281057
 10
313.9607311046
 20
38.7355595087
 10
313.9316249522
 20
38.5892266607
 10
313.883668365
 20
38.447957261
 10
313.8176818934
 20
38.3141502086
 10
313.7347945842
 20
38.1900997527
 10
313.6364246624
 20
38.0779310926
 10
313.5242552644
 20
37.9795601276
 10
313.4002056399
 20
37.8966693071
 10
313.2663983123
 20
37.8306834805
 10
313.125122762
 20
37.7827296476
 10
312.9787962529
 20
37.7536208579
 10
304.9810251894
 20
37.7438642614
 10
304.8321514087
 20
37.7536208579
 10
304.6858248996
 20
37.7827296476
 10
304.5445493493
 20
37.8306834805
 10
304.4107420217
 20
37.8966693071
 10
304.2866923972
 20
37.9795601276
 10
304.1745229992
 20
38.0779310926
 10
304.0761530773
 20
38.1900997527
 10
303.9932657682
 20
38.3141502086
 10
303.9272792966
 20
38.447957261
 10
303.8793227094
 20
38.5892266607
 10
303.850216557
 20
38.7355595087
 10
303.8404588539
 20
38.8844281057
 10
303.850216557
 20
39.0333047528
 10
303.8793227094
 20
39.1796295507
 10
303.9272792966
 20
39.3209070004
 10
303.9932657682
 20
39.4547140529
 10
304.0761530773
 20
39.5787645087
 10
304.1745229992
 20
39.6909331688
 10
304.2866923972
 20
39.7893041338
 10
304.4107420217
 20
39.8721869044
 10
304.5445493493
 20
39.9381727309
 10
304.6858248996
 20
39.9861346138
 10
304.8321514087
 20
40.0152434035
  0
HATCH
  5
22C
100
AcDbEntity
  8
0
100
AcDbHatch
 62
2
  6
CONTINUOUS
 10
0.0
 20
0.0
 30
0.0
210
0.0
220
0.0
230
1.0
  2
SOLID
 70
1
 71
1
 91
1
 92
1
 93
49
 72
1
 10
304.8321514087
 20
40.0152434035
 11
304.9810251894
 21
40.025
 72
1
 10
304.9810251894
 20
40.025
 11
312.8299224721
 21
40.025
 72
1
 10
312.8299224721
 20
40.025
 11
312.9787962529
 21
40.0152434035
 72
1
 10
312.9787962529
 20
40.0152434035
 11
313.125122762
 21
39.9861346138
 72
1
 10
313.125122762
 20
39.9861346138
 11
313.2663983123
 21
39.9381727309
 72
1
 10
313.2663983123
 20
39.9381727309
 11
313.4002056399
 21
39.8721869044
 72
1
 10
313.4002056399
 20
39.8721869044
 11
313.5242552644
 21
39.7893041338
 72
1
 10
313.5242552644
 20
39.7893041338
 11
313.6364246624
 21
39.6909331688
 72
1
 10
313.6364246624
 20
39.6909331688
 11
313.7347945842
 21
39.5787645087
 72
1
 10
313.7347945842
 20
39.5787645087
 11
313.8176818934
 21
39.4547140529
 72
1
 10
313.8176818934
 20
39.4547140529
 11
313.883668365
 21
39.3209070004
 72
1
 10
313.883668365
 20
39.3209070004
 11
313.9316249522
 21
39.1796295507
 72
1
 10
313.9316249522
 20
39.1796295507
 11
313.9607311046
 21
39.0333047528
 72
1
 10
313.9607311046
 20
39.0333047528
 11
313.9704888077
 21
38.8844281057
 72
1
 10
313.9704888077
 20
38.8844281057
 11
313.9607311046
 21
38.7355595087
 72
1
 10
313.9607311046
 20
38.7355595087
 11
313.9316249522
 21
38.5892266607
 72
1
 10
313.9316249522
 20
38.5892266607
 11
313.883668365
 21
38.447957261
 72
1
 10
313.883668365
 20
38.447957261
 11
313.8176818934
 21
38.3141502086
 72
1
 10
313.8176818934
 20
38.3141502086
 11
313.7347945842
 21
38.1900997527
 72
1
 10
313.7347945842
 20
38.1900997527
 11
313.6364246624
 21
38.0779310926
 72
1
 10
313.6364246624
 20
38.0779310926
 11
313.5242552644
 21
37.9795601276
 72
1
 10
313.5242552644
 20
37.9795601276
 11
313.4002056399
 21
37.8966693071
 72
1
 10
313.4002056399
 20
37.8966693071
 11
313.2663983123
 21
37.8306834805
 72
1
 10
313.2663983123
 20
37.8306834805
 11
313.125122762
 21
37.7827296476
 72
1
 10
313.125122762
 20
37.7827296476
 11
312.9787962529
 21
37.7536208579
 72
1
 10
312.9787962529
 20
37.7536208579
 11
304.9810251894
 21
37.7438642614
 72
1
 10
304.9810251894
 20
37.7438642614
 11
304.8321514087
 21
37.7536208579
 72
1
 10
304.8321514087
 20
37.7536208579
 11
304.6858248996
 21
37.7827296476
 72
1
 10
304.6858248996
 20
37.7827296476
 11
304.5445493493
 21
37.8306834805
 72
1
 10
304.5445493493
 20
37.8306834805
 11
304.4107420217
 21
37.8966693071
 72
1
 10
304.4107420217
 20
37.8966693071
 11
304.2866923972
 21
37.9795601276
 72
1
 10
304.2866923972
 20
37.9795601276
 11
304.1745229992
 21
38.0779310926
 72
1
 10
304.1745229992
 20
38.0779310926
 11
304.0761530773
 21
38.1900997527
 72
1
 10
304.0761530773
 20
38.1900997527
 11
303.9932657682
 21
38.3141502086
 72
1
 10
303.9932657682
 20
38.3141502086
 11
303.9272792966
 21
38.447957261
 72
1
 10
303.9272792966
 20
38.447957261
 11
303.8793227094
 21
38.5892266607
 72
1
 10
303.8793227094
 20
38.5892266607
 11
303.850216557
 21
38.7355595087
 72
1
 10
303.850216557
 20
38.7355595087
 11
303.8404588539
 21
38.8844281057
 72
1
 10
303.8404588539
 20
38.8844281057
 11
303.850216557
 21
39.0333047528
 72
1
 10
303.850216557
 20
39.0333047528
 11
303.8793227094
 21
39.1796295507
 72
1
 10
303.8793227094
 20
39.1796295507
 11
303.9272792966
 21
39.3209070004
 72
1
 10
303.9272792966
 20
39.3209070004
 11
303.9932657682
 21
39.4547140529
 72
1
 10
303.9932657682
 20
39.4547140529
 11
304.0761530773
 21
39.5787645087
 72
1
 10
304.0761530773
 20
39.5787645087
 11
304.1745229992
 21
39.6909331688
 72
1
 10
304.1745229992
 20
39.6909331688
 11
304.2866923972
 21
39.7893041338
 72
1
 10
304.2866923972
 20
39.7893041338
 11
304.4107420217
 21
39.8721869044
 72
1
 10
304.4107420217
 20
39.8721869044
 11
304.5445493493
 21
39.9381727309
 72
1
 10
304.5445493493
 20
39.9381727309
 11
304.6858248996
 21
39.9861346138
 72
1
 10
304.6858248996
 20
39.9861346138
 11
304.8321514087
 21
40.0152434035
 97
1
330
22B
 75
0
 76
1
 98
1
 10
0.0
 20
0.0
  0
LWPOLYLINE
  5
22D
100
AcDbEntity
  8
0
100
AcDbPolyline
 62
2
  6
CONTINUOUS
 90
9
 70
0
 10
315.5942950906
 20
38.2211002917
 10
316.0776474878
 20
40.025
 10
322.9822268986
 20
40.025
 10
322.4988745014
 20
38.2211002917
 10
320.0875542391
 20
38.2211002917
 10
318.4139164045
 20
31.9750028634
 10
316.3319775183
 20
31.9750028634
 10
318.0056153529
 20
38.2211002917
 10
315.5942950906
 20
38.2211002917
  0
HATCH
  5
22E
100
AcDbEntity
  8
0
100
AcDbHatch
 62
2
  6
CONTINUOUS
 10
0.0
 20
0.0
 30
0.0
210
0.0
220
0.0
230
1.0
  2
SOLID
 70
1
 71
1
 91
1
 92
1
 93
8
 72
1
 10
315.5942950906
 20
38.2211002917
 11
316.0776474878
 21
40.025
 72
1
 10
316.0776474878
 20
40.025
 11
322.9822268986
 21
40.025
 72
1
 10
322.9822268986
 20
40.025
 11
322.4988745014
 21
38.2211002917
 72
1
 10
322.4988745014
 20
38.2211002917
 11
320.0875542391
 21
38.2211002917
 72
1
 10
320.0875542391
 20
38.2211002917
 11
318.4139164045
 21
31.9750028634
 72
1
 10
318.4139164045
 20
31.9750028634
 11
316.3319775183
 21
31.9750028634
 72
1
 10
316.3319775183
 20
31.9750028634
 11
318.0056153529
 21
38.2211002917
 72
1
 10
318.0056153529
 20
38.2211002917
 11
315.5942950906
 21
38.2211002917
 97
1
330
22D
 75
0
 76
1
 98
1
 10
0.0
 20
0.0
  0
LWPOLYLINE
  5
22F
100
AcDbEntity
  8
0
100
AcDbPolyline
 62
2
  6
CONTINUOUS
 90
6
 70
0
 10
330.0074517833
 20
40.025
 10
329.5240993861
 20
38.2211002917
 10
325.2079604115
 20
38.2211002917
 10
321.4865647769
 20
31.9750028634
 10
323.6435550087
 20
40.025
 10
330.0074517833
 20
40.025
  0
HATCH
  5
230
100
AcDbEntity
  8
0
100
AcDbHatch
 62
2
  6
CONTINUOUS
 10
0.0
 20
0.0
 30
0.0
210
0.0
220
0.0
230
1.0
  2
SOLID
 70
1
 71
1
 91
1
 92
1
 93
5
 72
1
 10
330.0074517833
 20
40.025
 11
329.5240993861
 21
38.2211002917
 72
1
 10
329.5240993861
 20
38.2211002917
 11
325.2079604115
 21
38.2211002917
 72
1
 10
325.2079604115
 20
38.2211002917
 11
321.4865647769
 21
31.9750028634
 72
1
 10
321.4865647769
 20
31.9750028634
 11
323.6435550087
 21
40.025
 72
1
 10
323.6435550087
 20
40.025
 11
330.0074517833
 21
40.025
 97
1
330
22F
 75
0
 76
1
 98
1
 10
0.0
 20
0.0
  0
SOLID
  5
231
100
AcDbEntity
  8
0
100
AcDbTrace
 62
2
  6
CONTINUOUS
 10
312.9787962529
 20
37.7536208579
 11
312.8299224721
 21
37.7438642614
 12
304.9810251894
 22
37.7438642614
 13
304.9810251894
 23
37.7438642614
  0
LWPOLYLINE
  5
232
100
AcDbEntity
  8
0
100
AcDbPolyline
 62
2
  6
CONTINUOUS
 90
50
 70
0
 10
300.9842407715
 20
37.1308086795
 10
301.1331145522
 20
37.140565276
 10
308.9820118349
 20
37.140565276
 10
309.1308856156
 20
37.1308086795
 10
309.2772121247
 20
37.1016998898
 10
309.418487675
 20
37.0537460569
 10
309.5522950027
 20
36.9877602304
 10
309.6763446272
 20
36.9048694098
 10
309.7885140251
 20
36.8064984448
 10
309.886883947
 20
36.6943297847
 10
309.9697712562
 20
36.5702793289
 10
310.0357577278
 20
36.4364722765
 10
310.083714315
 20
36.2952028767
 10
310.1128204673
 20
36.1488700288
 10
310.1225781704
 20
36.0000014317
 10
310.1128204673
 20
35.8511247847
 10
310.083714315
 20
35.7047999867
 10
310.0357577278
 20
35.563522537
 10
309.9697712562
 20
35.4297154846
 10
309.886883947
 20
35.3056650287
 10
309.7885140251
 20
35.1934963686
 10
309.6763446272
 20
35.0951254036
 10
309.5522950027
 20
35.0122426331
 10
309.418487675
 20
34.9462487565
 10
309.2772121247
 20
34.8982949236
 10
309.1308856156
 20
34.8691861339
 10
301.1331145522
 20
34.8594295374
 10
300.9842407715
 20
34.8691861339
 10
300.8379142624
 20
34.8982949236
 10
300.6966387121
 20
34.9462487565
 10
300.5628313844
 20
35.0122426331
 10
300.4387817599
 20
35.0951254036
 10
300.326612362
 20
35.1934963686
 10
300.2282424401
 20
35.3056650287
 10
300.1453551309
 20
35.4297154846
 10
300.0793686593
 20
35.563522537
 10
300.0314120721
 20
35.7047999867
 10
300.0023059198
 20
35.8511247847
 10
299.9925482167
 20
36.0000014317
 10
300.0023059198
 20
36.1488700288
 10
300.0314120721
 20
36.2952028767
 10
300.0793686593
 20
36.4364722765
 10
300.1453551309
 20
36.5702793289
 10
300.2282424401
 20
36.6943297847
 10
300.326612362
 20
36.8064984448
 10
300.4387817599
 20
36.9048694098
 10
300.5628313844
 20
36.9877602304
 10
300.6966387121
 20
37.0537460569
 10
300.8379142624
 20
37.1016998898
 10
300.9842407715
 20
37.1308086795
  0
HATCH
  5
233
100
AcDbEntity
  8
0
100
AcDbHatch
 62
2
  6
CONTINUOUS
 10
0.0
 20
0.0
 30
0.0
210
0.0
220
0.0
230
1.0
  2
SOLID
 70
1
 71
1
 91
1
 92
1
 93
49
 72
1
 10
300.9842407715
 20
37.1308086795
 11
301.1331145522
 21
37.140565276
 72
1
 10
301.1331145522
 20
37.140565276
 11
308.9820118349
 21
37.140565276
 72
1
 10
308.9820118349
 20
37.140565276
 11
309.1308856156
 21
37.1308086795
 72
1
 10
309.1308856156
 20
37.1308086795
 11
309.2772121247
 21
37.1016998898
 72
1
 10
309.2772121247
 20
37.1016998898
 11
309.418487675
 21
37.0537460569
 72
1
 10
309.418487675
 20
37.0537460569
 11
309.5522950027
 21
36.9877602304
 72
1
 10
309.5522950027
 20
36.9877602304
 11
309.6763446272
 21
36.9048694098
 72
1
 10
309.6763446272
 20
36.9048694098
 11
309.7885140251
 21
36.8064984448
 72
1
 10
309.7885140251
 20
36.8064984448
 11
309.886883947
 21
36.6943297847
 72
1
 10
309.886883947
 20
36.6943297847
 11
309.9697712562
 21
36.5702793289
 72
1
 10
309.9697712562
 20
36.5702793289
 11
310.0357577278
 21
36.4364722765
 72
1
 10
310.0357577278
 20
36.4364722765
 11
310.083714315
 21
36.2952028767
 72
1
 10
310.083714315
 20
36.2952028767
 11
310.1128204673
 21
36.1488700288
 72
1
 10
310.1128204673
 20
36.1488700288
 11
310.1225781704
 21
36.0000014317
 72
1
 10
310.1225781704
 20
36.0000014317
 11
310.1128204673
 21
35.8511247847
 72
1
 10
310.1128204673
 20
35.8511247847
 11
310.083714315
 21
35.7047999867
 72
1
 10
310.083714315
 20
35.7047999867
 11
310.0357577278
 21
35.563522537
 72
1
 10
310.0357577278
 20
35.563522537
 11
309.9697712562
 21
35.4297154846
 72
1
 10
309.9697712562
 20
35.4297154846
 11
309.886883947
 21
35.3056650287
 72
1
 10
309.886883947
 20
35.3056650287
 11
309.7885140251
 21
35.1934963686
 72
1
 10
309.7885140251
 20
35.1934963686
 11
309.6763446272
 21
35.0951254036
 72
1
 10
309.6763446272
 20
35.0951254036
 11
309.5522950027
 21
35.0122426331
 72
1
 10
309.5522950027
 20
35.0122426331
 11
309.418487675
 21
34.9462487565
 72
1
 10
309.418487675
 20
34.9462487565
 11
309.2772121247
 21
34.8982949236
 72
1
 10
309.2772121247
 20
34.8982949236
 11
309.1308856156
 21
34.8691861339
 72
1
 10
309.1308856156
 20
34.8691861339
 11
301.1331145522
 21
34.8594295374
 72
1
 10
301.1331145522
 20
34.8594295374
 11
300.9842407715
 21
34.8691861339
 72
1
 10
300.9842407715
 20
34.8691861339
 11
300.8379142624
 21
34.8982949236
 72
1
 10
300.8379142624
 20
34.8982949236
 11
300.6966387121
 21
34.9462487565
 72
1
 10
300.6966387121
 20
34.9462487565
 11
300.5628313844
 21
35.0122426331
 72
1
 10
300.5628313844
 20
35.0122426331
 11
300.4387817599
 21
35.0951254036
 72
1
 10
300.4387817599
 20
35.0951254036
 11
300.326612362
 21
35.1934963686
 72
1
 10
300.326612362
 20
35.1934963686
 11
300.2282424401
 21
35.3056650287
 72
1
 10
300.2282424401
 20
35.3056650287
 11
300.1453551309
 21
35.4297154846
 72
1
 10
300.1453551309
 20
35.4297154846
 11
300.0793686593
 21
35.563522537
 72
1
 10
300.0793686593
 20
35.563522537
 11
300.0314120721
 21
35.7047999867
 72
1
 10
300.0314120721
 20
35.7047999867
 11
300.0023059198
 21
35.8511247847
 72
1
 10
300.0023059198
 20
35.8511247847
 11
299.9925482167
 21
36.0000014317
 72
1
 10
299.9925482167
 20
36.0000014317
 11
300.0023059198
 21
36.1488700288
 72
1
 10
300.0023059198
 20
36.1488700288
 11
300.0314120721
 21
36.2952028767
 72
1
 10
300.0314120721
 20
36.2952028767
 11
300.0793686593
 21
36.4364722765
 72
1
 10
300.0793686593
 20
36.4364722765
 11
300.1453551309
 21
36.5702793289
 72
1
 10
300.1453551309
 20
36.5702793289
 11
300.2282424401
 21
36.6943297847
 72
1
 10
300.2282424401
 20
36.6943297847
 11
300.326612362
 21
36.8064984448
 72
1
 10
300.326612362
 20
36.8064984448
 11
300.4387817599
 21
36.9048694098
 72
1
 10
300.4387817599
 20
36.9048694098
 11
300.5628313844
 21
36.9877602304
 72
1
 10
300.5628313844
 20
36.9877602304
 11
300.6966387121
 21
37.0537460569
 72
1
 10
300.6966387121
 20
37.0537460569
 11
300.8379142624
 21
37.1016998898
 72
1
 10
300.8379142624
 20
37.1016998898
 11
300.9842407715
 21
37.1308086795
 97
1
330
232
 75
0
 76
1
 98
1
 10
0.0
 20
0.0
  0
LWPOLYLINE
  5
234
100
AcDbEntity
  8
0
100
AcDbPolyline
 62
2
  6
CONTINUOUS
 90
7
 70
0
 10
328.6887347141
 20
36.831413186
 10
328.2576583666
 20
35.2226132082
 10
324.4045177413
 20
35.2226132082
 10
321.4865647769
 20
31.9750028634
 10
325.2079604115
 20
38.2211002917
 10
324.8355940889
 20
36.831413186
 10
328.6887347141
 20
36.831413186
  0
HATCH
  5
235
100
AcDbEntity
  8
0
100
AcDbHatch
 62
2
  6
CONTINUOUS
 10
0.0
 20
0.0
 30
0.0
210
0.0
220
0.0
230
1.0
  2
SOLID
 70
1
 71
1
 91
1
 92
1
 93
6
 72
1
 10
328.6887347141
 20
36.831413186
 11
328.2576583666
 21
35.2226132082
 72
1
 10
328.2576583666
 20
35.2226132082
 11
324.4045177413
 21
35.2226132082
 72
1
 10
324.4045177413
 20
35.2226132082
 11
321.4865647769
 21
31.9750028634
 72
1
 10
321.4865647769
 20
31.9750028634
 11
325.2079604115
 21
38.2211002917
 72
1
 10
325.2079604115
 20
38.2211002917
 11
324.8355940889
 21
36.831413186
 72
1
 10
324.8355940889
 20
36.831413186
 11
328.6887347141
 21
36.831413186
 97
1
330
234
 75
0
 76
1
 98
1
 10
0.0
 20
0.0
  0
SOLID
  5
236
100
AcDbEntity
  8
0
100
AcDbTrace
 62
2
  6
CONTINUOUS
 10
309.1308856156
 20
34.8691861339
 11
308.9820118349
 21
34.8594295374
 12
301.1331145522
 22
34.8594295374
 13
301.1331145522
 23
34.8594295374
  0
LWPOLYLINE
  5
237
100
AcDbEntity
  8
0
100
AcDbPolyline
 62
2
  6
CONTINUOUS
 90
50
 70
0
 10
303.2953883461
 20
34.2463739555
 10
303.4442621268
 20
34.256130552
 10
311.2931594095
 20
34.256130552
 10
311.4420331903
 20
34.2463739555
 10
311.5883596994
 20
34.2172651658
 10
311.7296352496
 20
34.1693113329
 10
311.8634425773
 20
34.1033255064
 10
311.9874922018
 20
34.0204346859
 10
312.0996615998
 20
33.9220717708
 10
312.1980315216
 20
33.8099031107
 10
312.2809188308
 20
33.6858526549
 10
312.3469053024
 20
33.5520456025
 10
312.3948618896
 20
33.4107681527
 10
312.4239680419
 20
33.2644433548
 10
312.4337257451
 20
33.1155667077
 10
312.4239680419
 20
32.9666900607
 10
312.3948618896
 20
32.8203652627
 10
312.3469053024
 20
32.679087813
 10
312.2809188308
 20
32.5452807606
 10
312.1980315216
 20
32.4212303047
 10
312.0996615998
 20
32.3090616446
 10
311.9874922018
 20
32.2106906796
 10
311.8634425773
 20
32.1278079091
 10
311.7296352496
 20
32.0618220825
 10
311.5883596994
 20
32.0138601996
 10
311.4420331903
 20
31.98475946
 10
303.4442621268
 20
31.9750028634
 10
303.2953883461
 20
31.98475946
 10
303.149061837
 20
32.0138601996
 10
303.0077862867
 20
32.0618220825
 10
302.8739789591
 20
32.1278079091
 10
302.7499293345
 20
32.2106906796
 10
302.6377599366
 20
32.3090616446
 10
302.5393900147
 20
32.4212303047
 10
302.4565027056
 20
32.5452807606
 10
302.390516234
 20
32.679087813
 10
302.3425596467
 20
32.8203652627
 10
302.3134534944
 20
32.9666900607
 10
302.3036957913
 20
33.1155667077
 10
302.3134534944
 20
33.2644433548
 10
302.3425596467
 20
33.4107681527
 10
302.390516234
 20
33.5520456025
 10
302.4565027056
 20
33.6858526549
 10
302.5393900147
 20
33.8099031107
 10
302.6377599366
 20
33.9220717708
 10
302.7499293345
 20
34.0204346859
 10
302.8739789591
 20
34.1033255064
 10
303.0077862867
 20
34.1693113329
 10
303.149061837
 20
34.2172651658
 10
303.2953883461
 20
34.2463739555
  0
HATCH
  5
238
100
AcDbEntity
  8
0
100
AcDbHatch
 62
2
  6
CONTINUOUS
 10
0.0
 20
0.0
 30
0.0
210
0.0
220
0.0
230
1.0
  2
SOLID
 70
1
 71
1
 91
1
 92
1
 93
49
 72
1
 10
303.2953883461
 20
34.2463739555
 11
303.4442621268
 21
34.256130552
 72
1
 10
303.4442621268
 20
34.256130552
 11
311.2931594095
 21
34.256130552
 72
1
 10
311.2931594095
 20
34.256130552
 11
311.4420331903
 21
34.2463739555
 72
1
 10
311.4420331903
 20
34.2463739555
 11
311.5883596994
 21
34.2172651658
 72
1
 10
311.5883596994
 20
34.2172651658
 11
311.7296352496
 21
34.1693113329
 72
1
 10
311.7296352496
 20
34.1693113329
 11
311.8634425773
 21
34.1033255064
 72
1
 10
311.8634425773
 20
34.1033255064
 11
311.9874922018
 21
34.0204346859
 72
1
 10
311.9874922018
 20
34.0204346859
 11
312.0996615998
 21
33.9220717708
 72
1
 10
312.0996615998
 20
33.9220717708
 11
312.1980315216
 21
33.8099031107
 72
1
 10
312.1980315216
 20
33.8099031107
 11
312.2809188308
 21
33.6858526549
 72
1
 10
312.2809188308
 20
33.6858526549
 11
312.3469053024
 21
33.5520456025
 72
1
 10
312.3469053024
 20
33.5520456025
 11
312.3948618896
 21
33.4107681527
 72
1
 10
312.3948618896
 20
33.4107681527
 11
312.4239680419
 21
33.2644433548
 72
1
 10
312.4239680419
 20
33.2644433548
 11
312.4337257451
 21
33.1155667077
 72
1
 10
312.4337257451
 20
33.1155667077
 11
312.4239680419
 21
32.9666900607
 72
1
 10
312.4239680419
 20
32.9666900607
 11
312.3948618896
 21
32.8203652627
 72
1
 10
312.3948618896
 20
32.8203652627
 11
312.3469053024
 21
32.679087813
 72
1
 10
312.3469053024
 20
32.679087813
 11
312.2809188308
 21
32.5452807606
 72
1
 10
312.2809188308
 20
32.5452807606
 11
312.1980315216
 21
32.4212303047
 72
1
 10
312.1980315216
 20
32.4212303047
 11
312.0996615998
 21
32.3090616446
 72
1
 10
312.0996615998
 20
32.3090616446
 11
311.9874922018
 21
32.2106906796
 72
1
 10
311.9874922018
 20
32.2106906796
 11
311.8634425773
 21
32.1278079091
 72
1
 10
311.8634425773
 20
32.1278079091
 11
311.7296352496
 21
32.0618220825
 72
1
 10
311.7296352496
 20
32.0618220825
 11
311.5883596994
 21
32.0138601996
 72
1
 10
311.5883596994
 20
32.0138601996
 11
311.4420331903
 21
31.98475946
 72
1
 10
311.4420331903
 20
31.98475946
 11
303.4442621268
 21
31.9750028634
 72
1
 10
303.4442621268
 20
31.9750028634
 11
303.2953883461
 21
31.98475946
 72
1
 10
303.2953883461
 20
31.98475946
 11
303.149061837
 21
32.0138601996
 72
1
 10
303.149061837
 20
32.0138601996
 11
303.0077862867
 21
32.0618220825
 72
1
 10
303.0077862867
 20
32.0618220825
 11
302.8739789591
 21
32.1278079091
 72
1
 10
302.8739789591
 20
32.1278079091
 11
302.7499293345
 21
32.2106906796
 72
1
 10
302.7499293345
 20
32.2106906796
 11
302.6377599366
 21
32.3090616446
 72
1
 10
302.6377599366
 20
32.3090616446
 11
302.5393900147
 21
32.4212303047
 72
1
 10
302.5393900147
 20
32.4212303047
 11
302.4565027056
 21
32.5452807606
 72
1
 10
302.4565027056
 20
32.5452807606
 11
302.390516234
 21
32.679087813
 72
1
 10
302.390516234
 20
32.679087813
 11
302.3425596467
 21
32.8203652627
 72
1
 10
302.3425596467
 20
32.8203652627
 11
302.3134534944
 21
32.9666900607
 72
1
 10
302.3134534944
 20
32.9666900607
 11
302.3036957913
 21
33.1155667077
 72
1
 10
302.3036957913
 20
33.1155667077
 11
302.3134534944
 21
33.2644433548
 72
1
 10
302.3134534944
 20
33.2644433548
 11
302.3425596467
 21
33.4107681527
 72
1
 10
302.3425596467
 20
33.4107681527
 11
302.390516234
 21
33.5520456025
 72
1
 10
302.390516234
 20
33.5520456025
 11
302.4565027056
 21
33.6858526549
 72
1
 10
302.4565027056
 20
33.6858526549
 11
302.5393900147
 21
33.8099031107
 72
1
 10
302.5393900147
 20
33.8099031107
 11
302.6377599366
 21
33.9220717708
 72
1
 10
302.6377599366
 20
33.9220717708
 11
302.7499293345
 21
34.0204346859
 72
1
 10
302.7499293345
 20
34.0204346859
 11
302.8739789591
 21
34.1033255064
 72
1
 10
302.8739789591
 20
34.1033255064
 11
303.0077862867
 21
34.1693113329
 72
1
 10
303.0077862867
 20
34.1693113329
 11
303.149061837
 21
34.2172651658
 72
1
 10
303.149061837
 20
34.2172651658
 11
303.2953883461
 21
34.2463739555
 97
1
330
237
 75
0
 76
1
 98
1
 10
0.0
 20
0.0
  0
SOLID
  5
239
100
AcDbEntity
  8
0
100
AcDbTrace
 62
2
  6
CONTINUOUS
 10
311.4420331903
 20
31.98475946
 11
311.2931594095
 21
31.9750028634
 12
303.4442621268
 22
31.9750028634
 13
303.4442621268
 23
31.9750028634
  0
LWPOLYLINE
  5
23A
100
AcDbEntity
  8
0
100
AcDbPolyline
 62
2
  6
CONTINUOUS
 90
6
 70
0
 10
328.3338139487
 20
33.7788945218
 10
327.8504615515
 20
31.9750028634
 10
321.4865647769
 20
31.9750028634
 10
324.4045177413
 20
35.2226132082
 10
324.0176749741
 20
33.7788945218
 10
328.3338139487
 20
33.7788945218
  0
HATCH
  5
23B
100
AcDbEntity
  8
0
100
AcDbHatch
 62
2
  6
CONTINUOUS
 10
0.0
 20
0.0
 30
0.0
210
0.0
220
0.0
230
1.0
  2
SOLID
 70
1
 71
1
 91
1
 92
1
 93
5
 72
1
 10
328.3338139487
 20
33.7788945218
 11
327.8504615515
 21
31.9750028634
 72
1
 10
327.8504615515
 20
31.9750028634
 11
321.4865647769
 21
31.9750028634
 72
1
 10
321.4865647769
 20
31.9750028634
 11
324.4045177413
 21
35.2226132082
 72
1
 10
324.4045177413
 20
35.2226132082
 11
324.0176749741
 21
33.7788945218
 72
1
 10
324.0176749741
 20
33.7788945218
 11
328.3338139487
 21
33.7788945218
 97
1
330
23A
 75
0
 76
1
 98
1
 10
0.0
 20
0.0
  0
ENDBLK
  5
23C
100
AcDbEntity
  8
0
  6
BYBLOCK
 62
0
100
AcDbBlockEnd
  0
ENDSEC
  0
SECTION
  2
ENTITIES
  0
TEXT
  5
23D
100
AcDbEntity
  8
0
100
AcDbText
 62
2
  6
CONTINUOUS
 10
273.9447944556
 20
16.2331743479
  7
STANDARD
 40
1.5200002147
  1
SIZE
 41
0.95
 72
0
100
AcDbText
  0
TEXT
  5
23E
100
AcDbEntity
  8
0
100
AcDbText
 62
2
  6
CONTINUOUS
 10
287.5144966041
 20
16.2331819773
  7
STANDARD
 40
1.5200002147
  1
DRAWING NO
 41
0.95
 72
0
100
AcDbText
  0
TEXT
  5
23F
100
AcDbEntity
  8
0
100
AcDbText
 62
2
  6
CONTINUOUS
 10
354.2964949762
 20
16.2330905319
  7
STANDARD
 40
1.52
  1
VERSION
 41
0.95
 72
0
100
AcDbText
  0
TEXT
  5
240
100
AcDbEntity
  8
0
100
AcDbText
 62
2
  6
CONTINUOUS
 10
274.4447944556
 20
25.5657549143
  7
STANDARD
 40
1.5200002147
  1
NAME
 41
0.95
 72
0
100
AcDbText
  0
TEXT
  5
241
100
AcDbEntity
  8
0
100
AcDbText
 62
2
  6
CONTINUOUS
 10
276.2800492314
 20
10.3485471083
  7
STANDARD
 40
4.9999998868
  1
A3
 41
0.95
 72
0
100
AcDbText
  0
TEXT
  5
242
100
AcDbEntity
  8
0
100
AcDbText
 62
2
  6
CONTINUOUS
 10
297.3906714731
 20
21.1920805906
  7
TEXTSTYLE_2
 40
3.968
  1
CUSTOMER VIEW MODEL DRAWING
 41
0.8
 72
1
 11
340.2450714731
 21
21.1920805906
100
AcDbText
  0
TEXT
  5
243
100
AcDbEntity
  8
0
100
AcDbText
 62
2
  6
CONTINUOUS
 10
347.0299084682
 20
34.4224093775
  7
TEXTSTYLE_2
 40
2.5
  1
TE Connectivity
 41
0.8
 72
0
100
AcDbText
  0
TEXT
  5
244
100
AcDbEntity
  8
0
100
AcDbText
 62
2
  6
CONTINUOUS
 10
369.5635822821
 20
16.2739597356
  7
STANDARD
 40
1.52
  1
DATE
 41
0.95
 72
0
100
AcDbText
  0
TEXT
  5
245
100
AcDbEntity
  8
0
100
AcDbText
 62
2
  6
CONTINUOUS
 10
174.6476862981
 20
23.8368677885
  7
TEXTSTYLE_2
 40
2.286
  1
THIS IS NOT A CONTROLLED DRAWING.
 41
0.8
 72
0
100
AcDbText
  0
TEXT
  5
246
100
AcDbEntity
  8
0
100
AcDbText
 62
2
  6
CONTINUOUS
 10
174.6476862981
 20
20.4078677885
  7
TEXTSTYLE_2
 40
2.286
  1
THIS IS A REPRESENTATION OF THE CUSTOMER VIEW MODEL.
 41
0.8
 72
0
100
AcDbText
  0
TEXT
  5
247
100
AcDbEntity
  8
0
100
AcDbText
 62
2
  6
CONTINUOUS
 10
174.6476862981
 20
16.9788677885
  7
TEXTSTYLE_2
 40
2.286
  1
    THIS IS NOT THE DOCUMENT OF SALE.
 41
0.8
 72
0
100
AcDbText
  0
TEXT
  5
248
100
AcDbEntity
  8
0
100
AcDbText
 62
2
  6
CONTINUOUS
 10
174.6476862981
 20
13.5498677885
  7
TEXTSTYLE_2
 40
2.286
  1
SEE THE CUSTOMER DRAWING FOR DESIGN PURPOSES.
 41
0.8
 72
0
100
AcDbText
  0
TEXT
  5
249
100
AcDbEntity
  8
0
100
AcDbText
 62
2
  6
CONTINUOUS
 10
22.7512107444
 20
282.4829655254
  7
TEXTSTYLE_2
 40
2.5
  1
c
 41
0.8
 72
0
100
AcDbText
  0
INSERT
  5
24A
100
AcDbEntity
  8
0
100
AcDbBlockReference
 62
2
  6
CONTINUOUS
  2
TE_CONNECTIVITY_BL0
 10
315.0
 20
36.0
  0
LINE
  5
24B
100
AcDbEntity
  8
0
100
AcDbLine
 62
2
  6
CONTINUOUS
 10
287.2090159416
 20
18.7593422635
 11
409.2090159416
 21
18.7593422635
  0
LINE
  5
24C
100
AcDbEntity
  8
0
100
AcDbLine
 62
2
  6
CONTINUOUS
 10
287.2090159416
 20
18.7593422635
 11
287.2090159416
 21
9.2342522635
  0
LINE
  5
24D
100
AcDbEntity
  8
0
100
AcDbLine
 62
2
  6
CONTINUOUS
 10
287.2090159416
 20
9.2342522635
 11
409.2090159416
 21
9.2342522635
  0
LINE
  5
24E
100
AcDbEntity
  8
0
100
AcDbLine
 62
2
  6
CONTINUOUS
 10
353.3340159416
 20
18.7593422635
 11
353.3340159416
 21
9.2342522635
  0
LINE
  5
24F
100
AcDbEntity
  8
0
100
AcDbLine
 62
2
  6
CONTINUOUS
 10
367.9590159416
 20
18.7593422635
 11
367.9590159416
 21
9.2342522635
  0
LINE
  5
250
100
AcDbEntity
  8
0
100
AcDbLine
 62
2
  6
CONTINUOUS
 10
409.2090159416
 20
18.7593422635
 11
409.2090159416
 21
9.2342522635
  0
TEXT
  5
251
100
AcDbEntity
  8
0
100
AcDbText
 62
2
  6
CONTINUOUS
 10
306.2795159416
 20
12.4067972635
  7
TEXTSTYLE_2
 40
3.18
  1
C-1558666-3
 41
0.8
 72
1
 11
320.2715159416
 21
12.4067972635
100
AcDbText
  0
TEXT
  5
252
100
AcDbEntity
  8
0
100
AcDbText
 62
2
  6
CONTINUOUS
 10
359.3745159416
 20
12.4067972635
  7
TEXTSTYLE_2
 40
3.18
  1
B
 41
0.8
 72
1
 11
360.6465159416
 21
12.4067972635
100
AcDbText
  0
TEXT
  5
253
100
AcDbEntity
  8
0
100
AcDbText
 62
2
  6
CONTINUOUS
 10
377.1360159416
 20
12.4067972635
  7
TEXTSTYLE_2
 40
3.18
  1
10-Jul-17
 41
0.8
 72
1
 11
388.5840159416
 21
12.4067972635
100
AcDbText
  0
LINE
  5
254
100
AcDbEntity
  8
0
100
AcDbLine
 62
2
  6
CONTINUOUS
 10
17.7838797455
 20
287.0843544705
 11
132.7838797455
 21
287.0843544705
  0
LINE
  5
255
100
AcDbEntity
  8
0
100
AcDbLine
 62
2
  6
CONTINUOUS
 10
17.7838797455
 20
287.0843544705
 11
17.7838797455
 21
272.0843544705
  0
LINE
  5
256
100
AcDbEntity
  8
0
100
AcDbLine
 62
2
  6
CONTINUOUS
 10
17.7838797455
 20
272.0843544705
 11
132.7838797455
 21
272.0843544705
  0
LINE
  5
257
100
AcDbEntity
  8
0
100
AcDbLine
 62
2
  6
CONTINUOUS
 10
132.7838797455
 20
287.0843544705
 11
132.7838797455
 21
272.0843544705
  0
TEXT
  5
258
100
AcDbEntity
  8
0
100
AcDbText
 62
2
  6
CONTINUOUS
 10
17.8463797455
 20
282.0843544705
  7
TEXTSTYLE_2
 40
2.5
  1
  
 41
0.8
 72
0
100
AcDbText
  0
TEXT
  5
259
100
AcDbEntity
  8
0
100
AcDbText
 62
2
  6
CONTINUOUS
 10
21.8463797455
 20
282.0843544705
  7
TEXTSTYLE_1
 40
2.5
  1
e
 41
1.0
 72
0
100
AcDbText
  0
TEXT
  5
25A
100
AcDbEntity
  8
0
100
AcDbText
 62
2
  6
CONTINUOUS
 10
26.4297130788
 20
282.0843544705
  7
TEXTSTYLE_2
 40
2.5
  1
Copyright 
 41
0.8
 72
0
100
AcDbText
  0
TEXT
  5
25B
100
AcDbEntity
  8
0
100
AcDbText
 62
2
  6
CONTINUOUS
 10
46.4297130788
 20
282.0843544705
  7
TEXTSTYLE_2
 40
2.5
  1
10-Jul-17
 41
0.8
 72
0
100
AcDbText
  0
TEXT
  5
25C
100
AcDbEntity
  8
0
100
AcDbText
 62
2
  6
CONTINUOUS
 10
64.4297130788
 20
282.0843544705
  7
TEXTSTYLE_2
 40
2.5
  1
 Tyco Electronics Corporation,
 41
0.8
 72
0
100
AcDbText
  0
TEXT
  5
25D
100
AcDbEntity
  8
0
100
AcDbText
 62
2
  6
CONTINUOUS
 10
17.8463797455
 20
278.3343544705
  7
TEXTSTYLE_2
 40
2.5
  1
 
 41
0.8
 72
0
100
AcDbText
  0
TEXT
  5
25E
100
AcDbEntity
  8
0
100
AcDbText
 62
2
  6
CONTINUOUS
 10
17.8463797455
 20
274.5843544705
  7
TEXTSTYLE_2
 40
2.5
  1
  a TE Connectivity Ltd. Company.  All Rights Reserved.
 41
0.8
 72
0
100
AcDbText
  0
LINE
  5
25F
100
AcDbEntity
  8
0
100
AcDbLine
 62
7
  6
CONTINUOUS
 10
0.0
 20
0.0
 11
0.0
 21
297.0
  0
LINE
  5
260
100
AcDbEntity
  8
0
100
AcDbLine
 62
7
  6
CONTINUOUS
 10
17.7838797455
 20
9.2342568143
 11
17.7838797455
 21
287.0843544705
  0
LINE
  5
261
100
AcDbEntity
  8
0
100
AcDbLine
 62
7
  6
CONTINUOUS
 10
0.0
 20
0.0
 11
420.0
 21
0.0
  0
LINE
  5
262
100
AcDbEntity
  8
0
100
AcDbLine
 62
7
  6
CONTINUOUS
 10
409.2090201263
 20
9.2342568143
 11
17.7838797455
 21
9.2342568143
  0
LINE
  5
263
100
AcDbEntity
  8
0
100
AcDbLine
 62
7
  6
CONTINUOUS
 10
30.4841666107
 20
9.234348367
 11
17.784490097
 21
9.234348367
  0
LINE
  5
264
100
AcDbEntity
  8
0
100
AcDbLine
 62
7
  6
CONTINUOUS
 10
409.2090159416
 20
18.7593422635
 11
273.4388174896
 21
18.7593422635
  0
LINE
  5
265
100
AcDbEntity
  8
DRAFT_ENTITY
100
AcDbLine
 62
7
  6
CONTINUOUS
 10
409.2091421966
 20
28.2845192655
 11
273.4386343841
 21
28.2845192655
  0
LINE
  5
266
100
AcDbEntity
  8
0
100
AcDbLine
 62
7
  6
CONTINUOUS
 10
409.2091421966
 20
44.1593056424
 11
273.4386343841
 21
44.1593056424
  0
LINE
  5
267
100
AcDbEntity
  8
0
100
AcDbLine
 62
7
  6
CONTINUOUS
 10
273.4386343841
 20
44.1593056424
 11
273.4386343841
 21
9.2342568143
  0
LINE
  5
268
100
AcDbEntity
  8
0
100
AcDbLine
 62
7
  6
CONTINUOUS
 10
287.2079097655
 20
18.7593422635
 11
287.2079097655
 21
9.2342568143
  0
LINE
  5
269
100
AcDbEntity
  8
0
100
AcDbLine
 62
7
  6
CONTINUOUS
 10
353.3344447689
 20
18.7593808926
 11
353.3344447689
 21
9.2342954434
  0
LINE
  5
26A
100
AcDbEntity
  8
0
100
AcDbLine
 62
7
  6
CONTINUOUS
 10
17.7838797455
 20
287.0843544705
 11
409.208898056
 21
287.0843544705
  0
LINE
  5
26B
100
AcDbEntity
  8
0
100
AcDbLine
 62
7
  6
CONTINUOUS
 10
0.0
 20
297.0
 11
420.0
 21
297.0
  0
LINE
  5
26C
100
AcDbEntity
  8
0
100
AcDbLine
 62
7
  6
CONTINUOUS
 10
367.9586057154
 20
9.2337890544
 11
367.9586057154
 21
18.7587829509
  0
LINE
  5
26D
100
AcDbEntity
  8
0
100
AcDbLine
 62
7
  6
CONTINUOUS
 10
409.208898056
 20
287.0843544705
 11
409.2090201263
 21
9.2342568143
  0
LINE
  5
26E
100
AcDbEntity
  8
0
100
AcDbLine
 62
7
  6
CONTINUOUS
 10
420.0
 20
0.0
 11
420.0
 21
297.0
  0
LINE
  5
26F
100
AcDbEntity
  8
0
100
AcDbLine
 62
7
  6
CONTINUOUS
 10
257.9543223615
 20
218.1132617457
 11
264.4480707612
 21
241.4844384257
  0
LINE
  5
270
100
AcDbEntity
  8
0
100
AcDbLine
 62
7
  6
CONTINUOUS
 10
258.7394576346
 20
218.5214216429
 11
265.2316124781
 21
241.8868630706
  0
LINE
  5
271
100
AcDbEntity
  8
0
100
AcDbLine
 62
7
  6
CONTINUOUS
 10
258.0332433555
 20
217.263357534
 11
270.0437325743
 21
192.7885397393
  0
LINE
  5
272
100
AcDbEntity
  8
0
100
AcDbLine
 62
7
  6
CONTINUOUS
 10
258.8200420962
 20
216.8520161975
 11
270.8305313149
 21
192.3771984027
  0
LINE
  5
273
100
AcDbEntity
  8
0
100
AcDbLine
 62
7
  6
CONTINUOUS
 10
271.5520504055
 20
193.6742734011
 11
269.8194138414
 21
197.205017523
  0
LINE
  5
274
100
AcDbEntity
  8
0
100
AcDbLine
 62
7
  6
CONTINUOUS
 10
270.9022145721
 20
197.0410700964
 11
271.9393561773
 21
194.9275965023
  0
LINE
  5
275
100
AcDbEntity
  8
0
100
AcDbLine
 62
7
  6
CONTINUOUS
 10
271.1210106438
 20
192.1171907671
 11
321.1796119433
 21
192.1171907671
  0
LINE
  5
276
100
AcDbEntity
  8
0
100
AcDbLine
 62
7
  6
CONTINUOUS
 10
270.8305313149
 20
192.3771984027
 11
320.8891326143
 21
192.3771984027
  0
LINE
  5
277
100
AcDbEntity
  8
0
100
AcDbLine
 62
7
  6
CONTINUOUS
 10
275.0520825404
 20
193.6742734011
 11
273.3194459763
 21
197.205017523
  0
LINE
  5
278
100
AcDbEntity
  8
0
100
AcDbLine
 62
7
  6
CONTINUOUS
 10
275.0520825404
 20
193.6742734011
 11
271.5520504055
 21
193.6742734011
  0
LINE
  5
279
100
AcDbEntity
  8
0
100
AcDbLine
 62
7
  6
CONTINUOUS
 10
274.4370412469
 20
194.9275965023
 11
273.6862139504
 21
194.9275965023
  0
LINE
  5
27A
100
AcDbEntity
  8
0
100
AcDbLine
 62
7
  6
CONTINUOUS
 10
271.9680243727
 20
194.9275965023
 11
271.9393561773
 21
194.9275965023
  0
LINE
  5
27B
100
AcDbEntity
  8
0
100
AcDbLine
 62
7
  6
CONTINUOUS
 10
269.8194138414
 20
197.205017523
 11
270.9022145721
 21
197.0410700964
  0
LINE
  5
27C
100
AcDbEntity
  8
0
100
AcDbLine
 62
7
  6
CONTINUOUS
 10
273.3998996417
 20
197.0410700964
 11
270.9022145721
 21
197.0410700964
  0
LINE
  5
27D
100
AcDbEntity
  8
0
100
AcDbLine
 62
7
  6
CONTINUOUS
 10
273.3194459763
 20
197.205017523
 11
269.8194138414
 21
197.205017523
  0
LINE
  5
27E
100
AcDbEntity
  8
0
100
AcDbLine
 62
7
  6
CONTINUOUS
 10
272.1170327432
 20
196.2227461253
 11
271.9222576568
 21
195.2272179751
  0
LINE
  5
27F
100
AcDbEntity
  8
0
100
AcDbLine
 62
7
  6
CONTINUOUS
 10
271.9393561773
 20
194.9275965023
 11
271.5520504055
 21
193.6742734011
  0
LINE
  5
280
100
AcDbEntity
  8
0
100
AcDbLine
 62
7
  6
CONTINUOUS
 10
318.2541306641
 20
240.9433282158
 11
317.8599012011
 21
240.8301262735
  0
LINE
  5
281
100
AcDbEntity
  8
0
100
AcDbLine
 62
7
  6
CONTINUOUS
 10
273.9938406242
 20
195.642769163
 11
273.5930106188
 21
194.7109167396
  0
LINE
  5
282
100
AcDbEntity
  8
0
100
AcDbLine
 62
7
  6
CONTINUOUS
 10
295.1373032086
 20
241.8868630706
 11
296.4414445373
 21
246.1070698765
  0
LINE
  5
283
100
AcDbEntity
  8
0
100
AcDbLine
 62
7
  6
CONTINUOUS
 10
298.0846986907
 20
241.8868630706
 11
299.3888400194
 21
246.1070698765
  0
LINE
  5
284
100
AcDbEntity
  8
0
100
AcDbLine
 62
7
  6
CONTINUOUS
 10
298.8801122137
 20
241.8868630706
 11
299.8769066571
 21
245.1124940675
  0
LINE
  5
285
100
AcDbEntity
  8
0
100
AcDbLine
 62
7
  6
CONTINUOUS
 10
308.8786433956
 20
216.8520161975
 11
258.8200420962
 21
216.8520161975
  0
LINE
  5
286
100
AcDbEntity
  8
0
100
AcDbLine
 62
7
  6
CONTINUOUS
 10
308.7980589341
 20
218.5214216429
 11
258.7394576346
 21
218.5214216429
  0
LINE
  5
287
100
AcDbEntity
  8
0
100
AcDbLine
 62
7
  6
CONTINUOUS
 10
328.6255467243
 20
219.8085922592
 11
328.1757658485
 21
219.8085922592
  0
LINE
  5
288
100
AcDbEntity
  8
0
100
AcDbLine
 62
7
  6
CONTINUOUS
 10
328.6255467243
 20
219.8085922592
 11
328.2313172614
 21
219.6953903169
  0
LINE
  5
289
100
AcDbEntity
  8
0
100
AcDbLine
 62
7
  6
CONTINUOUS
 10
320.8891326143
 20
192.3771984027
 11
308.8786433956
 21
216.8520161975
  0
LINE
  5
28A
100
AcDbEntity
  8
0
100
AcDbLine
 62
7
  6
CONTINUOUS
 10
316.2362254312
 20
241.8868630706
 11
308.7980589341
 21
218.5214216429
  0
LINE
  5
28B
100
AcDbEntity
  8
0
100
AcDbLine
 62
7
  6
CONTINUOUS
 10
322.2796473472
 20
193.3007856004
 11
310.2691581285
 21
217.7756033952
  0
LINE
  5
28C
100
AcDbEntity
  8
0
100
AcDbLine
 62
7
  6
CONTINUOUS
 10
317.7073246256
 20
241.1410448229
 11
310.2691581285
 21
217.7756033952
  0
LINE
  5
28D
100
AcDbEntity
  8
0
100
AcDbLine
 62
7
  6
CONTINUOUS
 10
299.3888400194
 20
246.1070698765
 11
299.8769066571
 21
245.1124940675
  0
LINE
  5
28E
100
AcDbEntity
  8
0
100
AcDbLine
 62
7
  6
CONTINUOUS
 10
318.2541306641
 20
240.9433282158
 11
317.8043497883
 21
240.9433282158
  0
LINE
  5
28F
100
AcDbEntity
  8
0
100
AcDbLine
 62
7
  6
CONTINUOUS
 10
265.2316124781
 20
241.8868630706
 11
316.2362254312
 21
241.8868630706
  0
LINE
  5
290
100
AcDbEntity
  8
0
100
AcDbLine
 62
7
  6
CONTINUOUS
 10
319.4461177814
 20
237.5977548789
 11
319.4132889288
 21
238.5812106695
  0
LINE
  5
291
100
AcDbEntity
  8
0
100
AcDbLine
 62
7
  6
CONTINUOUS
 10
296.4414445373
 20
246.1070698765
 11
299.3888400194
 21
246.1070698765
  0
LINE
  5
292
100
AcDbEntity
  8
0
100
AcDbLine
 62
7
  6
CONTINUOUS
 10
330.0311187469
 20
216.0277783968
 11
329.8785421714
 21
216.3386969461
  0
LINE
  5
293
100
AcDbEntity
  8
0
100
AcDbLine
 62
7
  6
CONTINUOUS
 10
328.2313172614
 20
219.6953903169
 11
319.4461177814
 21
237.5977548789
  0
LINE
  5
294
100
AcDbEntity
  8
0
100
AcDbLine
 62
7
  6
CONTINUOUS
 10
317.8599012011
 20
240.8301262735
 11
317.7073246256
 21
241.1410448229
  0
LINE
  5
295
100
AcDbEntity
  8
0
100
AcDbLine
 62
7
  6
CONTINUOUS
 10
329.8457133188
 20
217.3221527367
 11
328.6255467243
 21
219.8085922592
  0
LINE
  5
296
100
AcDbEntity
  8
0
100
AcDbLine
 62
7
  6
CONTINUOUS
 10
319.4132889288
 20
238.5812106695
 11
318.2541306641
 21
240.9433282158
  0
LINE
  5
297
100
AcDbEntity
  8
0
100
AcDbLine
 62
7
  6
CONTINUOUS
 10
329.8785421714
 20
216.3386969461
 11
329.8457133188
 21
217.3221527367
  0
LINE
  5
298
100
AcDbEntity
  8
0
100
AcDbLine
 62
7
  6
CONTINUOUS
 10
322.2796473472
 20
193.3007856004
 11
330.0311187469
 21
216.0277783968
  0
LINE
  5
299
100
AcDbEntity
  8
0
100
AcDbLine
 62
7
  6
CONTINUOUS
 10
322.3153686723
 20
192.929819382
 11
330.0688152448
 21
215.6626033034
  0
LINE
  5
29A
100
AcDbEntity
  8
0
100
AcDbLine
 62
7
  6
CONTINUOUS
 10
86.5999999735
 20
93.7624999
 11
86.6122185212
 21
93.0624997752
  0
LINE
  5
29B
100
AcDbEntity
  8
0
100
AcDbLine
 62
7
  6
CONTINUOUS
 10
86.5999999735
 20
101.7624999
 11
86.5999999735
 21
93.7624999
  0
LINE
  5
29C
100
AcDbEntity
  8
0
100
AcDbLine
 62
7
  6
CONTINUOUS
 10
86.6122185212
 20
117.5126827906
 11
86.6122185212
 21
102.4625000248
  0
LINE
  5
29D
100
AcDbEntity
  8
0
100
AcDbLine
 62
7
  6
CONTINUOUS
 10
86.6122185212
 20
93.0624997752
 11
86.6122185212
 21
77.1123172094
  0
LINE
  5
29E
100
AcDbEntity
  8
0
100
AcDbLine
 62
7
  6
CONTINUOUS
 10
86.6122185212
 20
102.4625000248
 11
86.5999999735
 21
101.7624999
  0
LINE
  5
29F
100
AcDbEntity
  8
0
100
AcDbLine
 62
7
  6
CONTINUOUS
 10
87.1257629895
 20
116.9991383223
 11
87.1257629895
 21
77.6258616777
  0
LINE
  5
2A0
100
AcDbEntity
  8
0
100
AcDbLine
 62
7
  6
CONTINUOUS
 10
88.3255802237
 20
76.4260444436
 11
88.3255802237
 21
118.1989555564
  0
LINE
  5
2A1
100
AcDbEntity
  8
0
100
AcDbLine
 62
7
  6
CONTINUOUS
 10
89.800000001
 20
79.7125
 11
89.800000001
 21
85.3925
  0
LINE
  5
2A2
100
AcDbEntity
  8
0
100
AcDbLine
 62
7
  6
CONTINUOUS
 10
93.600000001
 20
79.7125
 11
93.600000001
 21
85.3925
  0
LINE
  5
2A3
100
AcDbEntity
  8
0
100
AcDbLine
 62
7
  6
CONTINUOUS
 10
143.1879642466
 20
75.9124999752
 11
87.8120357554
 21
75.9124999752
  0
LINE
  5
2A4
100
AcDbEntity
  8
0
100
AcDbLine
 62
7
  6
CONTINUOUS
 10
88.3255802237
 20
76.4260444436
 11
142.6744197782
 21
76.4260444436
  0
LINE
  5
2A5
100
AcDbEntity
  8
0
100
AcDbLine
 62
7
  6
CONTINUOUS
 10
87.1257629895
 20
77.6258616777
 11
143.8742370124
 21
77.6258616777
  0
LINE
  5
2A6
100
AcDbEntity
  8
0
100
AcDbLine
 62
7
  6
CONTINUOUS
 10
93.600000001
 20
79.7125
 11
89.800000001
 21
79.7125
  0
LINE
  5
2A7
100
AcDbEntity
  8
0
100
AcDbLine
 62
7
  6
CONTINUOUS
 10
93.600000001
 20
83.1125
 11
89.800000001
 21
83.1125
  0
LINE
  5
2A8
100
AcDbEntity
  8
0
100
AcDbLine
 62
7
  6
CONTINUOUS
 10
93.600000001
 20
85.3925
 11
89.800000001
 21
85.3925
  0
LINE
  5
2A9
100
AcDbEntity
  8
0
100
AcDbLine
 62
7
  6
CONTINUOUS
 10
86.6122185212
 20
77.1123172094
 11
87.1257629895
 21
77.6258616777
  0
LINE
  5
2AA
100
AcDbEntity
  8
0
100
AcDbLine
 62
7
  6
CONTINUOUS
 10
87.1257629895
 20
116.9991383223
 11
86.6122185212
 21
117.5126827906
  0
LINE
  5
2AB
100
AcDbEntity
  8
0
100
AcDbLine
 62
7
  6
CONTINUOUS
 10
87.8120357554
 20
75.9124999752
 11
88.3255802237
 21
76.4260444436
  0
LINE
  5
2AC
100
AcDbEntity
  8
0
100
AcDbLine
 62
7
  6
CONTINUOUS
 10
88.3255802237
 20
118.1989555564
 11
87.8120357554
 21
118.7125000248
  0
LINE
  5
2AD
100
AcDbEntity
  8
0
100
AcDbLine
 62
7
  6
CONTINUOUS
 10
143.1879642466
 20
118.7125000248
 11
142.6744197782
 21
118.1989555564
  0
LINE
  5
2AE
100
AcDbEntity
  8
0
100
AcDbLine
 62
7
  6
CONTINUOUS
 10
142.6744197782
 20
76.4260444436
 11
143.1879642466
 21
75.9124999752
  0
LINE
  5
2AF
100
AcDbEntity
  8
0
100
AcDbLine
 62
7
  6
CONTINUOUS
 10
144.3877814808
 20
117.5126827906
 11
143.8742370124
 21
116.9991383223
  0
LINE
  5
2B0
100
AcDbEntity
  8
0
100
AcDbLine
 62
7
  6
CONTINUOUS
 10
143.8742370124
 20
77.6258616777
 11
144.3877814808
 21
77.1123172094
  0
LINE
  5
2B1
100
AcDbEntity
  8
0
100
AcDbLine
 62
7
  6
CONTINUOUS
 10
87.1257629895
 20
116.9991383223
 11
143.8742370124
 21
116.9991383223
  0
LINE
  5
2B2
100
AcDbEntity
  8
0
100
AcDbLine
 62
7
  6
CONTINUOUS
 10
142.6744197782
 20
118.1989555564
 11
88.3255802237
 21
118.1989555564
  0
LINE
  5
2B3
100
AcDbEntity
  8
0
100
AcDbLine
 62
7
  6
CONTINUOUS
 10
87.8120357554
 20
118.7125000248
 11
143.1879642466
 21
118.7125000248
  0
LINE
  5
2B4
100
AcDbEntity
  8
0
100
AcDbLine
 62
7
  6
CONTINUOUS
 10
144.4000000265
 20
82.3124999876
 11
144.3877814808
 21
83.0125
  0
LINE
  5
2B5
100
AcDbEntity
  8
0
100
AcDbLine
 62
7
  6
CONTINUOUS
 10
142.6744197782
 20
76.4260444436
 11
142.6744197782
 21
118.1989555564
  0
LINE
  5
2B6
100
AcDbEntity
  8
0
100
AcDbLine
 62
7
  6
CONTINUOUS
 10
143.8742370124
 20
77.6258616777
 11
143.8742370124
 21
116.9991383223
  0
LINE
  5
2B7
100
AcDbEntity
  8
0
100
AcDbLine
 62
7
  6
CONTINUOUS
 10
144.3877814808
 20
77.1123172094
 11
144.3877814808
 21
77.6124999752
  0
LINE
  5
2B8
100
AcDbEntity
  8
0
100
AcDbLine
 62
7
  6
CONTINUOUS
 10
144.3877814808
 20
83.0125
 11
144.3877814808
 21
111.8125
  0
LINE
  5
2B9
100
AcDbEntity
  8
0
100
AcDbLine
 62
7
  6
CONTINUOUS
 10
144.3877814808
 20
117.0125000248
 11
144.3877814808
 21
117.5126827906
  0
LINE
  5
2BA
100
AcDbEntity
  8
0
100
AcDbLine
 62
7
  6
CONTINUOUS
 10
144.4000000265
 20
78.3124999876
 11
144.4000000265
 21
82.3124999876
  0
LINE
  5
2BB
100
AcDbEntity
  8
0
100
AcDbLine
 62
7
  6
CONTINUOUS
 10
144.4000000265
 20
112.5125000124
 11
144.4000000265
 21
116.3125000124
  0
LINE
  5
2BC
100
AcDbEntity
  8
0
100
AcDbLine
 62
7
  6
CONTINUOUS
 10
144.3877814808
 20
111.8125
 11
144.4000000265
 21
112.5125000124
  0
LINE
  5
2BD
100
AcDbEntity
  8
0
100
AcDbLine
 62
7
  6
CONTINUOUS
 10
144.4000000265
 20
116.3125000124
 11
144.3877814808
 21
117.0125000248
  0
LINE
  5
2BE
100
AcDbEntity
  8
0
100
AcDbLine
 62
7
  6
CONTINUOUS
 10
144.3877814808
 20
77.6124999752
 11
144.4000000265
 21
78.3124999876
  0
LINE
  5
2BF
100
AcDbEntity
  8
0
100
AcDbLine
 62
7
  6
CONTINUOUS
 10
87.1257629895
 20
180.3415571123
 11
86.5999999735
 21
210.4625001248
  0
LINE
  5
2C0
100
AcDbEntity
  8
0
100
AcDbLine
 62
7
  6
CONTINUOUS
 10
88.3255802237
 20
180.3415571123
 11
87.8120357554
 21
209.7625
  0
LINE
  5
2C1
100
AcDbEntity
  8
0
100
AcDbLine
 62
7
  6
CONTINUOUS
 10
87.787800001
 20
209.7625
 11
87.787800001
 21
210.4625001248
  0
LINE
  5
2C2
100
AcDbEntity
  8
0
100
AcDbLine
 62
7
  6
CONTINUOUS
 10
88.3255802237
 20
179.1625
 11
88.3255802237
 21
180.3415571123
  0
LINE
  5
2C3
100
AcDbEntity
  8
0
100
AcDbLine
 62
7
  6
CONTINUOUS
 10
94.6800000265
 20
209.7625
 11
94.6800000265
 21
217.0625
  0
LINE
  5
2C4
100
AcDbEntity
  8
0
100
AcDbLine
 62
7
  6
CONTINUOUS
 10
95.6800000265
 20
209.7625
 11
95.6800000265
 21
217.0625
  0
LINE
  5
2C5
100
AcDbEntity
  8
0
100
AcDbLine
 62
7
  6
CONTINUOUS
 10
142.6744197782
 20
179.1625
 11
88.3255802237
 21
179.1625
  0
LINE
  5
2C6
100
AcDbEntity
  8
0
100
AcDbLine
 62
7
  6
CONTINUOUS
 10
142.6744197782
 20
180.3415571123
 11
88.3255802237
 21
180.3415571123
  0
LINE
  5
2C7
100
AcDbEntity
  8
0
100
AcDbLine
 62
7
  6
CONTINUOUS
 10
118.6871068076
 20
209.9696067812
 11
118.4800000265
 21
209.7625
  0
LINE
  5
2C8
100
AcDbEntity
  8
0
100
AcDbLine
 62
7
  6
CONTINUOUS
 10
118.9800000265
 20
210.6767135624
 11
118.9800000265
 21
217.0625
  0
LINE
  5
2C9
100
AcDbEntity
  8
0
100
AcDbLine
 62
7
  6
CONTINUOUS
 10
122.1800000265
 20
210.6767135624
 11
122.1800000265
 21
217.0625
  0
LINE
  5
2CA
100
AcDbEntity
  8
0
100
AcDbLine
 62
7
  6
CONTINUOUS
 10
124.8580000265
 20
209.7625
 11
124.8580000265
 21
217.0625
  0
LINE
  5
2CB
100
AcDbEntity
  8
0
100
AcDbLine
 62
7
  6
CONTINUOUS
 10
126.4580000265
 20
209.7625
 11
126.4580000265
 21
217.0625
  0
LINE
  5
2CC
100
AcDbEntity
  8
0
100
AcDbLine
 62
7
  6
CONTINUOUS
 10
86.6122185212
 20
209.7625
 11
144.3877814808
 21
209.7625
  0
LINE
  5
2CD
100
AcDbEntity
  8
0
100
AcDbLine
 62
7
  6
CONTINUOUS
 10
144.4000000265
 20
210.4625000124
 11
143.480000001
 21
210.4625000124
  0
LINE
  5
2CE
100
AcDbEntity
  8
0
100
AcDbLine
 62
7
  6
CONTINUOUS
 10
86.5999999735
 20
210.4625001248
 11
87.787800001
 21
210.4625001248
  0
LINE
  5
2CF
100
AcDbEntity
  8
0
100
AcDbLine
 62
7
  6
CONTINUOUS
 10
124.8580000265
 20
210.5274116208
 11
126.4580000265
 21
210.5274116208
  0
LINE
  5
2D0
100
AcDbEntity
  8
0
100
AcDbLine
 62
7
  6
CONTINUOUS
 10
126.4580000265
 20
211.0964281265
 11
124.8580000265
 21
211.0964281265
  0
LINE
  5
2D1
100
AcDbEntity
  8
0
100
AcDbLine
 62
7
  6
CONTINUOUS
 10
122.6800000265
 20
209.7625
 11
122.4728932453
 21
209.9696067812
  0
LINE
  5
2D2
100
AcDbEntity
  8
0
100
AcDbLine
 62
7
  6
CONTINUOUS
 10
94.6800000265
 20
217.0625
 11
95.6800000265
 21
217.0625
  0
LINE
  5
2D3
100
AcDbEntity
  8
0
100
AcDbLine
 62
7
  6
CONTINUOUS
 10
118.9800000265
 20
217.0625
 11
122.1800000265
 21
217.0625
  0
LINE
  5
2D4
100
AcDbEntity
  8
0
100
AcDbLine
 62
7
  6
CONTINUOUS
 10
124.8580000265
 20
217.0625
 11
126.4580000265
 21
217.0625
  0
LINE
  5
2D5
100
AcDbEntity
  8
0
100
AcDbLine
 62
7
  6
CONTINUOUS
 10
142.6744197782
 20
180.3415571123
 11
142.6744197782
 21
179.1625
  0
LINE
  5
2D6
100
AcDbEntity
  8
0
100
AcDbLine
 62
7
  6
CONTINUOUS
 10
143.1879642466
 20
209.7625
 11
142.6744197782
 21
180.3415571123
  0
LINE
  5
2D7
100
AcDbEntity
  8
0
100
AcDbLine
 62
7
  6
CONTINUOUS
 10
143.480000001
 20
210.4625000124
 11
143.480000001
 21
209.7625
  0
LINE
  5
2D8
100
AcDbEntity
  8
0
100
AcDbLine
 62
7
  6
CONTINUOUS
 10
144.4000000265
 20
210.4625000124
 11
143.8742370124
 21
180.3415571123
  0
LINE
  5
2D9
100
AcDbEntity
  8
0
100
AcDbLine
 62
7
  6
CONTINUOUS
 10
234.2290571123
 20
76.4260444436
 11
263.65
 21
75.9124999752
  0
LINE
  5
2DA
100
AcDbEntity
  8
0
100
AcDbLine
 62
7
  6
CONTINUOUS
 10
233.05
 20
77.6258616777
 11
233.05
 21
116.9991383223
  0
LINE
  5
2DB
100
AcDbEntity
  8
0
100
AcDbLine
 62
7
  6
CONTINUOUS
 10
234.2290571123
 20
77.6258616777
 11
233.05
 21
77.6258616777
  0
LINE
  5
2DC
100
AcDbEntity
  8
0
100
AcDbLine
 62
7
  6
CONTINUOUS
 10
264.3500000124
 20
78.3424999752
 11
270.95
 21
78.3424999752
  0
LINE
  5
2DD
100
AcDbEntity
  8
0
100
AcDbLine
 62
7
  6
CONTINUOUS
 10
234.2290571123
 20
77.6258616777
 11
263.65
 21
77.1123172094
  0
LINE
  5
2DE
100
AcDbEntity
  8
0
100
AcDbLine
 62
7
  6
CONTINUOUS
 10
234.2290571123
 20
77.6258616777
 11
234.2290571123
 21
116.9991383223
  0
LINE
  5
2DF
100
AcDbEntity
  8
0
100
AcDbLine
 62
7
  6
CONTINUOUS
 10
264.9839281265
 20
81.5424999752
 11
270.95
 21
81.5424999752
  0
LINE
  5
2E0
100
AcDbEntity
  8
0
100
AcDbLine
 62
7
  6
CONTINUOUS
 10
263.65
 20
87.0624999752
 11
270.95
 21
87.0624999752
  0
LINE
  5
2E1
100
AcDbEntity
  8
0
100
AcDbLine
 62
7
  6
CONTINUOUS
 10
263.65
 20
88.0624999752
 11
270.95
 21
88.0624999752
  0
LINE
  5
2E2
100
AcDbEntity
  8
0
100
AcDbLine
 62
7
  6
CONTINUOUS
 10
264.3500000124
 20
81.7650900901
 11
264.4149116208
 21
81.7201738743
  0
LINE
  5
2E3
100
AcDbEntity
  8
0
100
AcDbLine
 62
7
  6
CONTINUOUS
 10
263.65
 20
111.8125
 11
264.3500000124
 21
112.5125000124
  0
LINE
  5
2E4
100
AcDbEntity
  8
0
100
AcDbLine
 62
7
  6
CONTINUOUS
 10
264.3500000124
 20
82.3124999876
 11
263.65
 21
83.0125
  0
LINE
  5
2E5
100
AcDbEntity
  8
0
100
AcDbLine
 62
7
  6
CONTINUOUS
 10
263.65
 20
75.9124999752
 11
263.65
 21
77.6124999752
  0
LINE
  5
2E6
100
AcDbEntity
  8
0
100
AcDbLine
 62
7
  6
CONTINUOUS
 10
263.65
 20
83.0125
 11
263.65
 21
111.8125
  0
LINE
  5
2E7
100
AcDbEntity
  8
0
100
AcDbLine
 62
7
  6
CONTINUOUS
 10
263.65
 20
117.0125000248
 11
263.65
 21
118.7125000248
  0
LINE
  5
2E8
100
AcDbEntity
  8
0
100
AcDbLine
 62
7
  6
CONTINUOUS
 10
264.3500001248
 20
93.7624999
 11
263.65
 21
93.0624997752
  0
LINE
  5
2E9
100
AcDbEntity
  8
0
100
AcDbLine
 62
7
  6
CONTINUOUS
 10
263.65
 20
107.3824999752
 11
270.95
 21
107.3824999752
  0
LINE
  5
2EA
100
AcDbEntity
  8
0
100
AcDbLine
 62
7
  6
CONTINUOUS
 10
263.65
 20
108.3824999752
 11
270.95
 21
108.3824999752
  0
LINE
  5
2EB
100
AcDbEntity
  8
0
100
AcDbLine
 62
7
  6
CONTINUOUS
 10
264.3500001248
 20
101.7624999
 11
264.3500001248
 21
93.7624999
  0
LINE
  5
2EC
100
AcDbEntity
  8
0
100
AcDbLine
 62
7
  6
CONTINUOUS
 10
264.3500000124
 20
78.3124999876
 11
264.3500000124
 21
82.3124999876
  0
LINE
  5
2ED
100
AcDbEntity
  8
0
100
AcDbLine
 62
7
  6
CONTINUOUS
 10
264.3500000124
 20
112.5125000124
 11
264.3500000124
 21
116.3125000124
  0
LINE
  5
2EE
100
AcDbEntity
  8
0
100
AcDbLine
 62
7
  6
CONTINUOUS
 10
264.5642135624
 20
114.7024999752
 11
264.5642135624
 21
116.3024999752
  0
LINE
  5
2EF
100
AcDbEntity
  8
0
100
AcDbLine
 62
7
  6
CONTINUOUS
 10
263.65
 20
102.4625000248
 11
264.3500001248
 21
101.7624999
  0
LINE
  5
2F0
100
AcDbEntity
  8
0
100
AcDbLine
 62
7
  6
CONTINUOUS
 10
264.3500000124
 20
114.7024999752
 11
270.95
 21
114.7024999752
  0
LINE
  5
2F1
100
AcDbEntity
  8
0
100
AcDbLine
 62
7
  6
CONTINUOUS
 10
270.95
 20
116.3024999752
 11
270.95
 21
114.7024999752
  0
LINE
  5
2F2
100
AcDbEntity
  8
0
100
AcDbLine
 62
7
  6
CONTINUOUS
 10
270.95
 20
108.3824999752
 11
270.95
 21
107.3824999752
  0
LINE
  5
2F3
100
AcDbEntity
  8
0
100
AcDbLine
 62
7
  6
CONTINUOUS
 10
270.95
 20
88.0624999752
 11
270.95
 21
87.0624999752
  0
LINE
  5
2F4
100
AcDbEntity
  8
0
100
AcDbLine
 62
7
  6
CONTINUOUS
 10
270.95
 20
81.5424999752
 11
270.95
 21
78.3424999752
  0
LINE
  5
2F5
100
AcDbEntity
  8
0
100
AcDbLine
 62
7
  6
CONTINUOUS
 10
264.3500000124
 20
116.3024999752
 11
270.95
 21
116.3024999752
  0
LINE
  5
2F6
100
AcDbEntity
  8
0
100
AcDbLine
 62
7
  6
CONTINUOUS
 10
263.65
 20
117.5126827906
 11
234.2290571123
 21
116.9991383223
  0
LINE
  5
2F7
100
AcDbEntity
  8
0
100
AcDbLine
 62
7
  6
CONTINUOUS
 10
263.65
 20
118.7125000248
 11
234.2290571123
 21
118.1989555564
  0
LINE
  5
2F8
100
AcDbEntity
  8
0
100
AcDbLine
 62
7
  6
CONTINUOUS
 10
233.05
 20
116.9991383223
 11
234.2290571123
 21
116.9991383223
  0
LINE
  5
2F9
100
AcDbEntity
  8
0
100
AcDbLine
 62
7
  6
CONTINUOUS
 10
263.65
 20
77.6124999752
 11
264.3500000124
 21
78.3124999876
  0
LINE
  5
2FA
100
AcDbEntity
  8
0
100
AcDbLine
 62
7
  6
CONTINUOUS
 10
264.3500000124
 20
116.3125000124
 11
263.65
 21
117.0125000248
  0
ARC
  5
2FB
100
AcDbEntity
  8
0
100
AcDbCircle
 62
7
  6
CONTINUOUS
 10
259.1105470756
 20
217.7920134956
 40
1.2000241397
100
AcDbArc
 50
164.4724516818
 51
206.1385146419
  0
ARC
  5
2FC
100
AcDbEntity
  8
0
100
AcDbCircle
 62
7
  6
CONTINUOUS
 10
321.179608984
 20
193.317193746
 40
1.2000031771
100
AcDbArc
 50
269.9990837603
 51
341.1682395125
  0
ARC
  5
2FD
100
AcDbEntity
  8
0
100
AcDbCircle
 62
7
  6
CONTINUOUS
 10
271.1210127658
 20
193.3171909715
 40
1.2000002045
100
AcDbArc
 50
206.137954159
 51
269.9998986814
  0
ARC
  5
2FE
100
AcDbEntity
  8
0
100
AcDbCircle
 62
7
  6
CONTINUOUS
 10
88.32602136
 20
77.626302814
 40
1.2002615922
100
AcDbArc
 50
180.0210581692
 51
269.9789418308
  0
ARC
  5
2FF
100
AcDbEntity
  8
0
100
AcDbCircle
 62
7
  6
CONTINUOUS
 10
142.6739785487
 20
77.6263029073
 40
1.2002615922
100
AcDbArc
 50
270.021062621
 51
359.978937379
  0
ARC
  5
300
100
AcDbEntity
  8
0
100
AcDbCircle
 62
7
  6
CONTINUOUS
 10
142.6739785487
 20
116.9986970927
 40
1.2002615922
100
AcDbArc
 50
0.021062621
 51
89.9789373789
  0
ARC
  5
301
100
AcDbEntity
  8
0
100
AcDbCircle
 62
7
  6
CONTINUOUS
 10
88.3260214509
 20
116.998697095
 40
1.2002615904
100
AcDbArc
 50
90.0210625103
 51
179.9789374897
  0
CIRCLE
  5
302
100
AcDbEntity
  8
0
100
AcDbCircle
 62
7
  6
CONTINUOUS
 10
91.700000001
 20
81.6125
 40
1.1832662348
  0
CIRCLE
  5
303
100
AcDbEntity
  8
0
100
AcDbCircle
 62
7
  6
CONTINUOUS
 10
91.700000001
 20
81.6125
 40
0.9840272952
  0
CIRCLE
  5
304
100
AcDbEntity
  8
0
100
AcDbCircle
 62
7
  6
CONTINUOUS
 10
91.700000001
 20
81.6125
 40
0.8759908432
  0
CIRCLE
  5
305
100
AcDbEntity
  8
0
100
AcDbCircle
 62
7
  6
CONTINUOUS
 10
91.700000001
 20
81.6125
 40
0.6767519036
  0
ARC
  5
306
100
AcDbEntity
  8
0
100
AcDbCircle
 62
7
  6
CONTINUOUS
 10
88.3255802237
 20
180.3625
 40
1.2
100
AcDbArc
 50
181.0
 51
270.0
  0
ARC
  5
307
100
AcDbEntity
  8
0
100
AcDbCircle
 62
7
  6
CONTINUOUS
 10
142.6744197782
 20
180.3625
 40
1.2
100
AcDbArc
 50
270.0
 51
359.0
  0
ARC
  5
308
100
AcDbEntity
  8
0
100
AcDbCircle
 62
7
  6
CONTINUOUS
 10
123.1800000265
 20
210.6767135624
 40
1.0
100
AcDbArc
 50
180.0
 51
225.0
  0
ARC
  5
309
100
AcDbEntity
  8
0
100
AcDbCircle
 62
7
  6
CONTINUOUS
 10
117.9800000265
 20
210.6767135624
 40
1.0
100
AcDbArc
 50
315.0
 51
360.0
  0
ARC
  5
30A
100
AcDbEntity
  8
0
100
AcDbCircle
 62
7
  6
CONTINUOUS
 10
234.25
 20
77.6258616777
 40
1.2
100
AcDbArc
 50
180.0
 51
269.0
  0
ARC
  5
30B
100
AcDbEntity
  8
0
100
AcDbCircle
 62
7
  6
CONTINUOUS
 10
234.25
 20
116.9991383223
 40
1.2
100
AcDbArc
 50
91.0
 51
180.0
  0
ARC
  5
30C
100
AcDbEntity
  8
0
100
AcDbCircle
 62
7
  6
CONTINUOUS
 10
264.9839281265
 20
82.5424999752
 40
1.0
100
AcDbArc
 50
235.3183278531
 51
270.0
  0
SPLINE
  5
30D
100
AcDbEntity
  8
0
100
AcDbSpline
 62
7
  6
CONTINUOUS
 70
0
 71
3
 72
19
 73
15
 74
0
 42
0.0000001
 43
0.0000001
 44
0.0000000001
 40
0.0
 40
0.0
 40
0.0
 40
0.0
 40
0.1175251534
 40
0.1801561295
 40
0.2453265161
 40
0.3811490549
 40
0.5190040037
 40
0.5864604406
 40
0.6518504904
 40
0.774730284
 40
0.8327547864
 40
0.8891711514
 40
0.9447424299
 40
1.0
 40
1.0
 40
1.0
 40
1.0
 10
271.9680243727
 20
194.9238890632
 30
0.0
 10
272.0012478349
 20
194.8561867268
 30
0.0
 10
272.0722936745
 20
194.7617867243
 30
0.0
 10
272.1900648893
 20
194.6571462144
 30
0.0
 10
272.3292500668
 20
194.5602919881
 30
0.0
 10
272.5267769405
 20
194.4657884776
 30
0.0
 10
272.7398219436
 20
194.4097089406
 30
0.0
 10
272.9128245528
 20
194.3908603249
 30
0.0
 10
273.0770672147
 20
194.3905256675
 30
0.0
 10
273.2351495321
 20
194.417524267
 30
0.0
 10
273.3757149388
 20
194.4777985429
 30
0.0
 10
273.4670974892
 20
194.5387162631
 30
0.0
 10
273.5424595141
 20
194.6163323025
 30
0.0
 10
273.5789996654
 20
194.6783439765
 30
0.0
 10
273.5930106188
 20
194.7109167396
 30
0.0
  0
SPLINE
  5
30E
100
AcDbEntity
  8
0
100
AcDbSpline
 62
7
  6
CONTINUOUS
 70
0
 71
3
 72
10
 73
6
 74
0
 42
0.0000001
 43
0.0000001
 44
0.0000000001
 40
0.0
 40
0.0
 40
0.0
 40
0.0
 40
0.248311485
 40
0.4972443998
 40
1.0
 40
1.0
 40
1.0
 40
1.0
 10
271.9222576568
 20
195.2272179751
 30
0.0
 10
271.9173069724
 20
195.2019141962
 30
0.0
 10
271.9120379105
 20
195.1502045244
 30
0.0
 10
271.9197683386
 20
195.046267641
 30
0.0
 10
271.9450263589
 20
194.9707541147
 30
0.0
 10
271.9680243727
 20
194.9238890632
 30
0.0
  0
SPLINE
  5
30F
100
AcDbEntity
  8
0
100
AcDbSpline
 62
7
  6
CONTINUOUS
 70
0
 71
3
 72
13
 73
9
 74
0
 42
0.0000001
 43
0.0000001
 44
0.0000000001
 40
0.0
 40
0.0
 40
0.0
 40
0.0
 40
0.3153967777
 40
0.5810550991
 40
0.6971073182
 40
0.8038547234
 40
0.9037566048
 40
1.0
 40
1.0
 40
1.0
 40
1.0
 10
320.8891326143
 20
192.3771984027
 30
0.0
 10
320.9080744156
 20
192.338599048
 30
0.0
 10
320.9473738578
 20
192.2694831657
 30
0.0
 10
321.0090398931
 20
192.1959942713
 30
0.0
 10
321.0615400742
 20
192.1546573227
 30
0.0
 10
321.100201407
 20
192.1331992751
 30
0.0
 10
321.1396475894
 20
192.1201391619
 30
0.0
 10
321.1664693922
 20
192.1171938881
 30
0.0
 10
321.1795897939
 20
192.1171915111
 30
0.0
  0
SPLINE
  5
310
100
AcDbEntity
  8
0
100
AcDbSpline
 62
7
  6
CONTINUOUS
 70
0
 71
3
 72
13
 73
9
 74
0
 42
0.0000001
 43
0.0000001
 44
0.0000000001
 40
0.0
 40
0.0
 40
0.0
 40
0.0
 40
0.2303349785
 40
0.3554079781
 40
0.4847684801
 40
0.6162896672
 40
0.7476306377
 40
1.0
 40
1.0
 40
1.0
 40
1.0
 10
322.2796473472
 20
193.3007856004
 30
0.0
 10
322.2372103907
 20
193.1720121141
 30
0.0
 10
322.1279792278
 20
192.986548521
 30
0.0
 10
321.9297399016
 20
192.7807203458
 30
0.0
 10
321.7490609608
 20
192.6414800606
 30
0.0
 10
321.5474138173
 20
192.5273837344
 30
0.0
 10
321.2648609631
 20
192.415738523
 30
0.0
 10
321.0376888572
 20
192.3771984027
 30
0.0
 10
320.8891326143
 20
192.3771984027
 30
0.0
  0
SPLINE
  5
311
100
AcDbEntity
  8
0
100
AcDbSpline
 62
7
  6
CONTINUOUS
 70
0
 71
3
 72
11
 73
7
 74
0
 42
0.0000001
 43
0.0000001
 44
0.0000000001
 40
0.0
 40
0.0
 40
0.0
 40
0.0
 40
0.2346368248
 40
0.4743775185
 40
0.7274841539
 40
1.0
 40
1.0
 40
1.0
 40
1.0
 10
273.5930095199
 20
194.7109171209
 30
0.0
 10
273.6021860388
 20
194.7322512118
 30
0.0
 10
273.6155381728
 20
194.7778419704
 30
0.0
 10
273.6185200833
 20
194.8504251487
 30
0.0
 10
273.6046777108
 20
194.9254579337
 30
0.0
 10
273.5854049712
 20
194.9741286183
 30
0.0
 10
273.573522151
 20
194.9983432737
 30
0.0
  0
SPLINE
  5
312
100
AcDbEntity
  8
0
100
AcDbSpline
 62
7
  6
CONTINUOUS
 70
0
 71
3
 72
9
 73
5
 74
0
 42
0.0000001
 43
0.0000001
 44
0.0000000001
 40
0.0
 40
0.0
 40
0.0
 40
0.0
 40
0.4963553196
 40
1.0
 40
1.0
 40
1.0
 40
1.0
 10
273.9938393902
 20
195.6427695923
 30
0.0
 10
274.002818577
 20
195.6636449144
 30
0.0
 10
274.0165069967
 20
195.7077441049
 30
0.0
 10
274.0205674289
 20
195.753712396
 30
0.0
 10
274.0203447872
 20
195.776769592
 30
0.0
  0
SPLINE
  5
313
100
AcDbEntity
  8
0
100
AcDbSpline
 62
7
  6
CONTINUOUS
 70
0
 71
3
 72
13
 73
9
 74
0
 42
0.0000001
 43
0.0000001
 44
0.0000000001
 40
0.0
 40
0.0
 40
0.0
 40
0.0
 40
0.2523691296
 40
0.3837101234
 40
0.5152313536
 40
0.644591899
 40
0.7696649436
 40
1.0
 40
1.0
 40
1.0
 40
1.0
 10
308.8786433956
 20
216.8520161975
 30
0.0
 10
309.0271995016
 20
216.8520161975
 30
0.0
 10
309.2543714858
 20
216.8905562456
 30
0.0
 10
309.5369242682
 20
217.0022013772
 30
0.0
 10
309.7385714948
 20
217.1162976872
 30
0.0
 10
309.9192505238
 20
217.2555379883
 30
0.0
 10
310.1174899365
 20
217.4613662166
 30
0.0
 10
310.2267211576
 20
217.6468298652
 30
0.0
 10
310.2691581285
 20
217.7756033952
 30
0.0
  0
SPLINE
  5
314
100
AcDbEntity
  8
0
100
AcDbSpline
 62
7
  6
CONTINUOUS
 70
0
 71
3
 72
15
 73
11
 74
0
 42
0.0000001
 43
0.0000001
 44
0.0000000001
 40
0.0
 40
0.0
 40
0.0
 40
0.0
 40
0.0993984654
 40
0.2106751464
 40
0.3326142467
 40
0.4628412367
 40
0.5982474426
 40
0.7353142331
 40
0.8703927215
 40
1.0
 40
1.0
 40
1.0
 40
1.0
 10
310.2691581285
 20
217.7756033952
 30
0.0
 10
310.2433621514
 20
217.826266054
 30
0.0
 10
310.1754520502
 20
217.9270529581
 30
0.0
 10
310.042014823
 20
218.0636724813
 30
0.0
 10
309.8760861075
 20
218.1899759599
 30
0.0
 10
309.6837964867
 20
218.301298978
 30
0.0
 10
309.4722572758
 20
218.3935838464
 30
0.0
 10
309.2493634251
 20
218.4633617897
 30
0.0
 10
309.0235165882
 20
218.508026311
 30
0.0
 10
308.872180575
 20
218.5203013917
 30
0.0
 10
308.7980589341
 20
218.5214216429
 30
0.0
  0
SPLINE
  5
315
100
AcDbEntity
  8
0
100
AcDbSpline
 62
7
  6
CONTINUOUS
 70
0
 71
3
 72
15
 73
11
 74
0
 42
0.0000001
 43
0.0000001
 44
0.0000000001
 40
0.0
 40
0.0
 40
0.0
 40
0.0
 40
0.1194691226
 40
0.2487075343
 40
0.3838019193
 40
0.5204858575
 40
0.6544089934
 40
0.781374947
 40
0.8975941934
 40
1.0
 40
1.0
 40
1.0
 40
1.0
 10
308.7980589341
 20
218.5214216429
 30
0.0
 10
308.7787019853
 20
218.4564865072
 30
0.0
 10
308.7460912027
 20
218.3189645014
 30
0.0
 10
308.7148379477
 20
218.1033123612
 30
0.0
 10
308.7000795152
 20
217.8761194918
 30
0.0
 10
308.7023984114
 20
217.6458173129
 30
0.0
 10
308.7216972689
 20
217.4209307715
 30
0.0
 10
308.7572377484
 20
217.2097381634
 30
0.0
 10
308.8076271406
 20
217.0200219572
 30
0.0
 10
308.8530561919
 20
216.9041574664
 30
0.0
 10
308.8786433956
 20
216.8520161975
 30
0.0
  0
SPLINE
  5
316
100
AcDbEntity
  8
0
100
AcDbSpline
 62
7
  6
CONTINUOUS
 70
0
 71
3
 72
13
 73
9
 74
0
 42
0.0000001
 43
0.0000001
 44
0.0000000001
 40
0.0
 40
0.0
 40
0.0
 40
0.0
 40
0.1129011828
 40
0.2273081669
 40
0.3445828362
 40
0.4658283797
 40
0.7224574115
 40
1.0
 40
1.0
 40
1.0
 40
1.0
 10
258.0332466984
 20
217.2633512231
 30
0.0
 10
258.0487359851
 20
217.2317904182
 30
0.0
 10
258.0853893645
 20
217.1707734274
 30
0.0
 10
258.1554969096
 20
217.088936936
 30
0.0
 10
258.2397771888
 20
217.0176906767
 30
0.0
 10
258.3716087296
 20
216.9367514691
 30
0.0
 10
258.5666063874
 20
216.8685115602
 30
0.0
 10
258.7336168149
 20
216.8520161975
 30
0.0
 10
258.8200420962
 20
216.8520161975
 30
0.0
  0
SPLINE
  5
317
100
AcDbEntity
  8
0
100
AcDbSpline
 62
7
  6
CONTINUOUS
 70
0
 71
3
 72
11
 73
7
 74
0
 42
0.0000001
 43
0.0000001
 44
0.0000000001
 40
0.0
 40
0.0
 40
0.0
 40
0.0
 40
0.2332182461
 40
0.473744639
 40
0.7278479061
 40
1.0
 40
1.0
 40
1.0
 40
1.0
 10
322.315376095
 20
192.9298443765
 30
0.0
 10
322.3249510836
 20
192.9579250918
 30
0.0
 10
322.3380316587
 20
193.0173472141
 30
0.0
 10
322.3380118891
 20
193.1105768762
 30
0.0
 10
322.3187907015
 20
193.2067671579
 30
0.0
 10
322.2944527232
 20
193.2694898299
 30
0.0
 10
322.2796473472
 20
193.3007856004
 30
0.0
  0
SPLINE
  5
318
100
AcDbEntity
  8
0
100
AcDbSpline
 62
7
  6
CONTINUOUS
 70
0
 71
3
 72
9
 73
5
 74
0
 42
0.0000001
 43
0.0000001
 44
0.0000000001
 40
0.0
 40
0.0
 40
0.0
 40
0.0
 40
0.2429618615
 40
1.0
 40
1.0
 40
1.0
 40
1.0
 10
272.0199326267
 20
196.1086552754
 30
0.0
 10
272.0238190512
 20
196.1007355704
 30
0.0
 10
272.0404454673
 20
196.0684501355
 30
0.0
 10
272.0594832186
 20
196.0374238242
 30
0.0
 10
272.0749626064
 20
196.0147087417
 30
0.0
  0
SPLINE
  5
319
100
AcDbEntity
  8
0
100
AcDbSpline
 62
7
  6
CONTINUOUS
 70
0
 71
3
 72
9
 73
5
 74
0
 42
0.0000001
 43
0.0000001
 44
0.0000000001
 40
0.0
 40
0.0
 40
0.0
 40
0.0
 40
0.2673455463
 40
1.0
 40
1.0
 40
1.0
 40
1.0
 10
273.9130844487
 20
195.4480041261
 30
0.0
 10
273.9333733808
 20
195.4560016776
 30
0.0
 10
274.0080379994
 20
195.4887511596
 30
0.0
 10
274.0777766305
 20
195.5340575503
 30
0.0
 10
274.1214911886
 20
195.5748117961
 30
0.0
  0
SPLINE
  5
31A
100
AcDbEntity
  8
0
100
AcDbSpline
 62
7
  6
CONTINUOUS
 70
0
 71
3
 72
21
 73
17
 74
0
 42
0.0000001
 43
0.0000001
 44
0.0000000001
 40
0.0
 40
0.0
 40
0.0
 40
0.0
 40
0.1585128589
 40
0.3161747684
 40
0.3920079803
 40
0.4644849898
 40
0.5328166239
 40
0.5964460324
 40
0.655128426
 40
0.7090257031
 40
0.7588045458
 40
0.8056939478
 40
0.8514158853
 40
0.897919849
 40
0.947002105
 40
1.0
 40
1.0
 40
1.0
 40
1.0
 10
273.597546795
 20
196.6424987719
 30
0.0
 10
273.4951329191
 20
196.6923571616
 30
0.0
 10
273.2818266053
 20
196.7740336313
 30
0.0
 10
273.0045301003
 20
196.8310517806
 30
0.0
 10
272.784915422
 20
196.8463408958
 30
0.0
 10
272.629025766
 20
196.842249127
 30
0.0
 10
272.4830953031
 20
196.8228367232
 30
0.0
 10
272.3500899337
 20
196.7884479704
 30
0.0
 10
272.2327056856
 20
196.7396751788
 30
0.0
 10
272.1333565282
 20
196.6772926917
 30
0.0
 10
272.0542673799
 20
196.6022470702
 30
0.0
 10
271.9975935622
 20
196.5158308255
 30
0.0
 10
271.9652361168
 20
196.4200674511
 30
0.0
 10
271.958187573
 20
196.317709306
 30
0.0
 10
271.9762053103
 20
196.2116101654
 30
0.0
 10
272.0031551516
 20
196.1428441946
 30
0.0
 10
272.0199326267
 20
196.1086552754
 30
0.0
  0
SPLINE
  5
31B
100
AcDbEntity
  8
0
100
AcDbSpline
 62
7
  6
CONTINUOUS
 70
0
 71
3
 72
23
 73
19
 74
0
 42
0.0000001
 43
0.0000001
 44
0.0000000001
 40
0.0
 40
0.0
 40
0.0
 40
0.0
 40
0.0572328981
 40
0.1209490574
 40
0.1905347064
 40
0.2647135559
 40
0.3417904939
 40
0.4198309626
 40
0.4968253534
 40
0.5708458402
 40
0.6402099917
 40
0.7036672191
 40
0.7606299524
 40
0.8114656892
 40
0.8577900886
 40
0.9024729504
 40
0.9489323028
 40
1.0
 40
1.0
 40
1.0
 40
1.0
 10
272.0991574959
 20
194.8553321743
 30
0.0
 10
272.113444844
 20
194.8262176032
 30
0.0
 10
272.151252105
 20
194.7683321479
 30
0.0
 10
272.2261783481
 20
194.6899858725
 30
0.0
 10
272.3195917492
 20
194.6179488489
 30
0.0
 10
272.4280336589
 20
194.5548737183
 30
0.0
 10
272.547492666
 20
194.5030530549
 30
0.0
 10
272.673505161
 20
194.4644291887
 30
0.0
 10
272.8013530249
 20
194.4404457565
 30
0.0
 10
272.9262633691
 20
194.4320004151
 30
0.0
 10
273.0436193285
 20
194.4394215891
 30
0.0
 10
273.1491638519
 20
194.4625074908
 30
0.0
 10
273.2391456016
 20
194.5006560388
 30
0.0
 10
273.3102569018
 20
194.5530753631
 30
0.0
 10
273.3590779495
 20
194.618705315
 30
0.0
 10
273.3819881785
 20
194.6948621842
 30
0.0
 10
273.3776156812
 20
194.7766998198
 30
0.0
 10
273.358565482
 20
194.829353862
 30
0.0
 10
273.3458171853
 20
194.8553321743
 30
0.0
  0
SPLINE
  5
31C
100
AcDbEntity
  8
0
100
AcDbSpline
 62
7
  6
CONTINUOUS
 70
0
 71
3
 72
23
 73
19
 74
0
 42
0.0000001
 43
0.0000001
 44
0.0000000001
 40
0.0
 40
0.0
 40
0.0
 40
0.0
 40
0.0572328981
 40
0.1209490574
 40
0.1905347064
 40
0.2647135559
 40
0.3417904939
 40
0.4198309626
 40
0.4968253534
 40
0.5708458402
 40
0.6402099917
 40
0.7036672191
 40
0.7606299524
 40
0.8114656892
 40
0.8577900886
 40
0.9024729504
 40
0.9489323028
 40
1.0
 40
1.0
 40
1.0
 40
1.0
 10
273.3458171853
 20
194.8553321743
 30
0.0
 10
273.3315298372
 20
194.8844467453
 30
0.0
 10
273.2937225762
 20
194.9423322007
 30
0.0
 10
273.2187963331
 20
195.0206784761
 30
0.0
 10
273.1253829319
 20
195.0927154997
 30
0.0
 10
273.0169410223
 20
195.1557906303
 30
0.0
 10
272.8974820152
 20
195.2076112937
 30
0.0
 10
272.7714695201
 20
195.2462351599
 30
0.0
 10
272.6436216563
 20
195.2702185921
 30
0.0
 10
272.5187113121
 20
195.2786639335
 30
0.0
 10
272.4013553527
 20
195.2712427595
 30
0.0
 10
272.2958108293
 20
195.2481568577
 30
0.0
 10
272.2058290796
 20
195.2100083098
 30
0.0
 10
272.1347177794
 20
195.1575889854
 30
0.0
 10
272.0858967316
 20
195.0919590335
 30
0.0
 10
272.0629865027
 20
195.0158021643
 30
0.0
 10
272.067359
 20
194.9339645288
 30
0.0
 10
272.0864091992
 20
194.8813104866
 30
0.0
 10
272.0991574959
 20
194.8553321743
 30
0.0
  0
SPLINE
  5
31D
100
AcDbEntity
  8
0
100
AcDbSpline
 62
7
  6
CONTINUOUS
 70
0
 71
3
 72
22
 73
18
 74
0
 42
0.0000001
 43
0.0000001
 44
0.0000000001
 40
0.0
 40
0.0
 40
0.0
 40
0.0
 40
0.0548152797
 40
0.1150501273
 40
0.1803805109
 40
0.2500283784
 40
0.3229037757
 40
0.3977082274
 40
0.5472438493
 40
0.6193223382
 40
0.6878363195
 40
0.7517731333
 40
0.8104702634
 40
0.863756201
 40
0.9121172862
 40
0.9568427784
 40
1.0
 40
1.0
 40
1.0
 40
1.0
 10
273.573522151
 20
194.9983432737
 30
0.0
 10
273.5577007383
 20
195.0305839414
 30
0.0
 10
273.5173109703
 20
195.0948268614
 30
0.0
 10
273.4386111407
 20
195.1835228552
 30
0.0
 10
273.3411567577
 20
195.2669028254
 30
0.0
 10
273.2276671591
 20
195.342671053
 30
0.0
 10
273.1012579711
 20
195.408788986
 30
0.0
 10
272.9203832683
 20
195.4815032557
 30
0.0
 10
272.7302740724
 20
195.5279587625
 30
0.0
 10
272.5406518405
 20
195.5447045947
 30
0.0
 10
272.4063682919
 20
195.5417787724
 30
0.0
 10
272.2820933662
 20
195.5235917452
 30
0.0
 10
272.1711762122
 20
195.4905494383
 30
0.0
 10
272.0766150289
 20
195.4433433017
 30
0.0
 10
272.0010955375
 20
195.3827994841
 30
0.0
 10
271.9473269691
 20
195.3101659671
 30
0.0
 10
271.9276858641
 20
195.2549674003
 30
0.0
 10
271.9222586967
 20
195.2272176969
 30
0.0
  0
SPLINE
  5
31E
100
AcDbEntity
  8
0
100
AcDbSpline
 62
7
  6
CONTINUOUS
 70
0
 71
3
 72
19
 73
15
 74
0
 42
0.0000001
 43
0.0000001
 44
0.0000000001
 40
0.0
 40
0.0
 40
0.0
 40
0.0
 40
0.131108102
 40
0.2749388026
 40
0.4235776691
 40
0.5682125334
 40
0.6365195859
 40
0.7009674414
 40
0.7609660248
 40
0.8162288033
 40
0.8668694282
 40
0.913504507
 40
0.9573185178
 40
1.0
 40
1.0
 40
1.0
 40
1.0
 10
273.8349725263
 20
196.1545187601
 30
0.0
 10
273.7748647017
 20
196.2163707599
 30
0.0
 10
273.6316248079
 20
196.3296534318
 30
0.0
 10
273.3829422022
 20
196.4582457049
 30
0.0
 10
273.1076204472
 20
196.545677143
 30
0.0
 10
272.8706287842
 20
196.5787039376
 30
0.0
 10
272.6878776959
 20
196.5773575793
 30
0.0
 10
272.5616292012
 20
196.5628636565
 30
0.0
 10
272.4463558773
 20
196.5351690541
 30
0.0
 10
272.3445085798
 20
196.4947655761
 30
0.0
 10
272.2582910442
 20
196.4423325218
 30
0.0
 10
272.1897204826
 20
196.3786693259
 30
0.0
 10
272.1407892826
 20
196.3049774173
 30
0.0
 10
272.1224230595
 20
196.2503011188
 30
0.0
 10
272.1170339116
 20
196.2227458137
 30
0.0
  0
SPLINE
  5
31F
100
AcDbEntity
  8
0
100
AcDbSpline
 62
7
  6
CONTINUOUS
 70
0
 71
3
 72
13
 73
9
 74
0
 42
0.0000001
 43
0.0000001
 44
0.0000000001
 40
0.0
 40
0.0
 40
0.0
 40
0.0
 40
0.0962439492
 40
0.1961449791
 40
0.3028909215
 40
0.4189417298
 40
0.6845991498
 40
1.0
 40
1.0
 40
1.0
 40
1.0
 10
271.1210106438
 20
192.1171915125
 30
0.0
 10
271.1078894608
 20
192.1171922912
 30
0.0
 10
271.0810658729
 20
192.120134632
 30
0.0
 10
271.0416165437
 20
192.1331917961
 30
0.0
 10
271.0029520942
 20
192.1546481961
 30
0.0
 10
270.9504475538
 20
192.1959846792
 30
0.0
 10
270.8887764127
 20
192.2694766031
 30
0.0
 10
270.8494743793
 20
192.338596474
 30
0.0
 10
270.8305313149
 20
192.3771984027
 30
0.0
  0
SPLINE
  5
320
100
AcDbEntity
  8
0
100
AcDbSpline
 62
7
  6
CONTINUOUS
 70
0
 71
3
 72
13
 73
9
 74
0
 42
0.0000001
 43
0.0000001
 44
0.0000000001
 40
0.0
 40
0.0
 40
0.0
 40
0.0
 40
0.2775423082
 40
0.53417147
 40
0.6554170139
 40
0.7726916885
 40
0.8870987104
 40
1.0
 40
1.0
 40
1.0
 40
1.0
 10
270.8305313149
 20
192.3771984027
 30
0.0
 10
270.7441054661
 20
192.3771984027
 30
0.0
 10
270.5770938127
 20
192.3936939995
 30
0.0
 10
270.3820948537
 20
192.4619349575
 30
0.0
 10
270.2502626969
 20
192.5428755057
 30
0.0
 10
270.1659822601
 20
192.6141229125
 30
0.0
 10
270.0958748785
 20
192.6959606911
 30
0.0
 10
270.0592218198
 20
192.7569785674
 30
0.0
 10
270.0437327707
 20
192.7885398228
 30
0.0
  0
SPLINE
  5
321
100
AcDbEntity
  8
0
100
AcDbSpline
 62
7
  6
CONTINUOUS
 70
0
 71
3
 72
14
 73
10
 74
0
 42
0.0000001
 43
0.0000001
 44
0.0000000001
 40
0.0
 40
0.0
 40
0.0
 40
0.0
 40
0.3044890871
 40
0.4429432011
 40
0.5711932665
 40
0.689429849
 40
0.7987400794
 40
0.9012328273
 40
1.0
 40
1.0
 40
1.0
 40
1.0
 10
258.7394576346
 20
218.5214216429
 30
0.0
 10
258.6437011513
 20
218.5199873336
 30
0.0
 10
258.5037907323
 20
218.5061796074
 30
0.0
 10
258.3303071261
 20
218.4581342084
 30
0.0
 10
258.2184210434
 20
218.4108176105
 30
0.0
 10
258.1227358966
 20
218.3518265251
 30
0.0
 10
258.0450666719
 20
218.2819590115
 30
0.0
 10
257.9871764844
 20
218.2023242629
 30
0.0
 10
257.9626402109
 20
218.143191452
 30
0.0
 10
257.9543231944
 20
218.1132615143
 30
0.0
  0
SPLINE
  5
322
100
AcDbEntity
  8
0
100
AcDbSpline
 62
7
  6
CONTINUOUS
 70
0
 71
3
 72
15
 73
11
 74
0
 42
0.0000001
 43
0.0000001
 44
0.0000000001
 40
0.0
 40
0.0
 40
0.0
 40
0.0
 40
0.1024058471
 40
0.2186251403
 40
0.3455911471
 40
0.4795143349
 40
0.6161983222
 40
0.7512927296
 40
0.8805311744
 40
1.0
 40
1.0
 40
1.0
 40
1.0
 10
258.8200420962
 20
216.8520161975
 30
0.0
 10
258.7944548824
 20
216.904157487
 30
0.0
 10
258.7490258152
 20
217.0200220254
 30
0.0
 10
258.6986364183
 20
217.2097383128
 30
0.0
 10
258.663095935
 20
217.4209310077
 30
0.0
 10
258.6437970941
 20
217.6458176389
 30
0.0
 10
258.641478231
 20
217.8761198876
 30
0.0
 10
258.6562366825
 20
218.1033128161
 30
0.0
 10
258.6874899808
 20
218.3189648118
 30
0.0
 10
258.720100734
 20
218.4564866687
 30
0.0
 10
258.7394576346
 20
218.5214216429
 30
0.0
  0
SPLINE
  5
323
100
AcDbEntity
  8
0
100
AcDbSpline
 62
7
  6
CONTINUOUS
 70
0
 71
3
 72
26
 73
22
 74
0
 42
0.0000001
 43
0.0000001
 44
0.0000000001
 40
0.0
 40
0.0
 40
0.0
 40
0.0
 40
0.194971209
 40
0.3824320429
 40
0.4710857429
 40
0.5552022111
 40
0.6339730472
 40
0.7066400339
 40
0.7725056389
 40
0.8309356711
 40
0.8813682717
 40
0.9233221616
 40
0.9409903223
 40
0.9563966411
 40
0.9695024144
 40
0.980279989
 40
0.9887077037
 40
0.9947701486
 40
0.9984775376
 40
0.9994768232
 40
1.0
 40
1.0
 40
1.0
 40
1.0
 10
88.3255802237
 20
180.3415571123
 30
0.0
 10
88.2475710196
 20
180.3401958713
 30
0.0
 10
88.0945529366
 20
180.3377840174
 30
0.0
 10
87.9060535994
 20
180.3354713279
 30
0.0
 10
87.7619070408
 20
180.3341383897
 30
0.0
 10
87.6612510007
 20
180.333428026
 30
0.0
 10
87.5669907944
 20
180.3329941483
 30
0.0
 10
87.4800330927
 20
180.3328401941
 30
0.0
 10
87.401215036
 20
180.3329665035
 30
0.0
 10
87.3312954326
 20
180.3333692849
 30
0.0
 10
87.2709469927
 20
180.3340433341
 30
0.0
 10
87.2269136947
 20
180.3348559329
 30
0.0
 10
87.1969004591
 20
180.335676475
 30
0.0
 10
87.1784323777
 20
180.3363172551
 30
0.0
 10
87.1627227329
 20
180.3370181274
 30
0.0
 10
87.149821103
 20
180.3377679577
 30
0.0
 10
87.1397227024
 20
180.338576003
 30
0.0
 10
87.1325256566
 20
180.3393829437
 30
0.0
 10
87.1282113519
 20
180.3402014032
 30
0.0
 10
87.1262956331
 20
180.3408647302
 30
0.0
 10
87.1257666433
 20
180.341347786
 30
0.0
 10
87.1257629895
 20
180.3415571123
 30
0.0
  0
SPLINE
  5
324
100
AcDbEntity
  8
0
100
AcDbSpline
 62
7
  6
CONTINUOUS
 70
0
 71
3
 72
26
 73
22
 74
0
 42
0.0000001
 43
0.0000001
 44
0.0000000001
 40
0.0
 40
0.0
 40
0.0
 40
0.0
 40
0.000523177
 40
0.0015224636
 40
0.0052298557
 40
0.0112923036
 40
0.0197200247
 40
0.0304976086
 40
0.0436033888
 40
0.0590097193
 40
0.0766778947
 40
0.1186318113
 40
0.1690644445
 40
0.2274945206
 40
0.2933601634
 40
0.366027191
 40
0.444798081
 40
0.5289145899
 40
0.6175683132
 40
0.8050292571
 40
1.0
 40
1.0
 40
1.0
 40
1.0
 10
143.8742370124
 20
180.3415571123
 30
0.0
 10
143.8742333586
 20
180.3413477859
 30
0.0
 10
143.8737043679
 20
180.34086473
 30
0.0
 10
143.8717886477
 20
180.3402014032
 30
0.0
 10
143.8674743398
 20
180.3393829434
 30
0.0
 10
143.8602772893
 20
180.3385760019
 30
0.0
 10
143.8501788811
 20
180.3377679564
 30
0.0
 10
143.8372772421
 20
180.3370181261
 30
0.0
 10
143.8215675862
 20
180.3363172533
 30
0.0
 10
143.8030994914
 20
180.3356764734
 30
0.0
 10
143.7730862346
 20
180.3348559315
 30
0.0
 10
143.729052907
 20
180.3340433325
 30
0.0
 10
143.6687044258
 20
180.3333692835
 30
0.0
 10
143.5987847768
 20
180.332966503
 30
0.0
 10
143.519966671
 20
180.3328401941
 30
0.0
 10
143.4330089163
 20
180.332994149
 30
0.0
 10
143.3387486557
 20
180.3334280282
 30
0.0
 10
143.2380925684
 20
180.334138393
 30
0.0
 10
143.0939459403
 20
180.3354713325
 30
0.0
 10
142.9054467363
 20
180.3377840229
 30
0.0
 10
142.7524287959
 20
180.3401958745
 30
0.0
 10
142.6744197782
 20
180.3415571123
 30
0.0
  0
SPLINE
  5
325
100
AcDbEntity
  8
0
100
AcDbSpline
 62
7
  6
CONTINUOUS
 70
0
 71
3
 72
26
 73
22
 74
0
 42
0.0000001
 43
0.0000001
 44
0.0000000001
 40
0.0
 40
0.0
 40
0.0
 40
0.0
 40
0.000523177
 40
0.0015224636
 40
0.0052298557
 40
0.0112923036
 40
0.0197200247
 40
0.0304976086
 40
0.0436033888
 40
0.0590097193
 40
0.0766778947
 40
0.1186318113
 40
0.1690644445
 40
0.2274945206
 40
0.2933601634
 40
0.366027191
 40
0.444798081
 40
0.5289145899
 40
0.6175683132
 40
0.8050292571
 40
1.0
 40
1.0
 40
1.0
 40
1.0
 10
234.2290571123
 20
76.4260444436
 30
0.0
 10
234.2288477859
 20
76.4260480974
 30
0.0
 10
234.22836473
 20
76.4265770881
 30
0.0
 10
234.2277014032
 20
76.4284928083
 30
0.0
 10
234.2268829434
 20
76.4328071162
 30
0.0
 10
234.2260760019
 20
76.4400041667
 30
0.0
 10
234.2252679564
 20
76.4501025749
 30
0.0
 10
234.2245181261
 20
76.4630042139
 30
0.0
 10
234.2238172533
 20
76.4787138698
 30
0.0
 10
234.2231764734
 20
76.4971819645
 30
0.0
 10
234.2223559315
 20
76.5271952214
 30
0.0
 10
234.2215433325
 20
76.571228549
 30
0.0
 10
234.2208692835
 20
76.6315770301
 30
0.0
 10
234.220466503
 20
76.7014966792
 30
0.0
 10
234.2203401941
 20
76.780314785
 30
0.0
 10
234.220494149
 20
76.8672725397
 30
0.0
 10
234.2209280282
 20
76.9615328003
 30
0.0
 10
234.221638393
 20
77.0621888875
 30
0.0
 10
234.2229713325
 20
77.2063355157
 30
0.0
 10
234.2252840229
 20
77.3948347197
 30
0.0
 10
234.2276958745
 20
77.5478526601
 30
0.0
 10
234.2290571123
 20
77.6258616777
 30
0.0
  0
SPLINE
  5
326
100
AcDbEntity
  8
0
100
AcDbSpline
 62
7
  6
CONTINUOUS
 70
0
 71
3
 72
26
 73
22
 74
0
 42
0.0000001
 43
0.0000001
 44
0.0000000001
 40
0.0
 40
0.0
 40
0.0
 40
0.0
 40
0.1949712807
 40
0.3824321696
 40
0.4710858976
 40
0.5552023872
 40
0.6339732338
 40
0.7066402285
 40
0.7725058376
 40
0.8309358587
 40
0.8813684438
 40
0.9233223161
 40
0.9409904557
 40
0.9563967597
 40
0.9695025226
 40
0.9802800669
 40
0.9887077607
 40
0.9947701905
 40
0.9984775509
 40
0.999476826
 40
1.0
 40
1.0
 40
1.0
 40
1.0
 10
234.2290571123
 20
116.9991383223
 30
0.0
 10
234.2276958708
 20
117.0771475553
 30
0.0
 10
234.2252840161
 20
117.2301656893
 30
0.0
 10
234.2229713264
 20
117.418665089
 30
0.0
 10
234.2216383882
 20
117.5628116898
 30
0.0
 10
234.2209280246
 20
117.6634677541
 30
0.0
 10
234.2204941477
 20
117.7577279767
 30
0.0
 10
234.2203401941
 20
117.8446856877
 30
0.0
 10
234.220466504
 20
117.923503745
 30
0.0
 10
234.2208692869
 20
117.9934233395
 30
0.0
 10
234.2215433376
 20
118.0537717619
 30
0.0
 10
234.2223559361
 20
118.0978050383
 30
0.0
 10
234.22317648
 20
118.1278182525
 30
0.0
 10
234.2238172614
 20
118.1462863154
 30
0.0
 10
234.2245181337
 20
118.1619959379
 30
0.0
 10
234.2252679663
 20
118.1748975433
 30
0.0
 10
234.2260760109
 20
118.1849959166
 30
0.0
 10
234.2268829455
 20
118.1921929389
 30
0.0
 10
234.2277014025
 20
118.1965072186
 30
0.0
 10
234.2283647313
 20
118.1984229236
 30
0.0
 10
234.2288477871
 20
118.1989519027
 30
0.0
 10
234.2290571123
 20
118.1989555564
 30
0.0
  0
ELLIPSE
  5
327
100
AcDbEntity
  8
0
100
AcDbEllipse
 62
7
  6
CONTINUOUS
 10
265.5980549187
 20
241.1408175875
 30
0.0
 11
1.1467752523
 21
-0.3545588102
 31
0.0
 40
0.5723949325
 41
2.0660455335
 42
3.1581360611
  0
ELLIPSE
  5
328
100
AcDbEntity
  8
0
100
AcDbEllipse
 62
7
  6
CONTINUOUS
 10
328.9255655661
 20
216.0280056321
 30
0.0
 11
1.1467752523
 21
-0.3545588102
 31
0.0
 40
0.5723949325
 41
-0.0165307945
 42
0.4949446203
  0
ELLIPSE
  5
329
100
AcDbEntity
  8
0
100
AcDbEllipse
 62
7
  6
CONTINUOUS
 10
316.6019944666
 20
241.1408175875
 30
0.0
 11
1.1465841875
 21
-0.3541420658
 31
0.0
 40
0.5726864925
 41
0.4949190161
 42
2.0654107564
  0
ELLIPSE
  5
32A
100
AcDbEntity
  8
0
100
AcDbEllipse
 62
7
  6
CONTINUOUS
 10
143.1875986871
 20
117.5123172312
 30
0.0
 11
0.848786627
 21
0.848786627
 31
0.0
 40
0.9996954599
 41
-0.7852458701
 42
0.7852458701
  0
ELLIPSE
  5
32B
100
AcDbEntity
  8
0
100
AcDbEllipse
 62
7
  6
CONTINUOUS
 10
143.1875986871
 20
77.1126827688
 30
0.0
 11
0.848786627
 21
-0.848786627
 31
0.0
 40
0.9996954599
 41
-0.7852458701
 42
0.7852458701
  0
ELLIPSE
  5
32C
100
AcDbEntity
  8
0
100
AcDbEllipse
 62
7
  6
CONTINUOUS
 10
87.8124013148
 20
117.5123172312
 30
0.0
 11
0.848786627
 21
-0.848786627
 31
0.0
 40
0.9996954599
 41
2.3563467834
 42
3.9268385237
  0
ELLIPSE
  5
32D
100
AcDbEntity
  8
0
100
AcDbEllipse
 62
7
  6
CONTINUOUS
 10
87.8124013148
 20
77.1126827688
 30
0.0
 11
0.848786627
 21
0.848786627
 31
0.0
 40
0.9996954599
 41
-3.9268385237
 42
-2.3563467834
  0
ENDSEC
  0
SECTION
  2
OBJECTS
  0
DICTIONARY
  5
32E
100
AcDbDictionary
  3
ACAD_GROUP
350
32F
  3
ACAD_MLINESTYLE
350
330
  0
DICTIONARY
  5
32F
102
{ACAD_REACTORS
330
32E
102
}
100
AcDbDictionary
  0
DICTIONARY
  5
330
102
{ACAD_REACTORS
330
32E
102
}
100
AcDbDictionary
  3
STANDARD
350
331
  0
MLINESTYLE
  5
331
102
{ACAD_REACTORS
330
330
102
}
100
AcDbMlineStyle
  2
STANDARD
 70
0
  3

 62
256
 51
90.0
 52
90.0
 71
2
 49
0.5
 62
256
  6
BYLAYER
 49
-0.5
 62
256
  6
BYLAYER
  0
ENDSEC
  0
EOF
