M48
;Layer_Color=9474304
;FILE_FORMAT=2:5
INCH,LZ
;TYPE=PLATED
T1F00S00C0.01575
T2F00S00C0.04400
T3F00S00C0.05118
T4F00S00C0.06299
T5F00S00C0.07087
T6F00S00C0.12205
T7F00S00C0.15748
%
T01
X005Y0073
X0088
X0131Y0075
X0133Y0058
X0131Y0035
X0124Y0117
X0115457Y014
X0155338Y0147
X0072Y0145
X007Y0155
X0048Y0117
X0164Y0094
X0166051Y0047
X0321299Y004826
X0355Y0035
X0386298Y0065
X0386Y0227
X0128Y0175
X0112Y0158776
X007Y0169
X005Y0189
T02
X0217Y0078
X02625Y00775
Y02995
X0217Y03
T03
X0114472Y003448
X0144Y004826
Y0127
X0142973Y0150039
X0114472Y0127
X01725Y0150039
X0313Y0213
X032678Y0242528
X039174
Y0213
X029922Y0242528
X01725Y0242559
Y0215
X0142973Y022878
X0083528Y0265779
X0054Y0252
Y017326
X0083528
T04
X006552Y03345
X010489
X014426
X018363
X0223
X026237
T05
X006174Y0062929
Y0079465
Y0096
Y0121732
Y0138268
X0083394
Y0121732
T06
X0033Y0062929
Y0096
Y013
T07
X0035433Y0035433
X0385827
X0035433Y0330709
X0385827
M30
